<mxfile host="Electron" agent="Mozilla/5.0 (Windows NT 10.0; Win64; x64) AppleWebKit/537.36 (KHTML, like Gecko) draw.io/26.0.4 Chrome/128.0.6613.186 Electron/32.2.5 Safari/537.36" version="26.0.4">
  <diagram name="第 1 页" id="t1Mh9GcermQUBpjUwSof">
    <mxGraphModel dx="594" dy="1676" grid="1" gridSize="10" guides="1" tooltips="1" connect="1" arrows="1" fold="1" page="1" pageScale="1" pageWidth="827" pageHeight="1169" math="0" shadow="0" adaptiveColors="auto">
      <root>
        <mxCell id="0" />
        <mxCell id="1" parent="0" />
        <mxCell id="H9l12tLdnF7aZDhb0lx9-13" value="實施方法" style="rounded=0;whiteSpace=wrap;html=1;shadow=1;verticalAlign=top;fillColor=none;" parent="1" vertex="1">
          <mxGeometry x="1024" y="1604.2" width="260" height="75.8" as="geometry" />
        </mxCell>
        <mxCell id="W_6RqLE3xj3r34jLqila-97" value="" style="rounded=0;whiteSpace=wrap;html=1;fillColor=none;dashed=1;dashPattern=8 8;" parent="1" vertex="1">
          <mxGeometry x="860" y="970" width="730" height="146.25" as="geometry" />
        </mxCell>
        <mxCell id="W_6RqLE3xj3r34jLqila-75" value="" style="rounded=0;whiteSpace=wrap;html=1;fillColor=none;dashed=1;dashPattern=8 8;" parent="1" vertex="1">
          <mxGeometry x="150" y="950" width="660" height="205" as="geometry" />
        </mxCell>
        <mxCell id="W_6RqLE3xj3r34jLqila-54" value="" style="rounded=0;whiteSpace=wrap;html=1;fillColor=light-dark(#9fdaf5, #EDEDED);shadow=1;" parent="1" vertex="1">
          <mxGeometry x="475" y="1262" width="250" height="100" as="geometry" />
        </mxCell>
        <mxCell id="W_6RqLE3xj3r34jLqila-15" value="" style="html=1;shadow=0;dashed=0;align=center;verticalAlign=middle;shape=mxgraph.arrows2.arrow;dy=0.6;dx=40;notch=0;gradientColor=light-dark(#fbeca2, #ededed);gradientDirection=east;fillColor=light-dark(#9fdaf5, #ededed);" parent="1" vertex="1">
          <mxGeometry x="530" y="480.15" width="420" height="50" as="geometry" />
        </mxCell>
        <mxCell id="130tE-UftCdM7chXd9jr-56" value="" style="ellipse;whiteSpace=wrap;html=1;aspect=fixed;rounded=0;strokeColor=none;align=center;verticalAlign=middle;fontFamily=Helvetica;fontSize=12;fontColor=default;fillColor=light-dark(#b1d5f7, #4b2d08);" parent="1" vertex="1">
          <mxGeometry x="424.62" y="158.63" width="240.75" height="240.75" as="geometry" />
        </mxCell>
        <mxCell id="130tE-UftCdM7chXd9jr-14" value="" style="shape=image;verticalLabelPosition=bottom;labelBackgroundColor=light-dark(#b1d5f7, #ededed);verticalAlign=top;aspect=fixed;imageAspect=0;image=data:image/png,iVBORw0KGgoAAAANSUhEUgAAAi0AAAD3CAYAAADR02QSAAAAAXNSR0IArs4c6QAAAARnQU1BAACxjwv8YQUAAAAJcEhZcwAADsMAAA7DAcdvqGQAAAY2SURBVHhe7dwxq9ZlHMdhT8ehcjAQIQJBwUCEdAwREdoEaWwTWpp6EdGLaGoJ3BojaAtERFoEDURMUBAiEAcHq8HD6Qz34IlTKJ37+Z/P6bqW5/sSPvz+N8/a5pYDAAB73BvjFwBgTxMtAECCaAEAEkQLAJAgWgCABNECACSIFgAgQbQAAAmiBQBIEC0AQIJoAQASRAsAkCBaAIAE0QIAJIgWACBBtAAACaIFAEgQLQBAgmgBABLWNreMzX5y98YYTHP6/BgArIJLCwCQMPXSsvHkwVjMsn705Fh/49Iy3zunxmCa946MASBa8kTLgkTLfKJlOdfvjME0F86MwasSLXGiZUGiZb5b98dgqsvnxniJaJlPtLw2b1oAgATRAgAkiBYAIEG0AAAJogUASBAtAECCaAEAEkQLAJAgWgCABNECACSIFgAgQbQAAAmiBQBIEC0AQIJoAQASRAsAkCBaAIAE0QIAJIgWACBBtAAACaIFAEgQLQBAgmgBABJECwCQIFoAgATRAgAkiBYAIEG0AAAJogUASBAtAECCaAEAEkQLAJAgWgCABNECACSIFgAgQbQAAAmiBQBIEC0AQIJoAQASRAsAkCBaAIAE0QIAJIgWACBBtAAACaIFAEhY29wy9q7bePJgLGZZP3pyLFbu16djMM2t+2Mw1eVzY7zk+p0xmObCmTF4VS4tAEDC1EsLwH/y/c0xmMqlZRkuLa9NtAB7l2hZjZ2iBfYg0QIAJHjTAgAkiBYAIEG0AAAJogUASBAtAECCaAEAEkQLAJDgf1pghrtfjsE0p78YY7uNGy/GYpb18wfHgtVyaQEAElxa9qkXT6+OxSwHj1wZawcuLfO5tCzGpYWlTI2WjUfXxmKW9eMXx9pOtMwnWhYmWhYjWliKz0MAQIJoAQASRAsAkCBaAIAE0QIAJIgWACBBtAAACaIFAEgQLQBAgmgBABJECwCQIFoAgATRAgAkiBYAIEG0AAAJogUASBAtAECCaAEAEkQLAJAgWgCABNECACSIFgAgQbQAAAmiBQBIEC0AQIJoAQASRAsAkCBaAIAE0QIAJIgWACBBtAAACaIFAEgQLQBAgmgBABJECwCQIFoAgATRAgAkiBYAIEG0AAAJogUASBAtAECCaAEAEkQLAJAgWgCABNECACSIFgAgYW1zy9i7buPRtbGYZf34xbG2e/H06ljMcvDIlbEAWAWXFgAgwaUl7p8uLQCw30yNFgCA3eLzEACQIFoAgATRAgAkeNOyT331849jMcvnH3w0FnvJbzfHYJp3z40BK+bSAgAkiBYAIEG0AAAJU9+0PH52byxmOXb41FjbedMy37+9abn9/OFYzHL20ImxtvOmZT5vWliKSwsAkCBaAIAE0QIAJIgWACBBtAAACaIFAEgQLQBAgmgBABJECwCQIFoAgATRAgAkiBYAIEG0AAAJogUASBAtAECCaAEAEkQLAJAgWgCABNECACSIFgAgQbQAAAmiBQBIEC0AQIJoAQASRAsAkCBaAIAE0QIAJIgWACBBtAAACaIFAEgQLQBAgmgBABJECwCQIFoAgATRAgAkiBYAIEG0AAAJogUASBAtAECCaAEAEkQLAJAgWgCABNECACSIFgAgQbQAAAlrm1vG3nWPn90bi1mOHT41FnvJ7ecPx2KWs4dOjAX8X7i0AAAJogUASBAtAEDC1DctAAC7xaUFAEgQLQBAgs9DwL7y0w9jMM2Hl8aAFXNpAQASXFpgss++/WMsZvn6k7fGcmlZBZcWluLSAgAkuLTsc9/88vtYzPLp+2+PtTOXlvlcWlbLpYWluLQAAAlTLy3f3f1zLGb5+PSbY+3MpWU+l5blubSslksLS3FpAQASRAsAkCBaAIAE0QIAJIgWACBBtAAACaIFAEgQLQBAgmgBABJECwCQIFoAgATRAgAkiBYAIEG0AAAJogUASBAtAECCaAEAEkQLAJAgWgCABNECACSIFgAgQbQAAAmiBQBIEC0AQIJoAQASRAsAkCBaAIAE0QIAJIgWACBBtAAACaIFAEgQLQBAgmgBABJECwCQIFoAgATRAgAkiBYAIEG0AAAJogUASBAtAECCaAEAEkQLAJAgWgCABNECAAQcOPAXOGvUfAUVfwgAAAAASUVORK5CYII=;" parent="1" vertex="1">
          <mxGeometry x="593" y="1497.86" width="357" height="158.31" as="geometry" />
        </mxCell>
        <mxCell id="130tE-UftCdM7chXd9jr-20" value="&lt;span style=&quot;font-size: 12px;&quot;&gt;&lt;font face=&quot;Helvetica&quot;&gt;天文教育&lt;/font&gt;&lt;/span&gt;" style="rounded=0;whiteSpace=wrap;html=1;fontSize=14;labelBackgroundColor=none;fillColor=light-dark(#9fdaf5, #103c3f);strokeColor=none;fontColor=default;" parent="1" vertex="1">
          <mxGeometry x="500" y="265" width="90" height="40" as="geometry" />
        </mxCell>
        <mxCell id="130tE-UftCdM7chXd9jr-29" value="" style="group;fillColor=#fff2cc;gradientColor=#ffd966;strokeColor=#d6b656;" parent="1" vertex="1" connectable="0">
          <mxGeometry x="720" y="234" width="160" height="30" as="geometry" />
        </mxCell>
        <mxCell id="130tE-UftCdM7chXd9jr-21" value="&lt;font face=&quot;Times New Roman&quot;&gt;設備成本昂貴&lt;/font&gt;" style="text;html=1;align=left;verticalAlign=middle;resizable=0;points=[];autosize=1;strokeColor=none;fillColor=none;" parent="130tE-UftCdM7chXd9jr-29" vertex="1">
          <mxGeometry x="30" width="100" height="30" as="geometry" />
        </mxCell>
        <mxCell id="130tE-UftCdM7chXd9jr-24" value="" style="shape=image;verticalLabelPosition=bottom;labelBackgroundColor=default;verticalAlign=top;aspect=fixed;imageAspect=0;image=data:image/png,iVBORw0KGgoAAAANSUhEUgAAAIAAAACACAYAAADDPmHLAAAACXBIWXMAAAOwAAADsAEnxA+tAAAAGXRFWHRTb2Z0d2FyZQB3d3cuaW5rc2NhcGUub3Jnm+48GgAAFhtJREFUeJztnXlwXNWVh3/nvl7UsrVLlrElq7slW5J3Yzt4ASO1vCC8qkXDmJCEgRmTUBAqYRIzw+YhyaQSkkwqyZAhoRKWhBBky8Y28QCWrAkBwrCEXQ5IannBu63FtmSp+70zf2h73dp6eb1Ifl+Vq9x3Offo9On77rvLuYCOjo6Ojo6Ojo6Ojo6Ojo6Ojo6Ojo6OzniGYq1ALJh29do0yWz+BhgOMJjAtQrzfzbX7WqNtW7R5rJzgIISZ44scABAgV9Wg6SgtKGu+mgs9IoVItYKRBP7SleKLLAXg798AChQBL+Us8aVHm29Ysll4wA5S10WluW9AOYNV4ZBM40e+U/Zq780IYqqxRQp1gpEg5KSEsN5U8J2EFap0xfMXokEkwWt7afVyTlGxTNnfl52VXNzsxJdTaPP5dAD0CFK/28A69WJBbaFWHnNrahc+y1Mybb511l/SKT9FpfBGGnc9wDWMud/EPB1ddq0KcVwXn8vJGGAEBKmWxfhM/dbuNR1UVWK5qbai02t7vqaKKscVca1A9hLnXcC+L46LTMjFzeu3wqT0dKfZjQmwD5tNj5zv42u7kv96QRck24tam9pPvjXqCkdZcatA1jLKv4BoCeg6saTJqbj5o0PYEJi6qDyloRkTMnKRUPze/B4uwcyiFanWYvcrc0H34+G3tFmXDpAvqPCAVAVAGNfmiVhIjZvfBCpKdnD1ktKykZaUiqaDn8IWZH7kglE61KtM/+vtbm+MbKaR59x5wD2kspFTNgHILEvzWgww7XuPmRnWUesSwDSUnOQmGDCoaP1ULj/JUAigjPFXnSgzX1wXE0UjSsHKHBsyleIagD0T+YIIaGi/BvImzorIBlEAulpU2GSgMPHPgOD+7KMBNqYZp29u7X5k7Paax8bxo0D5K+umKQoohbAtL40IkJ56T+jKH9JULIkyYS0lGwQPPj8RJM6KxHgtSm5xc+3Ha6/oI3msWVcOEBBeXmy4jHuB+DzMy9ZuhlXzlkdkkyTaQKSJqQA7MHx04cHMghpJNHq5Kn259oOf3ZpeAljgzHvALNcLlP3eWkXgOXq9AWzV+HaJTeFJdtiSUVighld3RdxpuWEOitbSIYlqXlXPdfa/J43rEZizNh2gG3bxMSDJ5+F3yxfccEylDu2gMKcyCMQEi3pmJBgQkfnebT4Thlbibrmzs/L3j6Wp4zHtAPYpIyfAnybOi1v6kxsuu4eCKHNnyaEBHNCCpITE9F2/hzaL7SoswvbhGVyq7t+ryaNxYAx6wB2h3MbgK3qtKz0aXCt3wqTMUHTtgwGMyQhIT0lDWdbT+JiR7s6e2G6rZha3PV1mjYaJcakA1jLnHcA+JE6LTV5Em7e9CASLUkRadNsToYsX0JW2iScPH0El7o61Nklqdailtbmg29GpPEIMuYcwFbq3EDA01CtZFoSkrB54wNIScqMaNsWSxoudbXjisxcHDvlRrdHtW5AtCbNVlTf6j74SUSV0Jgx5QDW0opriegFAKa+NKPBjBvX3YdJmXkRb59IwJKQikuXWjA5KxdHTzTA6/X0ZwO0Mc1e9Gar+2DTSHLiiTHjAPaVG+cA0v8A6O/jhZBQWX4vpk0tjpoekmSEyZgIb3c7sjNzceR4I2Sl/01QArAxJX/WS21N9SdGEBM3jAkHyFvtspGCAwCy+tKICOWOO1CY/4Wo62M0WsDMAHuQmXEFjhz7TLVuQGZiVKQXzHyhpan+XNSVC5K4d4CcNa50g1f+XwA+fbxj+S1YMGtljLQCLJYUdHVdgMlgQHJSOo6eaAIG1g0mgHHdxBmzf9/e+ElnzJQMgLjfEmbs9v4EwHR12hfmr8PiedfHSKM+CFlZM2A0JGBqtg2L51wLkM/E03SDR/7RcLXjhbjuAawltyaQ6H4aqnX9WTOWY/WK20AU++16giSYzcm4cOEkUpMzIUkGnDwzsFpMQGFmkfXH5xoa5BHExBRDrBUYCa/5YqLRg/69WwSCx9OF3S//HAxGl2oPn6x40e3phtloxoI5q4JeARyNhuZ38dYH+9DVNbhH93g6wL1jACLR/38Aid5OswVAl6bKaEjsf0ajYHM43QCswdQhIeGOm3+ClOSs0QsHQEdnO3759N3wyp7RC6thuN0Hqu2aKBEh4n4MwETbgq6jyDjb8nnYbXd3X0Rb21Ec+fyD4L98ACA8HLYSESbuHaC5ZsdTTPgqgDPB1GPm0QuNQlfXeZxraUb7+ePBVj0N8BZ3bfUzYSsRYeJ6DNBHc0314wsXbvnNueQWu4Bn4lBlFIifgnB1VBQiek8o8j8NrYfxQnp7WtM77/wqhC4j+owJBwCAXoP+fbh8q8PZrh7QRPQtgZXzjQd2vTNctjtyLWtO3D8CdCKL7gCXOboDBIAWA8p4JWpjAGuZ8yZiqgQUBosd7gM7no9W22OBWNknGj0A2UqdTxDjOYBdAN0I4j/aSp0+5/a0hiM6xUVadgkxsU8fEXcAm8P5KAi3D8og3G5zOH+mVTsCcbA4EALRss9wRNQBrGWVDwG4d4Qid9lKnQ9GUod4Jh7sEzEHsJc67yTmf1enJVqS2GxK6PYpSHik9xx//BKBMeBQ9pmQmMwJJovvBFKE7RMRB7CXOm9mws/VaWZTIm5c/6/kuv5bJqPB6HOahgm/sDqct0ZCl3hkOPu41t1HrnXfNpoMpqjZR3MHsJVVrGLCb9WyjQYzblj3LWRnWjF1SjHKS283CElSr5ETAb+ylzrXaq1PhAi5TxjNPlMmF6LccbtBkiS1E0TMPpo6QF5ZxVIw7YRq164QEjZedw9yJhf2lysquBqlS26QiIT6SJWRCVU2h3OFljrFE4HapzB/OUqvqjQQCfWPJCL20cwBbGWVcwWLFwH0x9gjENatvBP50+b7lCUSmFNUhmVXrhHk+2uyALwnv3TTQq30iheCtc/s4pVYduUaiYjUPxLN7aOJA+SXuArA/BLAaX1pRITV196O4oKlQ9YxmydiduG1WDyvzO/1jZIVEvusJZVF4egU7sFQLQnVPjOnX43Fcx0CPj8SbezTR9gOkONwTVWE/AqAyer0FUtuwvxZjhHrpqbkotC+EHMLBxkhiwS/YnM4Az7twRy5qZ9wJIdjn7S0PEy3LsDcwiX+Y46g7TMcYTnAjJL1mSZ4X4bflq1Fc6/DkgUbRhdAhKzMIhQXLEKRbYF/bg6AV2xlG4aP6hQrAlwcCNc+RAJZmdNRnL9QFNrm+8ch0MQ+ITtA4fINSR7JuI9BM9XpcwqvgWP5lwKWYzQmID3NirlFS2DPLfY37HSw4SVryabBcd2iQRi/fK3sYzYnITl5CuYVLTXYcov9I5KEbZ+QHGCWy2XqNkvbwVikTp9hW4Ty0i1Bb8ZISr4CiYnpWDinlHKvKPAPtjCPiHZaS27V9sx3BNHaPmlpeTCaErFoTmnC1Mn2Dr/ssOwTvAO4XFLHOflZgHyC7+TlzMKG1XeDQgjMQAAyMqbDIIxYMm+luCJrmu8+eqISEu3Pl5SUxP8OpkjYhwSyMmdAgLBs/urESelTL/gVCNk+QTuA9az8ABiV6rSp2dPhvP5fIEnG4aqNisFgQlq6FSQEll55nZSRku3/zFvfLGX8W8gNhEMQ+wEiZR+zOQkTJmaBhMDVi9dOTE3KbPcrEpJ9gvYYAr7qn2Y0mrGv5vGefCLkTinG/FllQXV1731cC/fhv6HzUluPYgbjIN0E8xYAjwSrs9YQDb8cHDn71ODTxjfglXuWUsymhGT/MqHYJ5Qu1eKf0Hz0I5/P9Q1vwGyyYOaM5f5FB9HRcQ4f1teg7s2do5blIdruR4B83pZjNw+gqX3OnmtC/aev4bV3941adkT7DEMIg0DeE0ipz09+FpC0M+cacOJ0gPtoObC2Y4t29mGWcb79GM62BnguIQT7BO0AksfwTQBvjK5LYM9NluVAH7GvdYsR187jAi3tw0pPoNpI2ifoR0DDq1WnASzPczgXSMxWpr4TxrQawJCHJYKG8DSY9wIAMWRZEu5D+3f8TRPZwRDCmt9Ys0+or1V8qLb6XQDv9iXYyiomqedMg3kGs5+lCfR+U211VYi6RQBf/ZTRXWPM2EffFn6ZozvAZY7uAJc5kXOAKL+GE8MndIfRaNZMtiR8Z/CIEH7gpzjZrhDzHmDItXZFCWH8Tc+jd3CWmpI96vUwwZCakomkCf0LbgyFY3uqKST7DI12iyvsv7srujTV7vjDPd+vmSdJpq3W3FkwGrTsASSsWn4Djpxo/OjNj+q+fGh/dfCvXCHYJ7Knm3qI/9W1IDCZEz0CEoi0D35GJCBJJkXIwn85dkwzbhzAXlpZuWPvo/czgMz0HHzF9T0Ywlh9AwbevxVFxv7Xd6Dt/Nm5IHxiK63cPF4Ot8Z8DKAZxF/k3qHVmXNHcfJ0s2aiW9vPoO18/0VhAsS3aCY8xsSHA2gwdGDAJ3aQx6PdfU5er//WBE4csmCkiODQKmIOEE6MHmWE9fbxQrzYR0MHiMaYdSwTn/aJj0eAJlCr+pPZrF0vbTT6DSbJt62IEYXQNDF9C+jqOg8o2sRRZkGPSRAbFEU2W3NmY3KmVRO5AJCanIXJmbk4ceYIAFwQzI+FK9Pj6cTFjpFjX3Z2Rt7PIuYA7e3H4G7+S6TED6J5//a6Hzx15EHZ4/1hWspkTeMEEhFWLF6Hlvazb+5/Y8eaxv1VbeHK7OxswalTB7VQLywi5gCyIrcBCOiSZVnxZgBICbfN5MSsdi0Dxfjs2iFCWkpmR5MGXz4AXOhoe5sJNQGVvdjiALBYi3b90c4BiFrUz6ymI5/8rObJ7z4USFWrw/kwAdt8ZIWAp8v8h46upm8SeEYo9dUwK2g/r+G1P372OX768L4f3rsyGPsMOECI9hkKzRyASOxhlj8CMBuE4xIrTwVaVxH0jKTwFgBTCPyJ3NW1OxQdvn4LtW/98f56MMJ2gKFg5pBXAePBPkPqpZUgACgpKTEcltLsipxyuLnuyaBmYgrKy81Kd0LeNLmlqa6uLuQLme/7yYECZmUTKdrehsICsiLLLzz67dWBbXcegniwj46Ojo6Ojo6Ojo6Ojs5lTXwtUbpcku2snCMLkiydntN/f233+VDETC2ryEiQDWkSLrV+WrcnqNvG+pjlcpkunvZMMQhIHRPk48f27BlxL+CU9esTzRcM0wU4+Mk1NrY11lU1Iga7auPCAexlFeuYxR0ArwTQH+uGgY+J8Kzc1fXLw395ccTpT/uqyunw8r0ssAGMK1RZJwHaDRY/dh+oGvbSqT6sZZWbiJW7ALoawMDWYsLbxPSbpgzxK1RV+Sxh5jtuWKZA+RPCWs/gGneGYY2/7EgTUwewlrgmk/A+5R9PZwhOEfHtTTU79w6RR1aH8yEC7ofqjuEh8AL8A/eKeQ9h2zb/QFTIWeqyGC3KUz2XNozIW5ICZ0Nddf8lwVaH8/cE3DxKvVEhwdc07d8ZvSVUxHBDSO6qDVNIyK8G8OUDwCRm2mUtq9zkl052h/M3vQtJo20BNgB0v/XP7/8OQzi+MUH+bQBfPgAslgVezlnjSu9XglmLVSOFvAYNV58CIza3h2/bJjLcp18EYf4QuacAnETPJk+1foLAWa3ug0/3JdjLKr/JwNYhZLQBaAZIgl/YFALNSbfNvNTiru//pdnKKlYB9INBUgjHe3VJhu+PJcugoLVPRnJO/ltkkLKISAbouO8/TIDqsQagASC3bxluJBbfaarbHtDysJbEZEeQ9dUPv+R/yycBB2RB9/YFOshZ40o3dXvvYaL70ecIjPf7yuevrpikeHmbn+hjCnDXoQxpN6qqZLhckv2ct5yZ/gvAtL5CDH4gd9WGp4+8svtYb8KX/eTUK8Ath2qq3+1vS6bHfKJ/Efovvugdnwy+9gWAzVG5B+B1/dWIv9FUUz3UoywmxOQRQIy7fT6D9qW1Za5RR7k4+lLVuaYDOx8WECsAbAf4e55Lhgf68hWP+AqAJJWY06woyw/VVu/sH0hVVclNNTv3eiAtA6DuXicYZMNtAwqI2Wp9WIg7ewM8AAAaX955yp0u3QTgF+jpoZ7p7hC/DN0C8UPUe4DeX+6VqiSvV+Cu4e7abazd/jqA1wdlEPtcnsDM322u29U8lIyjtVWf20orHwbx4wP1sRbAd3sr+15jw0ohgDqftKoq2Q3cDfg671gn6g6geKkIPoMwqj+8f0dTCKLyfT4xj7hJQvHyHmHEgAMwCgZUoL+C+Qv9Hxm/sJU5r2SgFrLy5nCONR6I+iOA2KfbBoOPhCgqQ/3B22U8OVLhQ69Wn4DvREsGeh1RyOLnALpUeQYwthDjORLCbXM4T9gczt12R+XXFi7cEt6Bwzgj+mMA4XtAgkCD3skDxEeOwTxh1MBNw9VvrKtq4J4In8Ppkg1gPYMfO5dy5u1pKyvtQWsbp4yjgyHh0Vxb/aQCZR2AQ6MUnSspXDOjZH1mNPSKNFF3AEURfoM9Jejwpj34DtwMlpOm4UoCPXP78O01PPDrFQ7V7tqXmCHNIMHXMNHDILzUOxfgj7VbGGMes1gLoj4IZOLT6m+B0D8oDHIhhE6gZ4IGAKB0WwoBvDVc6Y4z3mK/22WHjL/6cVVVN4C/9P4D0DNraVAMP1PPAxD4i3C57o723L3WRL0HMJo7PwYGgiwxMNVW6lw/Up0Cx6b8gmtcWeo0UgVhBAAFPChKtxomusOv/js+bZSXJ9scFS5ryaZBs5NHXtl9LL01czMA1VktSs4563sP0Fgk6g7QsG9fF4N3+SQSfl1QWjnLv2zOUpfFVup8QoZokI3yEZujYmCunmm7jwimf7Q5nEOGYrWVVnx5UBh34h19/51V4pro7bK8C9DzJMTbdkflZn8ZbSmnpkF15RsAGBTPxZH+1rFATKaChVC+z4p0Iwbm+ifJxG/bHRWPKyz2EXEnQHMB+U4Axb1lzAA9BKAKAJqunbPT9ucPPgAwtzefAPzaVla5Dqz8nhThBiGPBW8Gwwnf5//BaXLLH/smHzpJWUED8woSg5+xOZzLWIgdkqx4WNBVMvNW+Cw40YfNdbuic0o4gsTEAZr2v/ChtazyEb/LkxMYdA8R39PzcYghAaN/CRbbtimidNNtColXoV7wYd4I0EYWPJyYLoX4NvXhChaed8CGixj4hUsA7iJFuUshDHNMmx8N5G+Nd2L2Gthcs+M7gO8FyqPwKbPyNXVC44Fd7wB0E4BAu+IOYr75UM1On3Du7prdJ4lxE4BAT9w8466t/l1gRf28R4mv6CexnAdgd23114nxRQI+H6GcF6Bfs6JcNdSUrLt2xx4S8lIAfx6xMeB1VpTlTQd2Vg+V33Sg+kWQcDDQOIKYbmJ+xL1i7q0I9K2FWH0GXIGBPg2oXpSIiy1hBeXlZvlS4kYQVgJKEUBmEI6A+a8kDM837a86HIic/FLnckXwRvTc1ZfNjFME1IPEC+6a7a8GqotyKWEtAxsA5EFQAjGOM/h1ryQ/27+EHCDWkk2pROJHIBQx8ERzbfWTwdTX0dHR0dHR0dHR0dHR0dHR0dHR0dHR0dEJh/8HRsu0oMn9BM8AAAAASUVORK5CYII=;" parent="130tE-UftCdM7chXd9jr-29" vertex="1">
          <mxGeometry width="30" height="30" as="geometry" />
        </mxCell>
        <mxCell id="130tE-UftCdM7chXd9jr-30" value="" style="group;fillColor=#fff2cc;gradientColor=#ffd966;strokeColor=#d6b656;" parent="1" vertex="1" connectable="0">
          <mxGeometry x="720" y="270" width="180" height="30" as="geometry" />
        </mxCell>
        <mxCell id="130tE-UftCdM7chXd9jr-22" value="&lt;font face=&quot;Times New Roman&quot;&gt;有限的觀察時間&lt;/font&gt;" style="text;html=1;align=left;verticalAlign=middle;resizable=0;points=[];autosize=1;strokeColor=none;fillColor=none;" parent="130tE-UftCdM7chXd9jr-30" vertex="1">
          <mxGeometry x="30" width="110" height="30" as="geometry" />
        </mxCell>
        <mxCell id="130tE-UftCdM7chXd9jr-27" value="" style="shape=image;verticalLabelPosition=bottom;labelBackgroundColor=default;verticalAlign=top;aspect=fixed;imageAspect=0;image=data:image/png,iVBORw0KGgoAAAANSUhEUgAAAIAAAACACAYAAADDPmHLAAAACXBIWXMAAAOwAAADsAEnxA+tAAAAGXRFWHRTb2Z0d2FyZQB3d3cuaW5rc2NhcGUub3Jnm+48GgAAIABJREFUeJztnXd8FNX6/98zW9IbCR1MKIEgoDRRCNUCKApKUUFAEUQFFbui3CtiQaxcwcoFUeCqoChBFFSkowgGkE4gEKS3kJ5sm98fJ9nd2ZnZ3YRE8PfN5/XKC3bmzMzZPc+c85TP8xyoRjWqUY1qVKMa1ajG/zlIF7sDfxPigaZAE6AGEAHEAGFAOHAQ+A9QdLE6eLFgvtgdqGRIQArQpfTvcsTAxwZxbU3giarrWjWqCnWAscBi4DSgVPDvuyCfFw0sBPYBc4E7gbjK+SrVCBa1gAeBlYCDig962d95oEeQz35S53ob8PgFf6uLgH/aEtAFeBS4FTAF0d4GHAAyS/89ABwFcoBCoBgx+EdK2wYDp84xC/AK8C5CIKtRibACdwGbCPwmHwe+RryNnUqvrWyEAjOBPJ9nH9Rp2xC4ogr68H8CEmLgD+F/0PcDU4Gr+HutmhDgBuAtYBbQwuf8AMBe2scNQM+/sW//eHQDfsf/mv0O0OZidTAIpKHt9/cIM7QaBmgALMJ44HcilL/Ii9XBcuAZ9L/DlIvZqUsZw4Bs9H+07cDN/LMcVxIwGqFgen+X1y9mp3xxKfygNYEPgIE65w4DLwCfAa4K3t8MXIbwApZ5A6MQtnsYQqkDtVVwAmE5lFkPxyr4bEqfMRYYUnqvMQgrpBoIxegE2je+BPgXnsEpD2KAmxBm2WrEwF6on+A48A3wFJBKcCZoMKgDzAbmIITz/xTuQ9jevj/2VqBtOe8VC4wAliCE50IHPNDfWcSsdAvCGqgovPWdbKDPBdzrHwMzwmHi+6MWIxSn8jineiDezL9j0I3+ziDW9cbl+hUE1vjcywE8XIH7VBhVrQOkIqQ6CeEt2wdcg7CfvXEMoQP8FsQ9rcAdwGMEMVM0i4mjbXxNkmNiaRIdS3J0LHXCwwk3Wwg3m4m2CF/ReVsJxU4nObYSDufnkZmXw8HcHHZmn+O3U8c5W1Ic6FEuYBlCy18XxPcAYe5+h9BJvO/TCKH/VDmqSgBaIqbIdkG03QAMQqyzgTAA4fQxXC8bRETSP7EJ3erWp2ud+tQJCw+mv36hAHvPZ7Ph1DGWHj7I8iNZFDr8eny/ByYCW4K4fUtEIKtJ6WcXYjbJuoAuB42qEIDrEF8oIoi2ixDacSA/fAfgbaCr3sn4kFAGN07mzibN6VK7HrJUtRNbocPBD38d4n8H9pCWlYlTUfSaKcDnCLf0yQC3rIFYFtsjLKJ3K7O//lDZv1R9hNTXDLL9QcQ0bmQWhQAvI35E2fdkckwsj7dux4imLQgzX5y41l8FeXy0ezv/3buTU0WFek3OIXgGnyKE4pJCZQvAIuC2sg8JMRZeeyCZPlfH43AqLFpzin/NPEBBsSqgNgN9xacNIt7eyvdEq7h4Xmzfif6JjS/obS90OChw2DFLMhEWM1a54tZdgcPO9J3beOPPzWSXlOg1+Qm4m+CWujI0R1g36YggV6WjMgXgWmBF2YfwUBO/f9yRlo3UK8GqLdlc/2g6Tpf7ZXAgBnunV7NHgDfwiebFh4Qyqf013J/SGrOsmRB0cbKokLUnjvLnuTPsy8lmX855DufnkV1SrHkdLbJMXEgojaKiSYmJo1lsHFfWqEm3OvWJtFiCet55Wwmvb9vMW9vTsbs0vqvjCAV2bRC3ikDMkGWz6ROIZbBSUVkCYEJM/a3LDrw4qjH/vkffMrr/jd18nHbU+9BPQC+ECTgdeMD3mtHNW/Fax1RqhPj3DSnA2hNH+Sozg5XHj7Ar++wFz7tmWaZjzdpcV68hdzRpzuWxgeM528+dYcy6FWw8dcL3lAN4GhHM8odkhNVUBifC7/BD8D0PjMoSgAeB98s+JNYNZ/fcawgL0X9LT2XbaDZkAzkFKk36HmA4Qol0Iz4klJndrufWxCb4w6G8XGbv28m8/Xs4lJdbsW8RJNon1GJ4cgtGJLcg1mrsB3IqCv/ZsYXnNm3A5tLwSIYilER/WI54McqQg3jJ/qpAt3VRGQIQh5DUhLIDX77Rhdu7xoLd2HZ++8vDPDFjn+F5gJ51GzC3Zx/qhRsbFLvPn2Pqts18fmCv3pSrQWhoKE2bNiU2NpaIiAiiIqNQFIVz585RUFjA2bNnycrKwuHfzAMg2mLloZZXMr5VW2qGhhm2++3UCW5fsZQjBfneh98mMAk1HtiIx0QEGIfXy3ahqAwB+A9izQaga7tarJ59A5LihIKzoG8iYbO7uOKe39h7WFdzZlTzlryfei0Wg7X+WGEBT29cyxeZ+3AZPMNkMtGhQweuu+46UlNTSUlJISkpCVnnnoqi4LA7sNvsFBcVc+jQIXbt3sW69etYvWY1e/bsMfwBIswWHmvdlglXXmVojZwuLmLEquUsP5JFjDXEeVujpjfP2btzmeFNPbgc4ViKQxBMriY4/0JQuFABaAFsQ3j5kGWJzZ/fSNuUUpJsST6UFBhevPTXM9z89FZNh15s34mJbTvqXuNwuZixaxuT/viNXLvWfSBJEt27d2fkyJH069eP2NhgGOFqOB1OSopLcDk9M8qx48dY+NVCPv/8c3bu2ql7XaOoaN7t3IO+DRsZ3ntfTjb1wiOJtFiOS4rSS5r17o4gutQI6Af8iiDKVBouVACWAb3LPowe0JSZL1ztdVrhRNYxps7LJDzExNN3JRIToX5DbnpqCz/8dtb9+caGSSzt3V/3YQfzcrnzl+/ZdFrrVwkPD+eBBx5g3LhxNG4cnFve6XTy/fffU6NGDVJTUzXnHXYHJUUlKD4zTPqWdN6Z9g5pS9Jw6Sw7I5Jb8F5qTyLMAS2H4xLOVOm/Mw4G1eEqwIUIwM2I6BsAMZEW9i3pR60aai39hvt+4uffTwFwb996zHr2ctX5PVkFXHHPb9gd4keWJYmN/e+kfUItVbtvDh1g1JqfOG9T29hhYWGMHTuWp556itq1a5frCwwfPpx58+YBMH36dB566CFNG0VRsBXbsNvsmnN79+5lytQpfL1Ia6K3iK3BF9feSOsaCZpz6geQIVksXaQP36wJnELkNvxtCM6Y1sKKIEO68a/7W2sGH2DLPo+T74+9eZrzKYkRjBvQ0P3ZpSg8+utqt+mmAP/a/CuDfv5OM/jXXXcd27dv58033yz34AN888037v8vWrRIt40kSYSEhRAaHork43Rq3rw5c2bPYcniJTRr1kx1bvf5c3RK+5LFWZn+OyGRPGjZ4l3ADgQB9jr/FwDCjCwE9lCxKKQbFRWAhwH3N26WGM3DQ5rrNvSePn2n0jK8MLIxNWM9Pp/1J4/x5YF9OBWFset+4ZWtv6ts+ejoaGbPns1PP/1Ekyb+zUN/sNlsuv/Xg9liJjwyHNmk/cl6dO/Br+t+Zfwj41VCUuhwMOjn75i1V19nKGvzTdb++NKP4cB8ROKLESIQZJcwhKfwA78dD4CKCEAtBFvHjbeebIfVUlFZgthIMy+NVg/kM7+vY+gvP/DRnu2q4ykpKWzcuJGRI0e6f+zc3Fyeeuopxo4dy+HDwUdRExMT3f9PSkoK2F6SJcIiwkjfks79D9zPuzPedesAVquVlye/zMIvFhIfH+++xqkojFn7M29uT9e9Z5jZTMu4eO9DtYFPMF6eSxDkkTL0IrhZQ/87VeCa1xHUKAB6d67Lsg+uNWwc320h53LE23VFk0i2zblGt53TpdB+1O9s269dJsrQr18/5s6dS3R0tOr4qFGjmD17NgCtW7cmPT0dcxDBoQ0bNvDUU08RHx/Pe++9R8OGDQNec+zYMVq0aEFurnA2Tf/PdO65+x5Vm6ysLPoP6M+BAwfcxyTgo67XMbq5JrTBH2dOkZq2wNdZ9BDwnkE3nkS4ysvwGyIRptyoyGtbv+w/FrPMO0+1D/5KyfhxJlli2iPNDM8PGTKEr7/+WjP4IAalDNu3b3cLQyB07tyZ9evXk5aWFtTgA7zwwgvuwQdhHvoiMTGRn5b9RNs2Hr6KAjy47he+zTqgad8+oRaTO2jG7xUEZ1APM1B7A6+mgllQFRGA1+NjrAVhISamPd2eFo1jyvE0GWTjN7NH2zgGdtcuf8OHD2fu3LmGb/Xo0aNVn1euXBl8n8qJFSvc8S6sVitDhw7VbVezZk2WLlmqEgKnonDXymX8ee6Mpv2TrdvRo24D70MxGFPIixFexDLVKI3gcxtVKLcAKFuGSqdWDQot2HgnY+8wfmMNEeo/p+ONccmEWtXdGjVqFCaTcah24MCBDBwoWOWSJDFgwICgulJUVMTs2bP59ttvDRVUXwwaNMj9/8mTJ9OyVUtdzyJAVFQUXy/8WqWoFjkc3PnL9+Tb1WalLEm8n3qtb0h6GCIhVg8LEbUQegGDg+q8DsqtAyjbhq0CpXuw7VU6QLNYti3sC4XZ4DAW2IkzD/DKZx7fSLt27di0aZPhDw1gt9tZs2YNderUoWXLlkH17dZbb2Xx4sUAvPrqq0yYMCHgNYqisH79eqxWKx07Cm+ly+misKDQkO5x6NAhul/bnXPnzrmPDWuawmc9emvaTti0nqnbNnsfWk3wqevlRrlmAGXrsNvLM/iGCInCn+w9OyyJ+jU9Ubb09HQ++eQTv7e0WCxcd911QQ8+wI8//uj+//Lly4O6RpIkunTp4h58ANkkExJqHBVMSkri4w8+VpmI8/bvYclhrY/g+TYdqasOfnVHkEerBMEKQOTK93pEIilTK+WpJjNYjaNnkWEmptyv5n0+//zzKuWrMuAd8Qsm+ucPFqsFk9l4merduzePPPyI6tijv67WkEsjLRaeukKjWP/L94APTIhlYCTlzFMIRgBeAnL6P7P+6K7MnKTy3NwvQiL9WgXDetXlmpYeBfPkyZO89NJLlfb4qkBImP/f/t8T/63yGB7My2XK1k2admNSWlNbzWa+Hv91BiYDCxBZRv6nSh8EEoDOwPOAnJtvj57x+d7y3Ns/JEkIgZ/T0x5phrf39d133yUjI6Py+lDJkGUZi9U4AGS1WnnrDZUHnXd2pGvIpOFmM+NbaVIeRvse8IL3EjGYctQs8icAMiLW7x6CpHqVnJVtDRPLgQGuvjyG4b3ruj/bbDaeeOLSLuRlDbW61/qsrCymvj6VT+Z84vYY9ujeg4EDPHmwhQ4H03Zow/v3NrtczyIwWje9tUYzcGOw/fUnAHcj+PgA1KsZVjGzLxBCovyennJ/UyLDPD/EkiVLVMrbpQZJkrBYLbz9ztt0uLoDL7/6Mo88+ggz3p/hbjPhmQkqi+b9XX9qmMS1wsLpn6iK88QhaiPpYYnP55uD7a+RAEQBr3ofmDK+DZHh5efeh4eadf/vhtkKFmOiZ72EECYMT1Ide+yxx7DbteHZSwXpW9J54cUXKC72UOJ27PDwPpo3b07/fh7OQ67dxqcZuzT3ube5xqLpZ/DItajjA0GHRo0EYCJebsiOreIZfnPFoo73D0oWD5Ilxgw0yOgKiQQ//P7H70ikUV3P7Ldr1y4++OCCgmBVCpsPUykiIoLR96qX8McefUz1ed5+LeXs2noNfUmnfShlX/nADvwbwTguoBz0cb1fvQmCox8CYlzWfNKLLm2DTfbRYs/BXEJDTCTV85MtVpwPNmP62NerTzFo4p/uz3Fxcezbt4+EhACECz+wWq3umSQ1NZV164LN6fQPRVF4/rnn+XLBl3S6phMTn59Ig/oNNO06pXZix07PzLBtwF0aAsmQX37gy0wVebYnsMrg0TUQQhC0vaw3A7yFly15102NLmjwAVIaRfsffICQCL9m4cDutejZzqPcZmdn88ILL1xQv6oKkiTx6pRX+XPLn3z4/oe6gw8iwOWNhQe1Fk7fyzT8Qn/Vxs5RjsEHrQBcD7gXp4gwM689+jcV4gpgFgJMe6Q5JtkzaX300Uds377dzxUXFyaL/1SzwYMGq7yDK45q6f4+ASIAfbZsBeEtACZ81o4Jo1pSv9aFp1fb7C4cziCCLdYwMBnb0Vc0iWRMP3c0GqfTyfjx4y+4f1UFsx8TF6BunbqkNE9xf9505qSG6dwgItI3L6Ij/mM4UYiE26ASHb0F4EG8UruS6kXwxAjf2oflx7ylB4lJXUBCt4X89GsQeZGh/s3CyaObEBflEZKVK1equH2XEmRzYEdr9+6e0IrD5WLtiaOaNlfVVCn1NRA0cT00QRS2SkdUHwkoBGU9rAG86H3ijcfbERpy4bWQ/v3enxSXOMnJt/PyzCAo8CaLX7MwIcbCCyPV3//JJ59UmVyXCmRZ1hBJfdG1i7rkwdazWlLwlTU0OphRgYyBeDK0OiOqp/rvY+m/k/GqYNnzqtoMuuGyQNcGhZx8z5R2Pi9IzkKof7Nw3ICGtGrs0RcyMzN5551AuZYeOBwO5syZg9PpoWAdOHCAtLS0oHkBwUKPROqNFinqWXbf+WxNm8QoDQsqUdNIwDcvPSDNSUbU77m/7IBJlspH8woAq5ciZA2gFLkhmcBqbDWYTRJvjE1WHZsyZQo5OYHL7x07doy2bdsycuRIVVLHiRMn6N+/P7feeit5eca8xPLCH4cBRKjY4pV6vjfnvLaNVgCSDG7nm4psRCnz9A+Riu3WVkYPaMqVzStv/4OB13uEcHB5ZpWQcL+zQJ+r4+nbyWMz5+XlMXfuXL+3zMvLo2fPniqvnC/S0tIYNmxYpc0Ekux/CbBYLCpGcmaeVogvi9DoRfU1jQR8CYoB8+JkvGrTWS0yLzzY2k/z8mP6s1ex7INrWTunF0+PvDzwBW5IYDHmDAC8fJ+aSr5smf9cy2nTprFvnzojuUFEJHEh6jBuWloaS5b4utcrhkA6AEBCvEeQc2za6iIxVg3f08heTsdTgcSFYBP5hRmvzJJWTWOpm+D/Ry8vJElQxyuEACVb2iRHUTPWyunzQrfIzDTOwlEUhenTp3v6Bczt2YehTZrjcLmYsGk9b3lx98eOHatq7w8dOnRg0qRJhIRo+QCSJHHs+DFefPFFjp84jslk4sY+NzLmvjHuNlFRnjfc7nJR5HCosox1cgyNbPMCBEN4ACKJ9NdAfTcjGKZRAEUlepthXLpwuRSKbZ4+6w1AGY4ePcrp0x4Nu1eDRIY2EdlMZlnmtY5d+DRjN2eKi9ztjx7VmmR6+Pnnn6lduzaPPvqo5pwkSTzx5BN8t9SzJdHPK36mdevWdLpGUMEjI9UvdJ7dphKAULMZWZK80+D9uVX/QoTxg4KM2HABgN2ZOWzZo9VCLxqc/iN+S389Q16hRwCaNjUut+ut8QNEWdTTqkmSiLiASmNnz541POdNBtU75st49i07J4FvMazKqlWMjKAXuzHkmXVkHsk3aP43wuUCh7FtvyUjjzGv71Ydu/322w3b161bl4gIz4vzw1+H2HXeMwgLMjPIyi+/9m8ymejSpYtuZjGIpWfypMk0aiR8FyEhIQweNJjevTyM4Dyf50b4FKSyu1w41Gnolba/oYROiZcQq8wN19SlXq3K1QeChgI4baCtqwNA5rEiVqZne1cao2nTpuzatUtlUvli2LBhzJ8/3/05wmyh72VJ5NvtLDuSpao0MnPmTE3CSUXgsDsoLvTvpLqx742sW++JRNpHPYLJ643PsZUQ99mH3pek4RWz8cEdiHpL6xBla/3WzSl7Sh9gKRXPFr6oCA0NZcOGDbRt67908P79+2nXrl1AO79ly5Zs3bo1qPzCQLDb7JQU6dYNdMM7LBxtsXL+7gdV57Py82j0hSrdbT6CIuaLJMSSXrZEDAa+8vfssgFfBtxOOUOJlwLq1KnDDz/8EHDwQcwSCxYs0Chdvm2WL19eKYMP6FYQ8YaiKCrrpZHW6cORAo3AGm1g0Qa1fmDkMXTD+43/GrgSmMbfXKWiImjQoAETJ05k69at9OjRI+jr+vTpQ3p6OkOHDiU83GNNJSQkMGnSJP744w/q1zfys5QfSoAo6JGjRyj0YgU3itLmWh4t0BBljMwT344H3OnEV8wPIcqwP4bQDS7zajMU9e6YzwI/69xzTOkfANM6dSe1dj1Vg4c2rFQVUPzxxx+pUSO4zbSsViuJiYm6WcLBIjk5mfnz52Oz2Th69Chms5n69esHdNtWBIFmgL171VT7ZjFa592BPI172KgIgq/DJWD41d88l42aaFgftQCYgT90rvsFLwEocTo19X6616mvEoCSkhLat6+8+EOwsFqtbu28KqAoSkAB+PU3ta/m6lpap9k2bYTQiAXjPVUoqCuN6qI8Iu/LWjQiC/zp/UEvvHlVTXWMYv369eXoxj8HTkdgx9rqNWpv7dW1tPGbrWdV6eQFiJi/Hj5CVBc9iagjFHAJKI8AZKLOQTdy7GcgvIsApJ85pWnQuXZdFaXlhx8qtfztJQNf55Mv8vPzSU/3uJ+bRMdoqqKeKylmf65qCdiOsWl3DmHR1QHeDKaP5REAB2LbszI0R38JcSD2+QVgb042f/losXXDI+joJenbtm27pFO+KgqH3X/Cadp3aar8hpu1BFBWHT/iWwk1mErjQaO8Wo/3mh+O2OFCDz95f1j2l3b3k37qrBcWLFige6Pc3FxeeuklRowYwebNm3XbXIpYuHAhI+8dyZxP5xhmHn/+ubpWdD+dgti/HNMQRQNG+KoSo1HvcvWsQburvdsNSGqquEaPV/3tGTxCkbzaJCYmKg6HQ/HGmjVrlNq1a7vbxMfHK8XFxcqlju3btyuyLLv73aplK2XXjl1K3vk899/unbtVbQClXUItpWl0rBIXEuI+Jql/bwWxgYSeCRSFqLZuXLFLB+WdAVb5fDbiqG9GrEcALD+SRZ4P27VZTJyK8pyVleWu1lGG8ePHc/KkpyxsdnY2hYX6xaUvJRw9elSl/e/YuYO33lZnBc+YMUNjIaSfOcX+3POqPEEdL8KniK3qViHIPGVerWWIjbpWIHZdDwrlFYD9qJ0QXdCvTuXEa4uTAoddN+nhgcvVKe9vvPGGionj7aiRJImJEycSF1d5bKWqQrcu3ejTR70HZLhXvv/p06f5ZE650vh9YUFUDvkAsTfxXAQJtAy+2/IZoiJhxXZ4ihVYEDXq9DS4bOBe94eSEkY2UxsOzWLi+CxjNzmlVTqPHDnClVdeSYsWwsLs0aMHR44coXXr1syaNYthw/Tc35cebCU2Bg8cTIuUFhQWFtKtazdenPQi1lJmz5SpU1TBHzesZqR6NZAbxGNqVBupZgxybATYnFBiGBoPRVs8Yg5in4GAqEihyAGoNzCah1h79O6dQelmBxLw58BhvlUxmbV3J/et9TgUU1JS+PPPP/1G9S5l2EvslBQbB38yMjK4JvUaT2laWcL00lCkq5KRkutBaS6ByeHEXFSC7BDLhJKdj3PHYRyb9uNYtQPXIa157YXbgG+D6W9FZoCDiA0iyug3jREMFD0RjcJLKcmz27gtSU3auKJGAl9mZrh35jxz5gwWi0WVMPFPgaIoAUO/I0eNVFUQlQd0wvTMAKSa0eBFIFVkGWeIBcUkIzudSKFW5MSamDs1xzqkK+bUFLA7cR04obcpx20IZ5B+fVovVEQAHAgv4JWln62IStd6VNudiC1OrAC7zp/jrqYpxHlt/CRLEg0jo1QZsBs2bOC2226jVi1/NZMvPdiKbX6dP/Pmz1MViiDMimnmOKQoY96FYhKCIDlcyF78B7l2LJbrrsBycweUUzm4MlV7KJgRG0zVJMAmUxWlFpWg1jRjEYqIL4oQRJNOIErB59vtGh9ASmwcO7LPsruUoeN0Olm3bh133333P2YpKNtlxAh79uxhyLAhKsePacJA5B7a2sEaSBJOqwUJxb0kuE9Fh2Pp3RbTFYk4fs+AQlUfOiICREuNbl1RAcgCRuHZ9LgxYrtYzR5piFngobJnbTt3hpsuS6JeuDom36VOfWbv3Ulx6Rt08uRJsrKygq76CbjLyFVWLN8I+fn5OJ1Ot3AqikJRYZFhociCggJuHXArx497gnNS+yaYXhuhmvb9QgKXxSz4gToxBvmymlhv7oBr9xFcR1UcxPaIzad0Z4KKxj/tiP39vPGkQduj3m1disL4Das1v1W98AhmdbtBpZXOnz+fKVOmBNWhyZMnExcXR4MGDarUY/jZZ5+RkJBAzZo1+fZboWcVFxajuPRH3263M/zu4eze48VfjAzD9M69ECBtTPd+YVbsofp1oaX4KMI/eABLbw055iEMqoxdCLtUtb4j9II56LOKNiKKGEYCHCnIp0FEJO18wsQtYmuQb7fz6ynPm7JixQrq1KlDhw4dMMIff/zBsGHDcLlcFBYWUlRUVK6ZozwYPHgwp06dwm6388svvzBi+AjDNHBFUXhg7AOkLUnzHJQkTO+PQe5gzGAOBJfFhOxyITt1YkImGcv1V+I6eEooiB70QkQKVRHCC2FAZKMuSmjB2DWcg6g36MYTv631jXIB8OpVqdxQX51CNm7cOD7++GPDjkydOlXlVbuQXUQCwZt6fvr0aWbNmqXbzuFwMPahsXzx5Req4/IjfZG1b2i5YYsIxWU0g8gSYa/chfkqlZCFIl5QlVJ1oRSYaQiroAxjMA4TfwK4A/95dhvDVy33pTtjkWW+ur4vHRI8OfEul4v777+fyZMn697YW7FKSEjQTdDQw/Hjx3nmmWd47bXXKCoKjmn90ksvqZhDehG/wqJChgwbwrz581TH5Tu7YnrCiMxbftjDQ409OVYzYVNHIMWr8gpboib1XHCCQTYi9lyWhy4jFML5Om0VYCVe9WyPFuRT5HBwQwM1dzHEZOLWpCYsPXzQnakDsGrVKg4cOEDv3r3dXjWANm3asGPHDuLj4/n00081GzgZ4cYbb+SLL75gxYoVFBUV0bu3tnq3L+rVq0e9uvXYl7GPbl27MfH5iaqMpKysLAYNHsTadeqorXxTe0xvV2zdN4IiS0iKvlIIIIWHYGpcB/v3KuJWZ0RJ2XyonJ1DayI8ft5sxj6I9UYP9+BTz/a/3a7n3mbaKt8mQ1vOAAANdUlEQVRniovou3yxZp/Ayy+/nAULFpSrMrgeQkNDKSkNvHTp0oW1awOH2kuKSnS3kANYnLaYcQ+P06Spy4M7Y3rjnkod/DJIikLI+UIkP1tkFz42G8cKFVFrCvAcVE4ewGl8ikoC72KcwDgHUC2MD677hVXHj2gaJoSG8fNNA7jeRyfYtWsX7dq1Y9KkSe4BrGooLoWi/CLdwT9x4gT3jr6XYSOGaQf/gT6Y3hpZJYMPoEgStvQDFD7yX0qmLwUdxTD0sVvEbi0ePEipCV9ZOWZ/IBIVyiit8aX//96g/fcIrbQ+CNPw26xMetZtQIMItX8gxGRiSJPmFDud/HrSYx04nU5Wr17NV199Rb169UhJSQkqFdsby5cvd+8yNnjwYHr16qXbriy7xzd8W1xczAcffcDwu4ezZatPvd9QK6a3R2Ia08tvnYMLhfLbXuz3TMeVeQJneiZSjUhMrdVLqhQTgevQKVwZ7t8vFOHST68sAXAgSKN34VlWrgI2oE9gdADfIdKYokGwh786uJ8eOkIgSxI31L+MK2rU5OejhylyehSvM2fOsGDBApYuXUpCQgLJyclB07tvuukmLBYLt9xyCxMmTNA4kFwuF8WFxdh9InGFhYV8+PGH3HPvPSxOW6zZc1BqXh/zp+ORu13YEhUIyv4TOO56R+X9M7VO9NX+AZDjo7B/qwoQWoD5lS2aHyBICmU4gghVGqUct0Eohm4yfLTFyuJe/eheVz8542RRIY9sWKXLLwBo2LAhY8aM4Y477iA5OVm3TSAoLgVbiXq7WEVR2LhxI//74n8s+maRfjkas4x8Xy9MT94K1qr1RnImD0f/V1EOe1jXUq0YIr980lfzF1AU8vu+jOuIO4vZBtSubAGIQOwm7m2I/wTchNpc9EYH4Ee8atxbZRPTO/fgvhRjP/mSw5k8+/t6d/xAD61ateKWW24hNTWVTp06BUw+cblc2Evs7oE/fuI4a9euZfWa1axatYrDfxlvSil1vRzTpDuRmtUzbFNpKLbhuPMtlD+8OLoRoUR88jCmFOOspuKpi7DNX+N9qF9VLE5dEHQl7+XlXcBfRUeNEACMb9WGN6/upsqU9YZTUfg0YxcvpW8MmNotSRKJiYk0btyYxo0bk5CQQGxsLGFhYdhsNnJzcsnNzeX0qdNkHMggIyOD8+e1jio9yL3aYJqlnx5e6VAUnA/PxLXYaxd5k4xp5ljCOyYjGbikARwrt1M4XuW4eqGqtJOnAd/9hcYAM/1c0wZR915VG7VTrbrM6d6LZJ2UqTI4FYXFWQd4b+c2VupYE1UN09O3IT/c128b16LfcM34HimlPqZXh0FsgNrJBnC+vBDXR2oL2/TqMOThPQjJL0b2Q0V3nTxP/g2TvA8tqrRKEz5Yjyhm6E1V6o0gKBglAJxAmIdd8BKCIwX5fLJvF3EhIXSoWVvXcSFLEi1ia3B3s8u5q2kK9cIjybXbOF5oXH28vLDKJm6ofxlPXdGBFrE12OBlkcijrkdq4qciW14RjttegzO5KPuOoWzch9y/I1jKpye45q7C9bq6Kqp8f29MpcInO5z68YFSSBEh2D5bBXa348hedfaJMDVWISjiZShG7Hrhb4+2UISnaojvia516vPm1V19S6ca4mRRIRtOHmfDyWNsOn2SjNzzQQmFSZK4LDKKZjFxXFOrLqm163J1rTrusjLPb9rAlG2ezZ7Mac8htfWzn0J+EfYrHwOb5+2UurXEPOfhoIVAWbkdx73TwYsPIN/UHtMHD7hDyuZiO5YAtQjy+0/BddDtWPurKgUABBlhI+qKlUWInS/0Mou9MQpRvFrFgZeAIU2a88pVqSRG+q8rrIdCh4ODeTnk2GwUOuyct5VgkmSiLBairVbirKEkRUVj8WNKjlu/kg92ezxr5pUvIzX1X5PR9elKnBPVHnL5lqswTb8voJNI2fkXjkFTId9DN5PaNcb85ZPgFRo2lziwBKCkFQx9G+cOtzKbV8W2CscRW5uvAsrU4zAEeWQA/meCWQiO+yd47ZypAP87sJeFBzO4vXEzHm3VVpN97A/h2u3ay41Ch483MCTwzyjf3RPlTC6uaZ76g64lmyAmHNMUPU6tgHLyPM57p6sHv2EC5lkPqQYfDPkoaqhnnLCq0gG8cQ5BSRqIh0FkAe4EzuKVR6iD8wiq2QkEvcmtObkUhe3nzjBzzw5WHjuCSZZJiowiNECJ9srAj0ez2OyV9CoP7IRUO2BRTuTOKZBXhJLu8Y0pf2aBw4mcqpNsnV+Mc+hbKN58v6gwzJ8/gXSZdhMPk9OJye4/IdX++RqUM26LKffvEAAQA/09MAhPJosM9EUUqf4JYwFWEJlGHyNWgA74JKVm5efx7aEDTNuxhU2nT2JzuagREkqM1f9GjuXFrvPnmLd/D4sO7eeMV3VyuW8HpMTgdlWRu7eEI2dRdnly/pTfM5AiQpC8SSJOF86xH6L85pXibzZh/uRhpHb6+obJ4TSMDJbBNmsFSp47wnqqqnUAX7RAuIB9v8EPiNwC42J7HlyGoJ+5GUaGDSOj6FqnPu0TatEsJo6m0TEkRUX77senQZHDQVZ+Hpl5OaSfOcWWs6f4/fRJjhbol88z/Wc08oBrguh6KRxOHKNmoPziVedBkjC9PgL5TlE+3jlxPq5PV6rPvz0SeVBnjGApLMFsnEACNge5HZ8WJfgE1v/dAgAifPwNkOpz/Bgikyi4XZyF+/g+BN8t6CrUJkmiRkgoURYr0VYrEWYLTsWF3eUiu6SEXLtNxUEIBvKo6zFNurNc11Bsw3HXOyi/e1nFJhnT+/fD4dM4X1EX9zI93g/5MaNd4wRC8or8zgCujOPkD1S5Z2ZfDAEAQQj5L9pSZwrwPsKRFGwWqAnoiiiJNpBy7JlXWZCuSMK8dGL5L8wpxDHodZQ9Xs4rqxkcTvDOARjUGdPbI/1HFRUIzclH8qMJ2r5cR7FasB6/WHUBSxBpzs+hjhFICKLpFryqmAeAE2FljEOEl3sAkxBmZmWWPM1F6DFPILyWbke8suuwSksPGjHhQqFr7CWzNodq8KWrm2GaOiJgSFl2ufwOPoBjo6Zk0OqLNQN4oyNC09fjcS1DrPc7K3hvMyKDqTnCM9mk9K8GwqKIQvgZFCAPIZjZCCr7UUTVtB0IgcxErajOQAgdAKY370G+o0uFOqkcPi08hafUEUapaR3M3z4HMYE37jIX2bAUG+/IouQXk3/tv1E8bc4CtS4FAQDBHnoTEUr27ZMDEUN4FRFevlRQRrMGSh0zi5+r8M2UPUdwDH4Dzpd6KmtEYl78HFJScD6O0NxCJD9uYPui3yiapCJizQTGXCqlYQuBsQiz8IDPOTOCwpSJyERu9/d2zRA/41WvT0nPVJl25YWU0gDz/MeQOjRB6pgsloYgB99kd/odfFwKJXNX+R6dC5VDCq1sWBHZx89jvOXJSoSyuJRKrJxdAfwbr93WpB6tMM8NjpJembDmF2PyEwW0L9tC0dOfeh/agQjUKZfKDOANG2I5aIIIKestbD0RZe7PIkLIIzAmoVYl3kV4KwFQVu3A9dPWv7UDssPld/CVYhsl0zTb37xCqT7zd3kCK4IixDRbFkFpideexqWwIJTH24CHEaHkssDTSYSFUJUoRsQ2eriPbD2IPKKnLwu3ymAtKPZLAil5Kw3HBlWNzx2IGVaBS3MJMEIsglTyMD6kEQMUAVuBvQi9Yn/p3zGEzhEc3ScwwhHFG93eTfM3E5A6VF16mvs5JTYshcaav2PVDsEA8hSQUBDC6uaF/ZMEoAwWRBGkOxCbJmjLawePfIQwbEd4FQ9W8D43IHwEZiLDXJYNU2Ti/G+EfaGQnS5Cco19Zc49Rym8dzqK2j/xX8T3dOOfKADeCEEwjW5HhJ0DbpToB1+gQ0IpBzoD15oe77dXfqzfLDyRz8qHSyE0r9Bw6ncdOkXBqBkop1WJ2jsRPheV1PzTBcAXyQg9oBsi1tCY4PUco104yg1z1swbJFn6Dv0SehcESVGw5hUZUr+cOw5TOO5jlGyVEzQb8Xvs9m3//5sA+MKKEIKmCOFoBNRCrNvhCL0iAsFTHIfYcq1SYD4yq6ekKN8C0eQXQ0TIBWcISS4Fa77x4Nu+2kDx1G98S8oVI5xWuomP/78LwEWF5djsds6xH692Ld4YKSXXRX52APINbSp0L9npwppfpDvtu45nU/zaIhwrNdsIFCA4GIZbqlYLQNWiBbDL+4DUpQWm5wYh+eTv+YO5xI6lyKYpB6ecL8D22Sps81ejFGmsgdPAzYgdRA1RLQBViwSEu1hTB05q0wj5ji6CHm5QJk52uLAUlahj/C4Xjs0HsH+3GcfyLXoDD2LLuCEEETupFoCqR3fgQyBF96xJRkqpj9S+KVKbJKT4aKToMMwRIZgKSlAKS3Adz8Z16BTOHYdxbt7va9p5owjh5ZuKcSpeNS4CLAgH1hm05d8r488JLEAoudW4hBGHqNGzk8oZ+HwEbd6oLlM1LmF0QtRY3oyouxjsoJ9EOK1GEIAUGwyqdYBLAxEIuntTRHWVBISL24FgKp1E+Cr2IuIZQeWAVKMa1ahGNapRjWpUoxq6+H9PPn1Pxtsm5gAAAABJRU5ErkJggg==;" parent="130tE-UftCdM7chXd9jr-30" vertex="1">
          <mxGeometry width="30" height="30" as="geometry" />
        </mxCell>
        <mxCell id="130tE-UftCdM7chXd9jr-31" value="" style="group;fillColor=#fff2cc;gradientColor=#ffd966;strokeColor=#d6b656;" parent="1" vertex="1" connectable="0">
          <mxGeometry x="720" y="305" width="210" height="30" as="geometry" />
        </mxCell>
        <mxCell id="130tE-UftCdM7chXd9jr-23" value="&lt;font face=&quot;Times New Roman&quot;&gt;教師專業程度不足&lt;/font&gt;" style="text;html=1;align=left;verticalAlign=middle;resizable=0;points=[];autosize=1;strokeColor=none;fillColor=none;" parent="130tE-UftCdM7chXd9jr-31" vertex="1">
          <mxGeometry x="30" width="120" height="30" as="geometry" />
        </mxCell>
        <mxCell id="130tE-UftCdM7chXd9jr-28" value="" style="shape=image;verticalLabelPosition=bottom;labelBackgroundColor=default;verticalAlign=top;aspect=fixed;imageAspect=0;image=data:image/png,iVBORw0KGgoAAAANSUhEUgAAAIAAAACACAYAAADDPmHLAAAACXBIWXMAAAOwAAADsAEnxA+tAAAAGXRFWHRTb2Z0d2FyZQB3d3cuaW5rc2NhcGUub3Jnm+48GgAAHYtJREFUeJztnXl0nMWV6H/3627JsrbW5lXulmUZL1qMUcJO4hAWc4CwOsEQQhIYEkJmkpeZyTBM4CUheczMY95MMiePTDKZScw2QNjjQEIIvDAsAQy2ZHnDi1qWF9laurUv3XXfH1r8dUutbsnqbsnR7xyf46+66qurrtu13Lp1C2aZ5U+e6mpXqkVIFZJqAVJFXmm5x4QcnxG4EfR0hV2i+l8hp+Oxjv3b9qRavmTxJ6UAWWVri1wDoQ2K2QhyHtH//veAxxwh6/GWxm2Hkihi0jnlFaC4+JyMDqvzChH5HOilwES6ewPyFsqTQRePde6rOZYoOVPFqakAJSVz3Jp1mYhsVOUKICNGiRDgiJFnAOQ3gv6Xs9s8d/x4XefUCJtaTiUFsPI8a85VSzeg5kaQwhj5e0BeUdVNAavjhTyT+5F4yyr0CvI7Vd0UyDbPUVfXP4V/R1KZ8QqQ71lTrpa52Si3CCyIkT0EvIrKQ86Mvmead+/uGJWjrCw9r3/uJSpsAL0GyIrxTj/IC6I82daQ/yK8Fpzkn5ISZqQC5HvWlBtLN6B6E1AWI/ukx/GI+cMlQFqMIi0iPIWxHmpr2PYGoPHWlSpmjALklZZ7NOi4BtHPAWfEUWQHIk+q8ouAr+bAydaf66nME+RKBnuGy4g9Z2hA5Nmh+t8/2foTxbRWgOzFKwssh+u6oV/gucSQV2GniDwRsuTRRK7lC4rXLA5Zev2QMsSUiyFlNMHQw+2NdXsTJddkmHYKkFdanavBgauGvtz1gDNGkUZEnhYjT7Y1bPvvZMhox11yeoma0Gcs4QsKK+IosgWVh1xW6PHj9XVHEy5gDKaHApSUzMkzORcPTbyuA+bGKNEKsllVNwUaal9hmoy1trnJzUBpjOwhkLdVdZPlTHu8bf+WQDJkjCSFCrDBkefZcw6WuVmVG4CcGAV6RPgVRh5qK3K9xJYtA8mQcpLYlqR6AzAvRv4+kJdRnkzv46mmppquZAgJyVcA+xfzGWB+jPwp+2Kmjg2OXM+uTwzNY64GsmMU6BZhc7IUPSkKMMGucWTZFgq6Huk4vKU5GTImhWk41CVMAdxLV3k15LwB4fMCK+MoMq0mR4nGXXK6G2M+lerJ7pQqwKm0PEomqVzunrQCRBhI4tHkGWEgSRWTMXipssmlzoeaD35weKL1TUoBiovPyeiyui7C0ptVuYpT0EQ6HZi0yTvN8Wjn3g+Ox1PHhBQgt6TymyjXClQRe4vVDzytKo8GGla8Bk+GJlLXLGFIvrfiHINsBD5N7GVlP8JLqrIp4Kt5mnF+cHErgNtT9Yuhbmk8ekTlebX0Mb+z5yX27u2L9/2zxMsGR07JnossY25AuAbIHTe76rf9Ddu/E+3j+BXAW3EYZGHUeuAll3HeOplxaJbJkeupzEP4kcDGaHkE/tjmqz072uexJmwnUGlBiKoAAuuDVnCv21u5GfRRv3S+SH19b9zvnyVO1jnzS1ovMpiNKFcTw4Kqyq/H+zzuHiDXW/miwPp48wMBlGfUoY8FDqx6ZXYOcFJInmfNeUZCGwXZABTFyN8HvIjwC3997XNMxRwgUgFE5Cugn4hzFdAqwi9nVwETYZ0zz9N2qxFziwhlaMxGn5QFddIK4BBWtdTX7pqwRUslhKXbJWT9uO3gtn9jVhnsSIG34pqQWl8HPQeJa4getANIcFOzb+eRCVcYb8ZoCmDPU7hk7aKghDbEawlUGBDkjxK0/r7t0NbNExX+VKFgcdWFIYfepcIFAnPiKDJkQbUeaW/c+uHJ1D2lCmDHvXSVl5DrakRvAdbGer8OjluvOxi4t9W366145Zqp5HvWrjaYuxFzGZAfs4DSjSX/nrK9gIkqgJ284upKdfTXTECqDoz8NijOezp97++Mu9w0J3/xWcXq6Pk7FXN9HG7rYYjwRFt97WemWiZrql84Fm2NpTvsz+JwgjWOT6WSjeh1TgZ2uEuqjuV5q35S6F0VdQk6ncnLq87N9VTe7/ZWNRpn90EV/fJ4jS8i5BQvo+zSKW/rMYnfDjCFZBYu4NIHnqT+D5vZ+9JjBBr3g0aZC6oWKfxZEOef5Xkrj6jK44p+N9BQ25ZcqSdCtcvtGbhTLb6k2r9CQMaf6woZ+UV4zr2U1dfcimNOBq37drD3N48nXNKUKACAWBZL113J0nVXEuzrYd9vf8mB156ns6kh6nelsBDRrwt8ze2tOoCRR/2OvO9T/9p0MDhZbs+am9TSO0X7PwI4JMb6Ji3bzZKzL6b8uttIy3YnRchIUqYAdpzpGay48mZWXHkzve2t7H5uE43vvEJPa9QzHAJaiqXfcmvz3XirdojhwbaDNQ+S5GVloafqyqClf4lyLhhXrEZ3ZWSycO0FrN5wO1nzFidHyHGYFgpgZ05OPmtu/jprbv46XccPs/u5TRx671X6OvxRSogFWqEWP3J7Kn+AsA2s7/t9255JlIz5JavONsZ1N8JFQTQjlso50uZQuGotq6+7nYJlqxMl1qSYdgpgJ7NoEWfcdhdn3HYXgYa97Hz25xyteZNgTxTf0EHDSTWYp3O9lX0ivE1Qv+1v3P7aycqSU1xeZlmOexG93igZxPipWw4X+WWrWX3tbcyrOPNkq08Y01oB7OR6yjj7L74HwLHt77DrhYdo3vk+JjT2WUyBdJSP45BX3d7KTgwvB9Otezr3bquLt855S8+a3x/svkcdcr2ozo81uohl4S5ZwWnrN7Lk3EtApsexi/GYMQpgZ17FmSO/qsNbXmfP5odo+XA7aqLuN2VhcY1zwFzj9lb6gWecc/q/1bx79+it67KyHHdf5l9j6Y39prsUCyTaCgVAhKz5S1i67lMsv2wjlnNmfaVxSVvoXbUwqBTbzUYGsxbYA5jEiBYfi6ovYFH1BZhgkAOvPsf+V5+lveFDNHqjuYEvDPSmfSG3pKrJMvKcqzd070C6dZ1a3MGAKccyMX+6Gfnz8Jy7nlXX3oozPR7r7fRkXAUoXLJ2UdAK/X0QvQkJNxqpWo/meSv/pxr5pv9gzfOJFTM2ltPJsouvY9nF1zHQ182e5zfhe/0lulvG3h8RANX5Knp7f4bcfqJ7j972c/IK8ZxzMSuv/iJpmbEOMs0MoipArqeyOijBFyC6E4jCCix9Lq+k8h/a6mvvSoiEk8CVPpfyDV+mfMOXGejqYM+vH8P3+gt0t0w8xI8zI5MFVedSufEOMotSv2ybasZUAPfSVV4Mvya28yEAqvxNrreqJeCr+d9TKt0U4MrMpnzD7ZRvuJ3Oo43UPf1Tjn7wBgPdo4ODDONMz2B+1dmsvvY2cj2xnHFnNmP3AOr8IbbGF+CiIjfr5+eR63Sytb2TRxqP09Z/YgYu6Pdyisufmc4HPLIWFHPWVwb9I9v27WTnc//Jsbp3CfZ2Y7nSKDytipVXfZ555R9NsaTJY5QC5C2pqlDVTw0/C/BAxVKuXVQwkueT83L53JIiNr73Ifu6eoaT0xwO65vA7QmWeUrIW7aKc7/xjwD0+FvJcMfekT0VGbUbqJZeY3++flFhWOMPU5Sexr9ULg0vC1cxXWIOTIA/1caHsRQg4iDn1WM0/jAVOXM5LSvsfMi8rLK1E9rnniW1jFIAiThoUJg2vqmgKD38c6u3f/yDCrNMK8ZyCAlbK+3p7BkjyyBGlQ87w3di0zKDTVMi2SxJYfQQoLxtf/4PXxNBM7ZV7ekjLRzrCwtgUTdm8MVZpi2jFCDkkmeBkZ/9B4EuvlF7gI5guJ1989E27tnZEJYmyKMJknOWBDFqgO/cV3Ms11vxz4LcPZz2QlMr/68lwAWFOWQ6HNS2d7Ozozuy6GFnd+iHiRZ4lqllzBleIEu/4+6Q8xE+NpzWHgyx+WhUN7x+UfPpUyWC9p8SY3sF19X1OzP6r0CIY5NHmxG9tK2h7o0plm2WJBDVLbx59+4Of33t1YpcL/BHRntDHAP5p1AwuNJff/IeN7Okhlj+ABrw1TwFPJW1rGqeayC03Igj3aGho60Nq3fPnvid+cTtvjIUZt1mI4jbs2qWaUxSTgbNMn1JiQNbd/NRXrvvS+QUl+Jespyc4lJyliwjLTNWFNVTk1Cwn45D9XQc9tHeuJ+OwwfwNyRnVz1JCvCkQqUytFNoQkGad22ledfWsFwZ+UXkFpeSs2Q5mfMWkVmwgLlFi5hbOB/nnFhRVac3A91ddDcfpbvlCN3Hj9DdcpSOIz7aD9XTdewQamK4VppYR04mR7J6AIOwHaVyvEw9rcfpaT3O0Zo/jvosLTt3UCEKFzK3cFAx5rgLSM92k5aVM/gvMyepiqLG0N/VTn9ngIHOdvo6A/R3ttMbaKW75ehQQx+hu/koA90nGefaMtumRupwkrZ3n7ukYpk4uBeVM1BWxhn9YsJYTheuzBzSsnJJzx5UCsvpQsTCNTcTALEcuDKG/u904Rjy6g32dkMohAmFCPYONthAbw8aCqLGEOzpItjTRV9XO/0dfvq7Er7t0Qq6A+V3/qL0/5WIyOEpcd5wL6m8CotnbVI0oHQy6IvwpzgxbQPZAboayBtOVKR0Ku47Go/UnGKwqLI/quq/BnzbHygqKs/qy3KutkK6ErQEwQt4UfUg4gHSUyLvydOj4LOUBhVtAGlAxSfI/mCob2fHoV0tAG5v5cPATcOFRIwXOPUUQISKsHMbKlsBjh+v6+Q47wDvjFWscMnahcYaKFGxvMaoR4R5KPlY5KNSoGi+DIZbyWdiV8ROhi6gBaQVtEWEFqPaArSKWM2qHFQTajBpDl+8V9WJ0Gj/XkQl4X7oKVEAo3jsY4/DpbvjKKZDUUgPA2/Gyly4YkV2sC+jQNXkoyqWylwjmg4gFplqBkPbiUWWmkFlEUv61Gg3gFpWuxgTEkuDaqQDwGnRJSFne3N6R0siwuCq0UP284RGOTUVQKDY9mha9xVOOLxZLIYcUzqA+ql+d8IQwm4qFyvxPUCqJlz2K16bZtp1q4nCEivMyULVJHoYS0EPUFaWzsCJegXaky5DAsnzVt5o0CsFXvb7tv/HRMoaNOyUqSAJD32T9B7AHQz3I1ckutfpDCPXW3WhwiOC3ADyM7e34prYpU4gSJgCqJ6CCuAMSZipTtFTRgEEvSci5dtMwNaiEctcwST8voWkK4ARkxeRNI3DvcVPnqf8PGBdRHJVrrfq2njfIRo2OQasaIGRpoykK0BINOzkkcApcY7AiPV3Y6UL+h3i/J7NoCVwBHWYhEdJTboCCGZ9+LO8l2wZphp3Sfnp49ylUJ7rrYprLiBQbn929Fs7ouWdKpKqAIPhXuUGe1rQ4pVkypAQVL6FbazPcYaHwRX0XmLOBdY5I24fb289VHMoavYpIpkKIEF1PghkjaQof+g4UBOPFXDaUuCtWAUy8gu3RPh59WmRShBzLuBe2nJuRKj47SQh6GXSFCCvpPJvEK6ypyncl6z6E0Vo8ADNyPd4+bw81uZmcos3/F7sWHMBMXJlWILym6mVdGySogA5JWsuVeV74anyUKCh9nfJqD9R5HoqS4GRIU2A25cOGjlv886P7AXGnQsY9IqwBLFemEpZo5FwBXCXnF5iaehhYOTbENgtDtefJ7ruBCMicjc2a+qFRblU5AyaOXKcjrF6gXspLx91v1JBSeXKiAu2D/l927ZG5ksECTUFFxefk9GpnU9FxMfvEDXXtu7fEkhk3VNCScmcfJNZqkipYi1DdBlQqrBMYClomOHmq6WLworf6pnPz31N9oO1Ve5Oqxtv5UFgv8A+hP0hw/n2KaIovyJJQa8T6hHk9lT+HOEWW5IqsmHosMm0I3tRdaEjre9bGFmLsAxYRJzf0XkF2TxcvWJU+v/Zd5h/3TexuzQFdii8j2Ue8B+oS4gv4DAJGwLc3oq/jGh8EO6bro0P4Ejr/xkqXxs6FLuYOBtfgK+Vjr1ze6tnPnkxoqxEorAa+CzGepmysoR6QSWkB8j1Vl0o6G+wDTEKvw74aq8kxaFlxyPXW7kzYiyOSo7TgXduOt656XxqYQEXF0W/8GFXZzebGo6xp7MXX08fzX3x+3a6xCw8Xl93NO4CE2TqFaC8PM3dae0Alo2kqX6I5TzTX7814bbtkyG3pPJLovw4Mv3MvGw+XpiLJyOdJRlpeDLSJ/yrttMbMvi6+2jo7cPX3UddezfPHmkZlU/hsYCv9sZJVxQH49zcNDlyMxZ8UcK7/k5R6xJ/w7aGqIWmCX3+Y1vm5M1vBy7B9uPoMYZvlC3ivIIcFsxJI8NxciOn0xIK010sy5zDsswM/rOhiabRvcIvA4VpN3PkSEJ7zCmfA4iEd6GK/I+2gzXbp7qeROGvr/1nFe7ANlS19gfZ+O5uPgic5OGOCAIDIW55fw/bIt4rwhN+X8HG8c4B5HnKz3N7K19xeyqfzV9cVRwtXywSMQmUiIfP5y2tqIqWeToSqK/9N0W+hE0J2oMhbtmyhw/8UxMEpbk/yA3v7hrV+AqPtdUX3DSem9yiRdVzVayngQsRrjIunXRspikfAua653UocqstyYPK7XPc8+elZRe93dd+fEY4gPQFmt7PcM/fy2D0Uwug3yjPH23lDHcmSzImPzk/3j/AZ9/bw+5RIfjkZwFf7Regfty4C46CojuB62xJ3gz3/Hd6A8cmfKJ0yhWgJ3Ds4Jy8eaUga2zJFnCmWPLFdPeCV/oCTVPuBZwIegPHajPc8/djU4KgKi8e8/MRdxbFk1CCpt4Bbnx3N3u7wr29FH0w4Kv9MrEMQGVl6XNCzseByAsLVvYGjv10ovIkxA7gr9/+eVW5H4jsxopANxcXn5MxVrnpSJuv9hFVvREYGY+7gyFufX8vx/v6J/y+27ftZV93hKufyA8Dvu13Eof1Ly8494sw5nmBare34uqJypMoQ5AGGmruFiNrQV61fyCwoMPquDJawelIoGH7E6CfAUZavCsUYmfHxHw2+0JKTeSED3nAX1/zNeIx/VZXu1T1r6NnkPuYYJsmdC9gaPZ/odtb9RToyH64JRLXRRTTCb9v+zNub2UN8JHhtMVzR+3rjEu6QyhwOWkZGOkYTZu03xMtf35ZWU6oP2M5lpZZapVpS99ZICMh2ue4Cwn199iPnpe7vZVPCfKeEbMXI3sdaT0ftu7dG9X1PuHnArJL15xGyIRvdar5INH1Tj3rnEpLxfASJ8NhsXQSc4DlWRm0tI0cK7fcZK70w8jOX9ayqnnOIA+Cnm8GmCcCqKAoaLjd7rTLbyLU203dU2FD/9WKXi06eGOxGcjA7a08BvLfQSd3RJ5TTPh2sCNo/haw/1QOtTWsfjta/ulKvqdthd1jZ1X2XKxJ3Au4PPxYBKJWmB+ga0C/O9RbjttLpme7WfbJa1h+2Q2kZccM0D4P9NrBd4eTeIcQsbmADbLY7d39bH5Z2Yy6dkvF2Fc1rMwaOxLJB4EufrT/CO+0jR08YmV2+BVzRqkIexZiBkpyzc3kjNv+Fkd6Bs6MLKpv/duR4BfjMda7Ez4EiKX3qZGPEabReoUZyPg9rDt75pwL1NPtNq7VOeG/5A87e/nB/kNh4XSr3VnctbyYj+Sd+A0szwxXHLE0rAewjNyvlq5n8Ij7CEUrz2DFFZ8lc0ExWfOXINaJ3+7ij36CRdUfp7PpIF1HG9n9q4c5vuv9yD+g1TJyf2RiwnuAtgPba8RhPgpEjvvVeUubp9dNyuOhYXYNyrMHG7K+u5ev1e5n/Vt1o2Ipb/F38ul3d3HH1n0jdystz4q4ZFIlTAHaDtZsR8wngbDdoeY9W+nr9JO90BvW+MOIZZG90MtAbzfNe0Y5E/mNMevHMsknxSewbX9dA6PO9Guzs1P3J6P+qUCF04f/75DBm1L+8cNG1r+5g+ePtGKi3FSqwEvH2rjkzR18tWYf7cEQRelhq4eS+fOrwvpvf33dVkUuAVpH3mMM7/3kexx8++WoMh5867e883/vjYw41qrIJ9sP1r07VpnkxAgqKZnj1uxjcGIMEvhsm6/2kaTUf5IUelctDOIccetxieCwhN7QmBt1IZA/gJ7PGFFK0i0LhyV02+5fMMacOVYD5XqrzhD0ZWzDwRx3IVf8aPOYcv7qzsvp9Tfbk1oVuTjgqxk1HgyTlB6giEw32Ccg4msrTHsiGXVPBSGca+3PA6rRGv93WKba76u5ECu4XISfgIZl7DMmrPEBLIdjzKEw4Kt53xK5PCwx+gXZoz6zRC4fr/EhSQqQHswJALZtNPW6W/o3F65YMTNCgwqxdjN/byzrLL+v9uJhHz7/gZ2+tvraL6Hyq5ivj1gJ2FExYUEjshcN2oH6O9vZ+5sn8L2+mdBAX9hn0cqORVICRDQ2vtXj9lb+ArhzJFG5ONib/iLwMaaxmxiARmsg4V013D3u+YbYyjPqqr4wjITVnb3Iw4cvPc6Op37CQPfgb2r7kz9m1dW3kr3IGz77H7Qx1IxXd9IihPizzDfcndYK4KITqXpedumaso792/YkS47JEBm9S2EnyD2B+pqnGceGX1RSvmBAKbElHRD0zxX5PjCyqlDMwWjvMGi52KZqB157flRY2Z6WY7z/s/uxnOFTDqMmas8yTPJCxNTV9Yun4gcqYlMA/Nm9zsbpfs2Ys8t8rz/DkSuiZQiPBupXbornroT+kBRL+CC7rc23fTPwYp638gaUW1RoRGXMo+UAIlJhV7HxYgqbYLgDkUQsMcci2TGCvmp/UJUHDx/eEnOcSjVDdyHdcSKlNq5y6nAUSNgcUIen6KbNV/soENuTZ5z5AbCHwcn1wjE/lfFjM0MSD4cOujHJOltSX5p1at8yJoTc4c8TjIZSXe2CsCFkmCYRvcPvKyifO5BWJqJ3A2N5XJcMvSMqSVOAXmdwKeExcN5IpL/7MPneinNzvRV/lb20avSxnQRjqYR5XBmbU0lcbNkyoIO/8mG6EL7r6jZlbfXbfwyvBQ8f3tLdVr/9flVKRfgHYKRHVdgTK8B00oaAoAbnWrYBUYTRjvBTjLuk8uNG+b2A5TB6b+GStSuHoo0mi0hD28TP+ymXq+hfWSLtDg3+oLl+55judIGG2jbgrsIla38YcgT/wqjmoPJArNcnTQFc6jwcsq32VKlmsAdK2BJQ4DI90ctlBx3BjwLPJaq+SAzSK7Y2F2TClxkEGmr3A1+JN/+Qgt8Vb/6kDQEtjdsOAftsSaVuT8Wd0fJPAZYql4QlIEkNSCViInq5sFPS04JkrwJ+jj0qiMi/uL2VJQ7hp0EzdrQwzTYiHdZEu848Eb4L2E24/tbM0Lhm0alGQlazhomuY8/WU0hSL4yYP78qs2+O1gClyax3iPv8vtp7k1nhokXVc7td/R2c6Gkb/b7aJcmUIRZJjRLW1FTTJUausq2Hk4PwblYoa5QzRKIZsnHYz0QudpecHv0YcQpIepzAtoM12xXrTITXk1Kh6AtquLSx8a3UnEgStVuNxKBnpUSOKKTkvoChe3A+luup+iRirhWRSlHmaeT+uZCFkstgeqSyKnAIm6++7YMmgZ2q8mjAV5vSOISCvKkwcg7CUnMeJCcCWDyk5NKoSWDleaouV9GfArbIS/qU37f9+pRJFQd5njXnqxhbbydv+H0156dOonBmigIAkOuprBbhbU70XEHL1VMw3sGHlFNWlu4eyDjOCYeYUGggbUHH4S3JnQdFYUZd0RZoqN2i8FtbkjPUP/ejKRMoHgbvFrL7Czgczr7LUiVOJDNKAQBEJMx3zhKm1aRqLBQNd+KzZNoMWzNOAdSYN+zPBr0gVbLES8jleh77SWllffbilQWpk+gEM04B5vRZb2LbVRM4H9al5gLMOOnc+8FxBbs/d5rlck2LXmDGKUBTU02XgN2km5XvbT4zZQLFiQVhLvBiuyE0lcw4BQAwaJgTpop8KlWyxEtarzyL3TNaOT/XW7U0eonkMCMVQC3H82HPRq9lmi9pm5pquhTscosl5oaoBZLEjFSA9gPb3gXxjSSILM8pWXPJOEWmBRY8bH9WZGOqZBlmRioAoKj5J3uCA428jWza0eYreBk4EaBBmR0CJkuWyf534PcACi+10f5sikWKg9eCIvJthlzDRPhRauU5FYjh9TodyfVUluZ71sT02Z9lloTz/wEEVFTRIwacLQAAAABJRU5ErkJggg==;" parent="130tE-UftCdM7chXd9jr-31" vertex="1">
          <mxGeometry width="30" height="30" as="geometry" />
        </mxCell>
        <mxCell id="130tE-UftCdM7chXd9jr-33" value="" style="endArrow=classic;html=1;rounded=0;exitX=1;exitY=0.5;exitDx=0;exitDy=0;" parent="1" source="130tE-UftCdM7chXd9jr-20" edge="1">
          <mxGeometry width="50" height="50" relative="1" as="geometry">
            <mxPoint x="730" y="320" as="sourcePoint" />
            <mxPoint x="710" y="285" as="targetPoint" />
          </mxGeometry>
        </mxCell>
        <mxCell id="130tE-UftCdM7chXd9jr-35" value="&lt;font face=&quot;Times New Roman&quot;&gt;限制&lt;/font&gt;" style="text;html=1;align=center;verticalAlign=middle;whiteSpace=wrap;rounded=0;" parent="1" vertex="1">
          <mxGeometry x="626" y="262" width="60" height="30" as="geometry" />
        </mxCell>
        <mxCell id="130tE-UftCdM7chXd9jr-46" value="" style="group" parent="1" vertex="1" connectable="0">
          <mxGeometry x="540" y="330" width="140" height="30" as="geometry" />
        </mxCell>
        <mxCell id="130tE-UftCdM7chXd9jr-37" value="&lt;font face=&quot;Times New Roman&quot;&gt;電腦科學&lt;/font&gt;" style="text;html=1;align=left;verticalAlign=middle;resizable=0;points=[];autosize=1;strokeColor=none;fillColor=none;" parent="130tE-UftCdM7chXd9jr-46" vertex="1">
          <mxGeometry x="30" width="70" height="30" as="geometry" />
        </mxCell>
        <mxCell id="130tE-UftCdM7chXd9jr-42" value="" style="shape=image;verticalLabelPosition=bottom;labelBackgroundColor=default;verticalAlign=top;aspect=fixed;imageAspect=0;image=data:image/png,iVBORw0KGgoAAAANSUhEUgAAAIAAAACACAYAAADDPmHLAAAABHNCSVQICAgIfAhkiAAAAAlwSFlzAAADsQAAA7EB9YPtSQAAABl0RVh0U29mdHdhcmUAd3d3Lmlua3NjYXBlLm9yZ5vuPBoAABBsSURBVHic7Z15eBRVuoff3tLdSXc6pMlCEpIOqwMJyxVB1PEqjiIojsuo47ggytXHhZFFNgFHRWQxRGWcGQeX0UGdwdG56lVHx+WK4lXBhU1lTwcCWTsJ6U46dEL6/lFJpStk6e4s1ZWu93nqqXzV5/T5UufXdU59deocUIlqNHI7gODDRGAUYJDZl76iAfgB2A74ZfZFVjKALxBOQjRuW4H0bp9FhWIE9iB/Jci97QZiunkuFclM5D/5kbLd3M1zGTZ6uQoGzg007pi7lFG540TbqIfYmEjoovQ8u3Z8z/q1qwMPnQdsksMXOc/wK8BvWowtu4+SMqi1ObSaNFiNcrjV+xw/dowzHBmBh14FbpTDF60chapEDqoAohxVAM2Ul5Xx4w975Hajz+kXAvD7/bzx2maezFtHWWlpyPm3fraFnGEOzh6Xy123z+owXVlpKU/mreON1zZ3x92IIrATeA5wLzAGMPdB2cmApcXoTifw90+sZ9mi+wHIyR3DF9/uQKMJvn87bcp/8sXnnwGg0WgoOVGL2Sw9BX6/n8njx4hXiVXr8pgzb0HQZQTSTifQA5SF9WWh4QV2Ak8DX0KrABYBa5DxriBcARQdOcKEMaOoq60FQKvVUlztOa0CO2L/vr2clTsKv98PQJYjm90HDp+WzltXx6ABVpqamgCIjYvjm10/kpGZGVQ5gbQjgL7GDywGHtcCU5G58rvDkvvniZUPMO3yGUFXPsCLzz0rVj7AzbNuazedOTaWaZfPEO262lqW3D8vDI8jAg2wFrhYA3wMTGn5JMZswZKYLKbUaYStp6l2lVFf5xHtcK4An3z4b66cPlW0zWYzX+/cgyN7SFA++Hw+znBkUFFeDoBer2fPQSdp6e2H548WFjJhzCi8dXXisdfffpdLpk0PqrwW2l4BTLEWEuzJneToGdqec+AjPcKTOABsSeks2PwDprh4MUWWFWJ7IV6Yt+AmtvzPq2Hn9/l8LJz7W8mxuQsXB135AG//8w2x8gGmTr+sw8oHGJyVxdwFC1m98mHx2KJ593H+hVMwmUwheC9l0kVXcP/6l8POHyy17hPcPW00lWXHxaK1BHTE7IOHSSofQB+hDcMTj6/lwP59op09ZCjzFi4O6TtefP5ZiX3r7f/VZZ75i5cybPgI0T586CAb8vNCKlcu4qw20hzDAw9ZFXkbeMTpJF8aS+fxJzeE9CssOHyIz7d8KtrpGRn8YuqlXeYzGo2sWf+E5Nj6NY9xxOkMuuxIQpECePmlv+D1ekV7+owrQm6HX9j4Z0nn75bbZqPT6YLKe8m06UyfcYVoe71eXvnriyGVHykoUgDxNpvErigvl1RmV/h8Pl7d9JJoa7Vabp7ZcQCoLX6/X9J3aM8npaAFxJtee/pQGV0Jnpm3zSYlNVW0t331JZtfCb4T9c5bb1Je1hp3uWTa9JDu5//+8ia2ffWlaCclJ3NTCAKKJLTAjXG2xG/GXHQtl971qNz+BIU1Pp5lDz0iObZi6SLcNTVB5X8pjM5fC7UeDw8tXyo59uDKVdgSEoL+jkhCC3z1+89c99702Gas9tQuM0QKt8y6nfFnThDt0pISnnh8bZf5nAWH2fK/n4h26qBBIfUf8tY8RvFx8TaKMePGK/bXDwrtA4DQbq974ilJzH9Dfh6HDh7oNN+Lzz0rhnNBaE70+uACHc6Cw/zhKekdwNr8J4PuPEYiihUAwKTJ53D1tdeJts/n46FlSztM39jYeHrn79b2Q7/tsWLJIurr60X7muuu59yfnx+i15GFogUAsHL1OsyxsaL9zltvSiopkPfffYeS4mLRnnLxJWQ6HEGV4/V6eeetN0XbHBvLytXrwnM6gtAC7Pzs3QSf19NV2ogkIzOTxctWiPbQYcMxGtt/iLBn9y6JPWv2HUGXYzQaGTJ0mGgvXrYirCeBkYYeeOCpOZc/GmO2MHPdPxk+8Rdy+xQy8xctIS0tHaezgJtvva3DsQAzrryKDfl5eNxuJkycJHm61xVarZa3P/iITS++QHb2EK6/8aaecl9W9MASQOPzeti6eYMiBQDw65u6Hlo/OieXnXsPcmD/PiZMnBR056+F9IwMlix/MFwXIxI9YG0xTta5ZXSlb0hKTiYpufcfvSoFxXcCVbqHKoAoRxVAlCPnu4HdYueO73lq/eO42jyV62vsSUnct2AhY8eNl9WPcFGkAJqamrj2isskQR05+eKzLfxUcBStVnkXVOV5jBDydVVUyO2GSEV5OQ0NDXK7ERaKFIDJZOLhx9Z0ayBmT/ryyOq1HUYfIx1FNgEA986dz533zKHWI28IO85iwWBQ7tRGihUAgMFgIGHAALndUDSKbAJUeg5VAFGOKoAoR7F9gL9t+isrH1qBxy3vAyyL1cqDDz8a1NPISESRAvD5fNx3950djvzpS6qrqrjv7ju5+rrriYlR3nR/imwCdDqdZBiY3JhjYxU7MFSRVwCdTsemza+Tt3oV1dXVsvqSkJDAwgeWhySAhIQE9Ho9jY2NANgSk3rLvS5RpAAAzr/gQs6/4EK53QiL2Lg4Vufls/J3D5KSOZwrZ8k30YRiBaB07rxnDjfMnsP3x4N/p7E3UGQfQKXnUAUQ5Si6CXAWHKa6qkpWHwYkJpLlyJbVh+6gWAEsmHMPzz7zR7ndAOCOu+4hb8PTcrsRFopsArxeL89vfEZuN0Se+/OfJDOWBMPGP/2BnMF2FvzqbCqKj/aSZ12jSAGYzWaGjxgptxsiI0aeEdLchN66OpbMn0t1VSX7d23jv1/I70XvOkexTUDLa1qRMCDkllm3h5SnqqpKDAIBnKiUb2CrYgUwKC2NRQ8sl9sNxaPIJkCl51AFEOXIJgC9XjqQsqiwQGKHMu2b0ih0Sv/XtueiL5GtD5A+ZITEvvFyZU+10h0yhp4hW9myXQEuumomplhL1wn7OeY4K1OuukW28mUTQGJyGgvzX8FojpyBHX2N0RzLwvxXSEwaJJsPst4GTpwygz++t4d//X0jhfv30HBS/iFefYHBaCJrRA7Tfn0nyelZsvoiexwgOd3BzAWPye1G1KLeBkY5qgCiHFUAUY4qgChHFUCUowogylEFEOVoEJYRBcAYayUpUxqjN+oghGV4VSKcYwX78da2vlArEYBK9KE2AVGOJBSs0WrRG6SzXWl1OmWuKq3SLr56L01Np0RbIoABKVlMuny2JMOw0TnEKHQKNJXT2Zy/kKIDu0VbbQKiHFUAUY4qgChHFUCUowogylEFEOWoAohyVAFEOaoAohxVAFGOFhDXOjnV4DstQeBS6yrKp+GkZCaTBg2wFxCn20gf8R9YElpnrrTaEjBb4vrMQZXeo7L4KD989WHgoZ80wDLgUXlcUpGZZRrADGwBzpLZGZW+ZRtwQYthBTYCJxFGCKlb/93qgWcAC3DaWA8rMLrlQ4WRAfylxbANTCNjeOBqnhriEpLCGuB4aMenuI4fDjw0CygK11EZ8QA/AOKgwLYvh7qBr/rSox5keqBhTUzFlpQu2lqdHuvA9NMyBYOruKCtAEqBj8L6sgijP8UBfhZoxFoTJB9quzENS+BdUXtlKZl+KwCzRbqeoE4X/pvwlgGqAJTAKPEvjQazxSb5UKsPfz2fOFsSGmnfYVRHaZVGfxKAONOSyWxF2+YX350mQKc3YLJImpR+IwAljfhOBbIRevupQDIwCEhptie0JNRotOj0BvSGGDQ6HUazFas9FeuAFAakOrAmpqDRSLXv9zfhriylqtiJp7qMOncVXk81TacaafTV09hwEr80LP4tUAyUA8ea9yXAUcDZ/FnEE0kCsAMOhEpubx/8bMxdYDCaSRs2lsEjBc0c3fcNxw/ubBsn7y71QEHz5mxn7+rJwsKlLwRgAmwIv9SWX2/LPh2hch1AfB/4EknUIAjBiXAFKUGILbTsS4ETCELqNYIVgAOYj3CvPbT5WBWCgyeAxoC0FiC2eW+jj/oZ8TYbiYl2QFhV3GQyUVnpotLlCnku/xbMZjOJdjuJiXbq6+tpaBAenFZWuqg5caLHfO+CJoRz7AHqmvct6BHOsQ1oue05CLwH5AOFXX15MAK4DngemaKD1vh4srIcZDocZGY5cGRnk5aewcCkJBLtduz2gSTa7RgMHXfy3DU17Nm9i907d/DhB+/zyYf/FiuzBb3BwHkXTuXnF03lZznjmDxhLPZEa4ff2dDQQKXLhctVQaXLRUV5OcePFeEsKOBIoZMjTidOZ4GcS9t6gNuAf3SWqCsBXAK8Sy9OJ2cymchyZJOVnY3DkU2mwyHYzRWeaLf3eJmuigomjcuhrLQUAHtSCu9s3c0A+0AxjT1Wg7EHpvCtdLk4Uuik0Omk0FlAYUEBhYVOYe8s6O3lbxuBaXQStexMAAbgJ1ov+RhiYhg5agwmkxm3+wSemhPUemokmfR6PRaLFavVislsxmKxYI2PJyUllaSUFNIzMkhJSSUtI4Pk5BSSU1K69y+GSc6wbI4UOgFIz3Tw8XeSUG+PCaArykpLKSsr5XhREaWlJRwrKqKspISyslLcNTV4PB7qvV7cbjcej1uy0AQIV0hbvI14mw2v18ueXTvbXt0OIty2Si95zXT2y55CQOUPSh/M869/wJDhwu22Bki2atD1p0iCDCSnCD+CnNwxPfJ9+/ft5ZeXXsyxIvFZ1TCEx74ftpe+s+o7O9CYt3yVWPkAMXrUyo9ARow8gwcfWdX28OSO0ndWhZIA+MhRUoXq1cqPWHLHjWt7KLmjtJ1Vo6R/0HZ1bKXPGzQ4M1P8Oy0jS0ZPep52VjLvsLZknyxaLvI2PM3C++bgO6VhxZoNcrsjG1ErgNE5ubz38accPxHdc2SpLXmU0/YKYKA14ieZGMjjrqGmunWh5lNGaDJGfkfAaDKFtKpnIF6vl5O9G6jpFdw1NW0PGWkNFbuRhu4BGAt8jhB3lnvUao9vY8aO83++7Vt/TYP/tG1vRdNp2xsfb/ePzh0ru9+9tDUhvAaQC0LvMAfYjvDUrt9iHziQz7d9R8bgwZLjbfsAxceOcvWUM6lyVfSle3JQD5wJQoRIblX2yTZp8jl+V52vwyvAnuKT/nFnTZbdzz7cPtAgPGI0AxhN8SSn5RCIQa9Bq+CuovPQNzQ2nBTt4SNGEmdpfbDZ0DpnIrUeN85D+0VbbzDiGDqB/kRR4W7qvWIfoU6D0CZoANKzzuKqWzdJMqTYDeh1kd/Z64ivt77Km38Lb5Hpq25YxcTzbuhhj+Rl45M3UHDg6xbTr+DfdnBMOu83jJ94Zcj5xk+8st9VfntERSDo6hvXEGdJZNd379Hg63x0UEyMmdwzL+PSKxb1kXfyEhUC0OtjuOya5Vx2TXhNQX+m3zcBKp2jCiDK0QOnmvfU1bo4+OP7kgTlFh06rXLvAvoben0MQ0acjdHU/hjdkuP7KC851GF+T40kwHVKA+wDRrSfXCUSGZjs4LdL38UQI33GsWP7W7z20nz8fn8HOU9jrxZY09MOqvQuFWVOCg5u344w2lfcvvm/f5SFUPkQUPcPI4walTs0qW7BbUdo/z2N2UHm9wG/A+lQoSHAefTzh0L9gHrgXwgvo7bHuQjT/HSEF9iK8I6iSrTz/4DDQuf/Lz0lAAAAAElFTkSuQmCC;" parent="130tE-UftCdM7chXd9jr-46" vertex="1">
          <mxGeometry width="27.5" height="27.5" as="geometry" />
        </mxCell>
        <mxCell id="130tE-UftCdM7chXd9jr-47" value="" style="group" parent="1" vertex="1" connectable="0">
          <mxGeometry x="447.5" y="220" width="92.5" height="30" as="geometry" />
        </mxCell>
        <mxCell id="130tE-UftCdM7chXd9jr-39" value="&lt;font face=&quot;Times New Roman&quot;&gt;物理&lt;/font&gt;" style="text;html=1;align=left;verticalAlign=middle;resizable=0;points=[];autosize=1;strokeColor=none;fillColor=none;" parent="130tE-UftCdM7chXd9jr-47" vertex="1">
          <mxGeometry x="32.5" width="50" height="30" as="geometry" />
        </mxCell>
        <mxCell id="130tE-UftCdM7chXd9jr-43" value="" style="shape=image;verticalLabelPosition=bottom;labelBackgroundColor=default;verticalAlign=top;aspect=fixed;imageAspect=0;image=data:image/png,iVBORw0KGgoAAAANSUhEUgAAAIAAAACACAYAAADDPmHLAAAABHNCSVQICAgIfAhkiAAAAAlwSFlzAAADsQAAA7EB9YPtSQAAABl0RVh0U29mdHdhcmUAd3d3Lmlua3NjYXBlLm9yZ5vuPBoAACAASURBVHic7J13eBzV+e8/Z8pW7apL7pZsWZKRbcA2NsUGgzE9kNADBEIJgQAhhRCSAHEgBAgtgRBK6JDQkpAAAYwNplcXXOQiC/cqq+9q25Rz/5jVaiWtqgW5v/u73+fxY83snDNn5n3nnLcfwf9Hr6iulq4cd3S6AofZQuwnBCWWFGMF5AC6hCwgJqFeIuoFbJOwBsFqYfPF6PGuaiGE/G8/R08Q/+0B/N+Ibdta8nTDdaotOROYBXgB2qko016b7PS/6HQuee0eYJEtWGBZ+r8nTBCtX+ngB4j/zwBJyMVS2zM6ejpCnCeRx4DQoSsx2/8fCAM455PnYgLxii2sp0tL3f8RQthD/RwDxf96BtiwQbqDInYWyOulYAL0Rcx9YoCOc4KNUnKv368/MmyYaBuCRxkU/tcygJRSqdsY+T5S3AQUAMjk2/haGKDjt70gb4nF9AeqqkRisM8zWPyvZIC6mvABQhUPmqacaUvQNAX4rzFA8khskpJflJVpzw/ikQaN/1UMUFHx5ohj5hT/sa4+ftr2nTHR2GxgWRK/T6NsnI+DpuYw78gChg3z8HUzQOqc4A1LMX9QWeLdNOgHHQD+VzBAVdXiYZZh3yoFF0gpe31mVRXMnVPAFd8rJSdb//oZwPkvIqXyiwnjlfu+ahXy/3kGKC9/6xKQdwHB9nOjRniZNDGL4cVuJILde+KsWR9i6/Zoql0woHHl90s5Zm5R6tzXyADtbV6VpnphRYWo7/8TDwz/DzPAC+qECXl3CcHV7WdmzczlvDNGMGliMPXk6cRctS7EC//cyTsfNKTOnf7N4Vxx6TiE+K8wAMAORcozy8r0j/rx0APGf40B5PwFRcRVS9x6dEPfVw8Mc+Ys1nbutF4EvgmQl6tz7ZXjmH1IXsf9U/+nETP55wefNHH3n76kvsERyo+dW8TPflzG+powtRvDhNsscnLcHLh/NsXF7rT+vhIGAIhLwfcqxmlP9/cd9Bf/FQaQNy6YB/JfQBzFKBfzvzGEU5wUFRWLHpVSXAhQMsZr333TRGVYkTsjEWwJQiSJkKYF1DcYXPOrNWza4qjoWX6NcJvZ7W6HHpzHFd8fR3GvguM+M0BybPJ35aXa9UMpF3ztDOAQn3+D9AJxLGO8uOUbO4aq//LyRbcAvwQoGe1rffiuqmBWlgaAaUkM0yaekFiWxLYlEoEQjiqouQQuXUFRBSAIhy2+d9UX7Nwd6/WewYDGbbdUUT7BETO+OgYA4OHyUvXyobIifq0MIH+5qBjN3Aj4kqfOFzcdN2TTWmXlwmNtW7wOCLdL2f3Pxw8clperY9mCSNQiFrc6xpL6v/sS4HKpeL0qS5Y38/Mb1yAleLwas+aVUjm5CH/ARUNdG0s/3MEXn+1ASsjPd/HIA1MJBDJpDkPHABKQUjzX1qScP326MAb6jrpC2dcOBgSXJQEr7czNcv7rs4ai67Ky1wptWzyB80ZbH7yjanNerk4sZtHckiCeRnxVVVJE9vlU3G4VVe1ghHjCoqk5wX0PbkoR/ztXTOOgWaMJZLtRFEHhsCyOO62CY79VDkBDQ4LnXtw+FI/SJ4Tg7Kx8+wkp5T7T72tlADH/2DpsdSbIJclTY7HFXUPRt6K4HgKGAUyeGPh95QT/wW0Ri7aIhUx+Si6XSjCokZOtEchS8XlVvB6VLL9KTrZOdraO26UCsOHLCNt2OGrhrHmlFBT5M973wINHMbo0B4C33q5L3esrh+SctZvtP+1rN1/vDACAHQNleOpQyn02fU6YsGge8K3k4UsP37WfJxS2iMWcr14IQSDLIbqu9fzImirIynIYYvPWDv9MxaTCXu9fOcX5vb4hQVPT12fOF5LL1220btqXPr5+BlDk90GOdA7EfHHz8XfvS3dz5izWhOCe5GGrYXB5KGR/O5FwiK+oguyghsvV/0d1u1XstIXK63f1er0v7fdI1OrlyqGHhOvXfmmeM9j2Xz8DSOuvwGIkPxY3Hfubfe1u507rUqAKQAhuue/WSYWGYY0HUDWF7IDWaX3vLwoKOojaUNe7t7ahLtLRLr93ZvkKIKQQj1ZvkjMH01gb6tH0BXHziauAo4air6qqF1yG4ah8wCbLSjwY8NsXAiiKIJiloSid1bL+4sAp2Y71T8LSj3Zw4hmVGa8zEhYrPt8JwMTKAB6POqj77SM8irT/vna7PGDiKDEgw9p/QQYYOphm7nlAcjlR5luWy5sTVGcIAcGgQ/zBoqjQzayk5XDl5ztZ8sG2btcYCYt//bWaUEscgFNOGjH4G+4jJIwiIR/ry9nVFV/7DDB0mK9IqfwMJEKw1e12v6GqIdXlUiv9Pg1V2XcTx1XfH8eK1SFaWw0WvryBNSvqmLh/Ef4sF/V7IqxcsjNF/OnTcpl7VFEfPX61kHDymk1cAfRbO/gf6wyqqFh4ipTiXwCKIn4mhPFXj0cRLz02c20woAY7G1766dvvEhBi2ZKlX7Rw2101NDT2bHOpmhjkl9eVU1zk7eE+Q2sI6qNN1LbE5MkTxJc9DjgN/2OXACnFJck/myDxd4BvnzKyKMuvBntpNsB7wLgSH/fcNpnTThlOYZpgqCgCJTnLeDwKLl0dqtvuK7yKKh/s71LwP3IJKC1dVAwc5xyJvwsh4gCzDi3K3pd1vyuUpJPI71c558xRnHPmKJpbDKIxSUG+zhPPbOONhXtYvqKFUNgkN/dr1wB6wtHVm/gO8FRfF/6PnAF0nXNJMq9lKf8ESCSEVT7GnTOU91EU0LTOH1JOts6wYjeapjBndgEAti35+JMh92rvI+Qd69bJQF9Xfe0zQFXVC654vLBIUewRIINC2FEhtBiAbRttiYRr9+bNRzb30c13kv/XuFzxFQDxeCCkaGrx4JS+nuH3qbS0dncDA5SN9zNqpJftO6K8/U49Z50xute+wmGTpqYEsbjjyIsnLOJxic+nkZfvIidHR+3FUjlAFFlufgL0amv5Shlg1KiPvF5v21EgZgrBwSAOMAxZqChpXjmpIGW7Z1PF5bIoL18UB+qADSCqQa4Wwq6Ox/Vql0uOBfsAACHki+B8/du3HxoVom3YUNviNU0hy68lfQrdOz9iVj5/fX47X24M8+XGNoqL3Gze2sbmLRE2b46weUsbO3bGaG42MIy+Pbg5OS7GjfdTXp5N5cQgU/bPGZAVMx1SymtWbZQPTh4n9vT4fIPquQ+UlS08WFHExRA5A0R22pD624UbGO38k0eBwygulwUQTvUm5XrbVoTfL9ucY3v4V6HYuN0KqiaIxSwMU2JLBSHAMm3GjPalrvvRT1cQje2bKbi5OcGypQmWLW0CwO/XmHV4EfOOHU5FZZ8zeldkCWn/GLiupwuG9G1VVCwolVK7E+SpXX6ygQ1CiKVSyvVCyL22zR4hOvLkbFsoqioLQRRKKYfhePYmAvvhJGD29Ah7pZRvCsHCfzx24Jkjh7lPgK6q2ODUwExtGpsMPlvazJJlTSxd1kxzS8/qodejMmaMjzFjfOTmusjLc5Gd9Dp2xBgKIhGTpmaDlhaDbdsi1NaG2LUzhm13/mAOnVXIRd8bT1FxZ3Uzk+ooU2doiUoxdvp40ZJpjEPGABUVi86VkkcAT/JUQggWAM8bhnx148Z5GQfQN6SorHxnrGWZVSDmpQd5doUQsH9VgCMPy+fwQ3IZVtQer7dvDLCnLs77HzXy3of1rF4T6kaYdHzrlBFMm5rL2DE+ios9yW4Gbgdoa7P49NMG3n+vjqVLGrEs5xe3W+GqH0/k8DlF/WIAAFuI66aUitszjXdIGKC8fOF1IH6X7M8WQjwH5vXr1x+7aSj6b8eECW9dJoR8wDlSLpDSKgZmCiHmAPnp1woBVRUBjptbwLwjCglkqQNigFDI4q1397LgrTrWrg938/NnBzX2n5JNZUWAvBwXt91VA8DVV5Zx0olp3m5nNPtkCNq1K8ozT23ivXedeAMh4IKLxvOtM8b02KbL/TZNKhVlmcLI9pkByssXnQU8lzxsVhR59rp18xb00kTAC8q0aeOUlpY6xe0OS49nnAQIBELynXfetWF+RmmpomLR36XkNCllnaLIAy3LY9TWHr4X5iuVlbMPPuOk4gUfLWnK2rYz3qmdrivMmpHLCfMKOXh6DooiMjKAaUs+XdLM64vq+OjTpm5C28gRXmYfmsdhhxYwsSILRRE0tZhYps2lVyynucXg8FkF3PCriak26QzQPnO0TyC2lEgpUuNRFBzqprVJ9SNg6eeN3HHbGtqSwanX/moSh80u7A8DoNhiblWZeDsDMQYPZ81XlwPZQD1Ys2tqjl2XPuyystddqmq4NM2tRyKa7vGYfYq0iuKWsVjC1nXVMs0sIxLZaypKVPp8eduBPCnlPzTNukpR3KHq6iNTQmFjbbgN8H25OcKCdxp48516dtd1ZoZhxW5OPXEYJx1bRDCgIRG0hkxeeWMP/3ptN7v3dL4+L1fnmLmFHHt0ESVjnaigdKaJxCyiEYs/3v8lH3zUQCBL57m/HoRtg22DYdnYlkP0di2itxkAIdA1gaopqJqCpjkCZ/vstHVrG9dd8wWhVgO/X+Oe+6dTNMzb3rhHBhBC/G1SqTi367veJwaYMGHRo0JwkXMP5aSamqNeA5g2bYne1NTk83oTXtsehDM+A2yb/aXUXgcQwrpaUeSLhmE31taeEAeQG6S7SbSlwned4ElYUR3itUV7WfhuQ6egUJdLYd6cfECw8J16EomOr11TBQfPyOWEY4qZOSM35VjKNGskDJtQyGTxe/X8+aGNANz620mMK/V3adOBXhkghSQxhRPK5vY6cYsS+PyzRn7765VICUcfO5wrf1zZuU3G+4lwlqCwtFR0CnEeNHHGj19QpKrqFhyh78WamqPPhBfUyZOHB02zzdP1esOwTdP0Gm53qxUKKZbLlWVrWrTTc8diYSUvL1uJx/1KPG6oLhearqPZdlyYpnqREOK3ALbNobpubnbaaLaUavze30/MPfSArI3tpuCuWkBbxGLB4r386/U91G6MkAmlY32ceGwRRx9ZSG6OK0M/zledMCSGYZMwZOqr3rUnxg9/shKACy8o4bhjihFCIFRQFSfUXAhnhhedGEogJVi205dpgZWcNbouAbqu4PFpqKrC7bes5sP39+J2Kzz81CFkZ7vogwGQCidMKRGvpz/zoO0AiqJ+iw6J/75Roz7yZmfHs02zLcVUmuaPNTXtim3ffkYM+pfMsD1jYO0L6oQJ+VXJyaxe143N7b84S4rpbW4IlzY1u9B0BbdLoGlKp0ggv09l5HAPXnfPThu/T6VkjI/cHL3TectyCB43JKZhd5oB2lFc5CEY1GltNdiytY3sbD31xQ5GCJRSEE9YGIbESIa3GYaN0Wrg9Wmc+I2RfPj+XuJxm88+bmDecR2CZ08Qkm8AQ8MAQohpyeE267q6PBBozbGTs2g8rkY2bmwKw3G9W0VaXsgThrEAaJb5+omIM3uIqDzTgkXTAaSUSwGiUXdTIhFWNE24VdXjKihwDwcwDRvTAImFqgm8bpVlq1p5/NkdrFobSvXodiucfFwxAC+/sYd43Gb12hDXXL+GSRMDnH/OaA6YnE00bmGaGXhXCHQNNF1BUQShsEl5mZ8ly5qpqQkPKgytS/e43SpuN1iWSjRukYg71shIm0nZhCA+n0YkYlK7obVfDIDsHom1D5ZAuT+AlHKtbccD4EzHqppo3rjxuHjvbZNImMcimA5AozUdyJgAWVX1Rp5hUAYghFwei2n25s1Htq9lEYApExoDUlFJGBLbcjhx9ZoQjz27g7UbOmL6vB6VU08q5qxvjSAvV0ciOO/MUTz/0k5eenU30ZjF6rUhrr1hDZXlWZx/zmgqJjh2KEVV0HVnTU4VlUj2K4SgrCzAkmXN7NgZJRQyCAQ6zySDhaoK/H4nsDUcNpESolGT0WN8rF/XyuaN/a4wU75kvSyYnpZtPGgGkFL4nBQ1JwYtFtPssWPVhnfeOSGz5yQdOx/y4QocLLBvaJ8ChW3/Xjb87WfkaUu7zgSmqR/QLgcLQY2UajcG8wf0YikFfmDL9ih/emwr73/SlPo9y69y4rwivnlCMYUFrk729Zxsje+eM4oTji3i36/t4bU399DWZrGuJswv569l1iF5XHrRWEaPcsy+mZYAXReUjEn+LmHjpgj7T8nudt2+QNcVgtk6rS0mUkoCQYfB4v03PwuXxgzgtfYT++wLEMJ2A6hqorlfxJdSiIa/LQNZ0UkGFRwmpPyIBmORhHnpTWzbrhIp/VjWmKa7GwNIyciWkMmjf93OP/+zBzNpOXO5FE4+rojTTxqGz+es/5GIRSRq43IpSASJhI2UEr9P5ZzTR3DyCcW89MpuXnl9D4Zh88HHjXzyWRMnnzicC84bnfHL1jTB2LEdfoHNm4eeAcAJRPFnaYRD/XMuZcAUhoIBhJDJagqqv60tEdu69aT+Tfu8qOAUWewJeV1PKIqocoRtmdB1uXX79kO6yArzlcef237Icy/toSVktrdh3hH5XHbBaIqLPNi2JG7YxGI2luVI3PG41elr1jQFj1shN9fF1ZeP4+zTRvLwE1t4+916TEvyz5d3smhxHZdcWMIJxxanIoIAdJdCfp6LrCyNcNhk85avrvCXrivoupJKfHG5BiBvCMalHw7a+Syl2OD8ZVcGApH+P60405KY06TgEmBn2i/rpJTnSpd5TPd7yUnJ4W5sa1MTIFJzXmXl29PKy2d9/NBTOya1E/+gA7N57A+TmP+zspQ/QFEEqiI6DG2ZhiYca1z7NcVFbq6/tpwH/7g/Uw9weLY1ZHL3vbVc+ZOV1NSmbFDJvgVjRjlGmS1bM6uaQwWPV2PHNuceI0b5+rg6DYLx6Yf7IgQmLX4iz7bzhwNb+t204IIdwKOy4RkppHgUQMJVFJ63KHMDMRFASmqystwJgIqKDwJSxm6zbfsykoxcXOjmR5eO5cjD8jqpXYZhE4nZnaZMIQRut4IE4nFnRjAM5xpNV/B6VHTd+T7Ky/zcfWsV737YwP0PbaJub5x160P84OoVnHTCML53UQler4quC4YN87BmXYgtW75aBmhsiBMOOww/YlTmvMWMkO1h9A72YQawV7T/bZocObhOrAW0B36Y1seZLikpWZxDclkQQm6wbdMoK3vrGCljq4Af4ITumd85fTjPPzyFIw/rWEEM06YlZNIaMjGTxBdC4PE4yaB+n4rfp5GTrePxKKlCEYZh09rezuxgmsMPy+fJhw/k7NNHoaoC25a8/OouLrlsGUuWNqNqguFJs2xryCAS6VskGixWrugQcEvHDYgBOrnWB80Apml8Bo46IYQ8a1CdFFywQ+aPGCnzN1Qy7PyMy4iuGyVph7sMw/qDosg3gLHJc+//+qfjb7zyojF4kkYey5aEwhatrR2EVxSB16uSk63h96mdkkYUhSQjaHi9SmptNwybllaTcNjESnpwPB6VSy8u4fGHpjJ9qrMs7KmLc931q7n9zvW0F6MAuvkVhhLvveME+WRn60yoGEAgtKBTVMmgGUDThAX2wuTh3PLyxQWD6kgcaSIye/8AhFBK0g5/C1xMsgaAEFxSUzP3iOPn5heC421ri9g0Nxu0J4e2f/HZQQ2fV+0kuHWFogh8Xo3soNZpRognnD7bIlbKozdqpJfbfzuJa340AZ/PIfoHHzbw+FObU/3t3tN7ZZHBork5wcovnLDJqdPzen2mDOgUujxoBlAUrxTC/mfyUJfSvGywffUGIURJ2mG76fltVRVT1q8/+lEQUtjieKcQhEks1jHtulwO4Z0vvv8vSVEEfp/DCO31AsDRt517tDMXHH9sMY88cCAH7O+ofOlOpd27v5oZ4PVXd6QY8ZDDChlIIKxIC6mDfWCARAJTUeSHQshVAEIoPxwx4pUBiKN9Y/z4xWW2zcUdZ0QUxFU1NXOPXrt27haAmo/rJzaFzMr0oE1dV8nO1glkqftkklWT9QKys/WOxA8piUQsWlrNVJROcZGbO26dzJWXl+FO8zW8/sYuduyMZup60IjHLF592SmpVDo+i/LK4IDS4ORQMUAwmEgGwyl/TnZdGAh4vzfY/rqiomLR6apqLRWiXQWkQYjY4TU1c//kOJakGDduYXZz2DzHSgpqQnEKQQQDKloXwu/YFePBJ7byzocd8ftNqkGT2hHT97cXd/DAo1u6FYXSVEEgoJKVpaU8eZZp09Ji0NZmpqJ0vnnycO65YwrZ2Y6haPOWCFdc9QXvfzB0RdDeeH0noVZnzMef6CSjagMLJW9KPxi0GmhZowzYhq6b/0kk1C+B8VJyQ2XlomfWrRt87b+qqhdcppl3h5T8MP28EGIzmOsByspec0v5Zvbo0S5XdkA/F8Dr1fB41G56fkvI5N6/bGHB4nosSyI0UJYobPZEiScjpNxSYeyXXuzHnOMXXtrJMUcVcsX3SskKdLwil8sxwLRFLeKxZGx/3CZhGPj9KrquMmqUh6IiNy3JYNFIxOTmW9bwzVNG8r1LSgdKrE5obTV4/m9bARg+wsv0GU4UnKoNaJbbkH4w6NFUV1clYjHNtixpKopyY/J0vmWJmwfb5/jxC4oMI/ftNOLXA80AUtrNoZBijRu3MFvXlTyXS6rzf1pxqsetlObk6Pi8Sjfif7E6xDmXreC1RXud6VpAy2kW671tKeIDxIXNhtI2wsdbIBz37+sL6zj/+8tYvabzBh9COBpDdo6eshNIWxIKmYRCBqri5BEAZGWpBJNm43/9ewfX/nwlzc2DLyHzzJObCIccxjr3/FKUpPFpgExVk36wT2koQsiY839icbtGIIS8tKxs4YED7au8/O39VVX9DMRhyVNLVFVMBxEGkFI05eZmBd1uywcwfXqup6LUf1V2IHMq+AefNvGjG9bS2OS8sLajLba+GqfupswEkCrs/kOCra/GaZvrCHmNTQY//WU1H3/W2O16VREEAho+X8esYxiOfNCuCno8Kvfde0AqlKx6TStXXb2cjf333qVQuyHEgtd3AXDgtDwmT3FUUH2gSSOStemH+8QAXu+IlISjKNovAANQhVCeKilZ3C0qqCdMmLDwVLA/pEO3fzSRUGc7gp6dAyAEzbYdF869gvG7fznxF16PUpapv5qNbdxwey3xuI3UYc/vDHbdnyBR1rfzJFFms+vPCfb8zkBqzhT/m1trqP0yM9E8HpVgUEdrnw2kTM0AkYjN8GEe/njPARx6iDNd19XF+clPv+DDD/svF8TjNvfcuQ7blmiawvkXlqZ+c7sHRkLbxbvpx/vEANXVVQnLchvJQW6Xzu4bCCEn6bp5a3/6KC9/60ohxIuAH7CEENfV1Bx9yebNR8bKyl5zg/An+2xSFLf0+QpaPvz3pNN0XWQUOONxm1/eUkMsZiFV2HV/gtBpmS1yAniGzJNV6DSTXffHkSrEYha/vmVdJxUvHaoqCKZmA2dmAMdnb5g2Xq/KjTdUcfFFzrQdi1n89pY1/P3v/asr+MRjG9madC6d852x5Oc731Z70OgAsO6A0aJTVdZ9zkSMRPa2gROaJWX8XpAfAgghrq6sXHhszy2lKC9/61aQ9yXHEZJSnrJ+/dzbAUpKFnt8Pk8JSZ+xlGpTdTX1b71Q/kOBeKinXp/++06273L074ZrDCJH9OwrP43hHEJuz882x6bhGmcJ2bErxnN/772ircejEghq+JMzgJSwZ3ecRMJGCDjzjNH86hcTnTpCEh59dCOPP76p19qCy5Y28uorDqPsV5XNiSeNTKm7Hs8AaxJIuoXr7zMDbN9+ZtQwfCaAZbm8lmV9FwgBwrbFX8vK3hrftc2cOYu18vK3HgPZnrO2Qwhmbdgw7z+AKCv7JOj1xnNjMZlyqJeM0v2h2umvCilupYdg1ljc4tmXnHUyXmXT/N2ebfEqgl9T3ufzNX/XJDYlqR38c2fKCNQTNFXgdqeFjUdMwmHHLyClZNasAu66c/9UFbIXXtjKPfesy5httGtXlDtuX4uU4PWq/OiaSuLJWUhRlQEnjSoKT3Q7N6AeeoBpWiFonwXUvVKK7+OYp/IVRb5cVvZaylg9bdoSfccO61ngu8lTNaoqDlu//uiVIJXKykV5ut7sB/B6lZTZ8qxThl0nkb3MKLDw3QbaIg6BGq4ye326cxjJfvQj2VKBxssdRmprM1n8Xt8abrt2AGAl+SUWswiFTWwbxo/P4u67DmTkSMdxtHDhHm67bW0nJohETG6ev5pQyEAIuOLqCoJBPfX1twe3DABfVJWKLzI83r5j8+YjY4pCHMDttnzBYPbfgXYZYD8hXC/ACyq8oIZCTU8KwenJ35ZaljV77dq5W6ZNe0g/+5TPR97289KZj99ddcGrjx30p0fvmPhK+z1cmtrnE3+0xLGPm0WSyOE9f6k6ghv68fW3I3KEhZksFvrpku4aQbf+09Zlj1dJ5fybhk1rawLLsikqcnPPPQcwcaLzbXzw/l5uu3Vtqor5nXesZWuyWumZZ49l1uxCEsm8hvaAkIFACh7IdH7I0sMLC92te/bECwFaWupyamvDN5aX5+0HfFMIji0vz78DGNueOawofPLALZU/njEleHJbrOHQUJucoaqUI6XucTtu2qZQh8rm6kd85YpqJ+o3NtOGXtjlu4xmPAOwWqsQm2GR9R+V1WtCfV6eHqEjbQgGdNoiJvG440xqbTXx+zUCAZ3f/nYy11+/irVrW/ngg73Yt0JRkZtPkxVHDj6kgHPOLSEUdmQRIQQ+/4DJtinRwOOZfhgyBnjnnSPNqqrFIduOB3Rd0crKsvy6rn7HMKwPgP1B/rj92pKR7tBT9+w3KZilfRyNW0SjNpoCSPD5NbxJ1cZMW8L7Wu8Shp3S+eMTelb33Cj8ytkfEoARePiM2QDYSI7nU5ronvIdn+A40hsbE5im3av0raUVjDItRwD0+52Kpe2yQDjsxPf7fBq/3NPGGQAAIABJREFU+90UbrhxFatXtfDRh3tTbceM8fOTayqJx23spN/B04dHMxOEEL/pqbT8kNYIqq4+MiyllgDQdcVfWIh5x3Xj7nTpHSXiS0d7eeYP+wWys9SstqidSnQUwtl4wZum16ZH8PQ15YVCHdxi9RKL+X3GMhpv6tiFwjSymUY2O4llJD6AlZvM65NO5nBvcOlpqWOJjnXd41EJBPSU4SgSMYlGLTwelfnzJzF6TMes5HYrzL95MrquEE96ODVN6Sb5K4bJ2DeWMHrhcoSVkfE/XVPCMz2NdciLRK1b19h89IyA7/l7Jl3+9G1Va3bsjj+dMDom5K07Y7z3WTOhsEU02hHAmZOt4+pCZJFm223/AnqCP21aVNoyfyE+VH5ORtsRNpL5na2knaCm+dC83t5fm5XGH12rlum6QjCop77iaNTREpYtbWJH2q5l8bjNB+/vTYV9CUHGqd+/qxHf7iaydtTjre9WgiEmFXHhmUL0yLFDWiJGbpBuQzZfFo2bvwpHZeH7S1q59ykn7nNYoYuWVpNo3OaGuzbzi8tHM+eQXFRVcdy2Gaa19ApdZh8M4HEr+H0qbRELrS7zNRaS81meOn6aAynGCRp9kV2spOeNvdU97SXjtD71b8vu+BIzuaNVVSEQ0AmFHZfyO+/s5YEHarFtidvj+A/27o3xxGMbyctzsf/+OXh9WlqqGQjbxtPQSv6KjhIMhctqsWZUEM8LIIVAIm6YXCLWdhtAGoaEAUpKFnvOPyX/6if+vf5nfp+WP3akG8OC3z2wFduWZPlU/vybclpCJj/4dQ3RmM2tD2zDRuH04wtSLtau0NMEP8Ps24w7eoSHdbVteJZn/kLj2LxFhwk2mlyZLCQ39fL1A6k+R43o28LdeenK/Gyq6lgMX3ttFw888CW2LfF4VG66eTL+LI1rfrKcaNTi/vtq+N1tB1CW7+7Ufuyrn+Fu7CyQ+vY0Me6VT2gbns+WY6c+X1Xa92Yc+8QAZWWvuX0e1422tK557vW6jFUSVUVw41VjGVaoU5Svc9vPSvnFHZuIxGxu/fNmTNPm26cUZ+w/nS/6mgEADj0o12GAlQpancAs6l+kzNNsZ13nOIlO0HYLPKsdBjh4Rs+Ww3ZYacJrbwEpL7+8k4cf/tLZlsajcO3PKxlb4kdR4LLLy/jjH2qIRi1+f9sa7vrj1FQmEFKiRXqONnKFo9GoR7moP7uLDVoGqKj4IJDl934cS/DLhEGPJTKryn1Mn5RFLG6RMCwmVfi545fjnJItEn7/0Fb+/HRmE6uapvob/dge6fBDksSRkPN4/3jbQHJLZxd5N+Q8pqWirmYdkt/rtUCnSGJNzfyKn3xqMw895BA/K0vjV9dXUV4ewEhYxGMW06blccaZTt3BdIsgAEKw5aQZ7Dm4EtPXMTMYAS97ZlTuahpZdPD0EaJfcemDZoDhBdaCSNQ6EGBSHvxpls0H3zRZfLLFLTNsRvic0a5c18Yz/+5YlFVVcNi0HB67vZLCPIdv/vLsTn55x8ZUAcV2eNNmW7MfS0BlmZ8DJjmGlexnNPStfatLj7KVjfT8rlxbBNnPOsx0wP5Bysb3HYJtpGUTd1Vf43Gb23+/jmefdQI78vPd3HHHAUydmtd5thCCb59byhFznArky5c28sq/O5xHRpaXpsrR7D2wQ6itm1r+Zahi7P7F51Su7HOQSQyKAR75/Zo/79xrHAJw1Eib5442mTfKptADI3yS08fZvHScRVm28yL++vIeGpI6umVJ4glJeamXJ++aSMkoh8qvL27g4mvXUdfQYfzJ8nUIAZFo//LgLv3OaCdQIgHDL3eh9DyzE8Pm1l6+fiUiKL7SjUg4msp3zh7TrzFE07aNSQ8Tr69P8NOfrWDxYueDGDXKy913H0BJiR/DsFMxhgBIiWXaXPnDCoYlcw2eerzDK9iOthF5WB4dy+uKKw2RoyZMEHsZAAbMALK24afrN8UvB/Bp8LsZkkwqeo4LfntQe0lUybuftSKSPpxwm0EsbjOi2MUTd05k/4lOrsKaDW2cd/VaVqx1qObxdLg7W0L9S7KYUOrjtBMdmcJVqzD8SjdKa+aZ4DJWsp3Modtqq2D45TruGqftqScPo7ysl3KFaWi3Seh6h8NmzdpWrvzhMjZscAS3/SYGueuuAygq8hCPW4STlj6ESAnFkYiJpgl+eu1EVFU4cQF3dPYZmH4PG06d/beW/fcvGnHm+K39GmAaBsQAckPDT6QUd66ucbjw0GGSXHfPcsaBBTK1FHy5LUowoKV0+3CbSSxukxPUePi2Ck6a66QV1Dcm+P5163l5YX0y/MoZYmu4fwygqoLzzxjOzKmONcj7scKoM9x4VnR/1PfJbNf3LFcYebob7yeODHLQtFzOOm0kito/obKdAXw+FQQseHMP1/58ZWpHsaPnFnP77VMIBnXi8XRjmKMZBIN6yt8ZDhtUVAQ44ywnVubL2jD/eTklM7UJKc+bWOk6N/+E/J512F7Qb5eSrKk/VQrxFxDiwed2E4nZzCiSHDmi95fy+jaF3RFBcb6Lk+fmo+kiFViRMCRCEbhdCkcdmovXrfDZihCmJXnnkyZCbRY7diUIRyyGF7k55ginqFPPEAjFic2fOS2XXXvibN0eQ20WBP+u4apRsIJgDZfdnlwY4P1YpfBOnYLf66jNzn1mH5rHDy8fh6Yp+P1a0oDT0xic8wsW7WHbtijZQZ26ujiPP7EZ25YoiuDii0q55JJxqKoTGNKePiYEBAJ6siqYQFWVjveUsJlyYA4fvLeXUMhk/bpWjpw77GOfz3VC5Xh1ca8E6AP9EpXlhr1TJeIpkjNGYZ7O3iaDLaHehSxbwtbkNQW5zq10TSEY0GgNOeHUbW0mtq3h8ypccPpwSsd4uf7OjYTCFs/9u6PGcWs/lwBNFSiqgttlc+0VpYwb6+W5l3YRT0iyFqhkLVCxs5zQL6vAYV61XuDaIDpZEN1uhbNOHcHJJw5HCGdm6W+OQWuyunjd3jj/+rdjCMvK0rj2ZxXMnJGPxJETIlETEKmcf01TUoYel0vB69OIRkykLTESNhd/v4ybf72KtrDJRed9tHL9+qPX92tAvaDPJUCu2O0H5VmckC0ADprsrIWf1Qk29jLxLNguaIy3t+nIX9M1hexgx3IQiZqEws4On7Nn5PC3+6rYb0Jnabu/MgCAP2mqFQLO+MYwHrxzMkcfUZCy0Sth8Hyh4F+k4l+k4vlCSRHfpSvMnVPA/XdN5psnDU/Z7X3e/vvfQ13GWj4hwP33TXWIL52y8R1mcMc0nMm55PGo6MnMJCNhRyZODNyt6+JNACm5uLJycUm/B9UD+mRpWVv/AFJcll6NcsPWGN+8Yi2WLZmQDY/NMSnydm5X3Si46B2V5gTk5+r855HJ+DxK+i7YmBa0hi3MpBPDKc3uZPMkDMldD2/jxf84s4AQ8K3jirj6krH4vEqnZKhM9ftaQmbKItd+PhqzWbqyhS9Wh6hvjFPf4AheBfkuCvJc7D85yIFTsnF7lNSrkThMEQhomcvLpv0fido89JdNvPbGrpTO/o0TR3DZ98eh6QqWJWlrM1NWTUVVyMrSO5l4u1b9lJL67dvbnn791R2Pvf76nnqwxxiG/DT5Tu5dv/7oHmsn9we9MoDcsHcOKG/TqcabM7B7ntzJwy/sBiCoS84qk0wtgIQNH+4WvLRJYNgO4e74+XiOme0YadIZQOKkWLeEzY5KXEIQDKjomlPb97f3buKlNzo0m+HFLn794/FMnRJM66ejv3ZYtqQlZGFbHWXd+mKaTMWiFVUhGFB7LC/bfm75yhbuuLuGPWkZwSccN4wfXT0BEBimU1BSSonEqS7myBSdi011jFFZBjzi9ypPzpv3omnbwXwAJwjX+htOGZ02XTfHVFcf13eUSg/oUQaQUirUNt3ZmWQduPi0YlZvaOOj5SFaDcFf1mZweiiCH14wgsMP6tk/qyiC7IBOuM0innDy+1pDFn6fU8ChbGznwI1dexJc/ou1nPmNYVzx3VE9OmacjSNVWsOyk3duIGjPDezN/x6LWfzl8c38+5Vd3YI7S5PVQmMxi0i0I3fR5VLx+9W0usAp7BaCF6Qln5gwQV2e/kNFxQdhRQlnqWpcN03tXiGYB/hNUz8f+MPgnrA3GaC28UKQ03pr3NjirGMuXXR6SbouOGxakId+O4GT5+b3mbsqBM5u3r72aFpJuM2kLWJRXNRhDJo7Kw+PW0FKeP7l3Zx75Wo+/6LnKvSqKsgJ6rhcA46fw+1SyQ7qvQp+S5c3c+kVy/nXyw7x3W6Fw2d1ZMkXFXqIRMxUEAiAz6c5OYYdxI8IIZ8XiJO2bdVGl43Tr54wwbW8673Wr58Vbg++TSTMpcB2ACm77c0wIGScAaSUKrVN1/WWdlzXkGD9Jsd/fcZxhXz7GwXsqjPQNIVhhTqetMCO/gaw+DwKiqIl8/AhGrMoTtuLd9qUAD+4YDQ3/2EjX1SH2LYzxhW/XMcxc/L50SVjyMtzd+uznblMS6Et4hR9zLT1i3OtU6jZ41NTNvxMVzY2Jvjzw5t4+92OpWnypCA//VE5S5c1814yGbSgQCcW66hMkpWloesKEixgsZQ8bZraS5WVIiRvfH3uOMQW+esFb4vfHPudDLeVEG4FJc/nA8vi38AVwGFVVYuHVVcfubs/77grMi8BGxpOQYjMkRNJrNoQSU150ydnkeVTmVCitY80BYHoFCHTF9wuBU0VhNpsDNMmP8/5Ci1LsnlrjDNO8vDQ7RN54dU93P/4NmJxmzffaeCjz5v53nmjOf2k4oxfrZZM3pDScdeatsS2SZZpdwpIaS4lbSeP7rAsyb9e3cXjT22jLam/ezwql1w4lpNPGo6iKPzzX47ap2kKeclt5NSkDUFVxWfA466E/uKoiR17/Mr5bxyNLV4G6UXKE3t6N7W1J8Srqt6I2zZuIeRCKcUVgGIY9jzg6X6/5PT3kvGs6JyZmwmrNzgOFI9bYfKEngMsPR7RSYDqD1RVkB1QCUcEsbjF8CIX23fF2bDJYTpFEZx18jCOODiXOx/cwnufNBFus7jnoc28tmgvP7mshClVmUO+hXB0bDNmUbc3gUQwrNgpHNnbVourqlu594GNbEhLEZt1SD4/uGwcxUXuVHXyTZsdM3ZxsRvFYaqI36c+LhUeKh3vWtW1Xzl/wSRsHOKDAfLirtekw+MpCEUi9W4p46vAYwFqRxW1gaMbA8jahtHIZJRkL9i8w7GhjyhyoeuZCezSFfwD0J/TIYQgy+8kXo4d5WX7rjibt0dpajEIZGlommBYkZs7byzng8+aufuhzWzfFWf9l218/2fVzD44jysuHM3Y0Z3101VrWnnqhZ18urQ55XxRFcHM6Tmcd/YoJk3szDhbt0V46LGtfJi2L+CI4R6uunw8Mw/KTT23aUrCYZNt25xlcfgwT0JK+/acvKw/jB4tepPSK5PEB1AR4ig5/5UFYv43Mrooly6dblRVvREHDcsSG0BWptVQGDAyCYFn9XC+E/Y2OlNgXrbDQ5rquHoEjlAY9GsEs/Z9O1VVFYwd6XgMm1pMWkIGLa0GbRE7tQQdNiOHvz0whUvO7dAK3v+kkXMvX8nv/7SJhkbHBv/Es9v5wbVr+Oizpk6eN8uWfPRZE1f9bDVPPeu4XBsaE9x135dceNkXKeJ7PCoXnDuaxx6cysyDkmqtdCqPtrY642rfRKp6TevDJ59afWsfxIf5x/wDya+AGKAguRLbNb+3JvG4ndwlTSbXfTGqP+8yE7ovAVKe1J9tBNpTlHICKoqA3KBGT6XP9wWqKhg7qkO4274zzsQJGtGYScJQ8PucJAm3S+GSc0dxynFFPPz0dl57y6kJ8NJre3j9rXpmTsvm3Y8cWvh8KqefPoKDDnJSrD//vJkXX9xJNGrxyFNbWV8b5vNlLak0MFUVHDO3iIvOH0NBvitlBzAMm3DEThWnrtnQuhZnpzPicWtVdna2lbn8fQcEQkr52vMI9QcgkzX87F5NvLW1J8THj19gtSfj7As6MYDctMmDKWb2p6E76eZsCVudCikNNRQBJWnT+N6GBFP2C5AwbCzLpjVko+tOQKiiCgrzXfzqR+M4+1vDeeCJrXzwaROxuJUi/ogRHp54Yipjx3b0ecwxRZx33iguuGA5u3bFeP+jjo/2kBlOoejSsb4UQ9u246pNJOz2XT2MaJu85c57NuwF7gewLGvdunXV/bNAKMofO4gvfyNuOv7RvpoIYcWE6Dtbqs9bdzoysw6moxJXr8jPcXhnV52BeyC1agcIVRWMHu7G63GGWrs5SnZAI8vfoUs79fyMTlvCjBvr5Y5fV3D/7fsxemQHse+6q6oT8dsxdqyPO+6oSh2PGunlj7+fxK2/mUhpmjEqFrNoaUmkPHUS2RqLmqceckT2byyLZAcipCii1tnnoF94H4iBuF7cdPz8/jRwu8MxIZwMFynltn7epxu6LAHKAf1tOGGsl09WhNhdnyAaswkMwXrfE3RdpbzUx4q1YVatSwaLuBV0TRCJ2kkLorPXXiwu8fs6AkmmTg4ybqyXbTuiTJiQxdSpPdepPuigHMrK/NTWtlE61ssBk7PThDxnurfMDtOypivbDCFPmHlQ9urkZYc4/8kVlmX2I4rRgbjpuNuBjPv69QTDKAyCNRpACLGir+t7Qldhb7/+Npy5v+MRNC3J6+839XH1vkFTBRVljll1w8ZIKnZQVQWBLJVAoHP1rtZWx7vYXt2zfeewTF9+V5SUOF/7nmQby5aEw8mycGnVyPxZWn12UJu3//6B1QBVVYuzcEqxIwTLEgn7q6sTC0hpXkiSfrZtfTLYfrowgOx3yuyUCh/FBY6Z9pEXdhON9y9mbzBQVagY7xDGsiVrajoH+rl0hdxsHa9XTS0LiYRFc7NBuM3Cm9QMGhr6LtC0d69DeK9XI9xm0txsEE9WHUUIPF6FnGy92e3Wjh45zpMS1kzTnkEyzEQIe7nXa31lDFBW9lpQUcSVycO14B0iBhBiWL8bCsH533Ri73bUJbjlgUEvQ33fS4HJFf6Uv+HzFd2DEIRwfPbZQQ23W6Wl1eA/i/Zy9fVrWZnM6F25sjWlp2fCli1RVq92rl1V3co1v1rDG4vqaG01cLuVZLlZTSoKF4wa5+o07dq2nNP+p6aJT+PxYL+XgIFCUVwPScmY5H0fVpR+JE30gM4ygKTvoPckhIATj8jl3c9a+GxliJcWNhDwa1xz0UiUodkqMAVdd6KIxo/1sGFTlM+Wt3Dped1V31DY4t2PG1n4bgNLvmhJLQHtsCzJddet4ZFHDsDbxUAViVhcd111yj5g25K160OsXR/isSe3MvXAHObOKWD6ATl/mjIz++Wu91YUjk7aJVZbltVcUqKZmzcP1RtoxwvqhAn594E8G0AIFquqfKG3EjN9oROl5Ib6GIjuHhW6Byq0hE3ihqQlZHLVzZvYstOxDB56YJAbrhjD6OHubm2gezxA576736f9XENTgkee3cmLr9ahKoKFz0/D71NZ/2UbHy9t4eOlzaxaE+5G9OJCF4cfmkdTk8GiZHWP8eP9/OAHpSk7wGefNXH//ZvYtMkxvh11eD65uS4++KiRPXu7qdomzuZWCxRFWbBu3XvLx407LKBpoh7QQP5Z1xM3V1efOCjnTE+orFxUbtvizyDnJk/V2LZyqq4nGjXNH1u1avagBLEuDNAQh8xZPl0JE45YRJLrvmVKvndjLV9udZjA7RKcekwBZ59UxLjRHoaCAVpCJp8sa+FXt38JONL95m1RGpu7z7R5uTpzZ+cz74h8JlUGQAhaQxY33r6ez5b1von5zOk53PDzcgJZOlJC9boQi97Zy7vv16fqD3RBnZSsEYI5yeNv67rvzerqQwcdpJGOiRMXTLIs9XLgEjpoU23bieN0XbEAum6hOxAMmgEMU9KUjH3L8jrRO7f9ZQf/WLA3ZaIVAspLvBw6NZsDqwKMG+1hxDBXylvXEwOYlmR3ncHWXTG274qxYVOU9V9GqN0SSblXu2LcWC8HT8vh0INyOXBSoNMy1L5zaCRq8cqCOv7x6m6aujBOXq7Ot74xnBOPKcLjVfAnk1Lax2aY9l/mfePD50E5HjienjWmNinlalCWKYq9yrKUL4Evs7Ozty5dOr0PuUCKioo3S0CfDPYsKZkHpKvmUkr5UDTq/0leXkgxDBkEUJTRDdXVVYMqQdqVARohc920TF9mfbOBLR1rXW62jhCCNbUR7ntmB+8vac1Y/kzXFAryNPxelSy/isetEE9IYnGLSMymsdkgFO6f/WT2zBxmz8xl5tRshhW5M4ZqAZiWoC1ikkjGCFqWZO2GNnbtiQGCYcUeJpb7EUmm0XUFn09HVVP9tGqKVVFUmpWa1seNWzhG0zhWSk4SQpzcrwFDI7AXp2J3FIgJgV9K8kDkgcwjc6i+BF6zbXlDbe285SDF+PFvFrpcUjUM26ytPWFA2UDp6MoA6yFz9aRMDBCJ2YSTaVC65oR2tV+7sy7BK2838t7nzVRviPQru7cn+LwKE0p8jBnlwbLhtbecgIs/3FTBodNzeowJTBg2sbidKjUz0JhATRO4XAqaLm4YU+7/baaxlZe/dTzI5DZs8ikhFEtKuxzEFOhPGbIeYQjBEil5VVXFX9vL4wOMGfNqrt+veQBCoWDz9u2HDromfVctoA7R//JZXo9CwnQ2UU6YklCbRcDvMPCIIheXnj2MS88eRjQuWV3TxtadcbbujrO3IUEkZqdKukkc34LPo5CTrZObrVGU72bkcBdjRnooSCaRNreahNosFn/YSDRm859F9Rw6vcOyZ9sSw5DEE3bqa3fgUFYIei3K2PUa05QkDLP5ob9sfqGq6o28lpbW6Pbta+KQvsOJvCD5R9jlMm5KJLwtNTVz6wHKy98aadtWmaqK8SBGSikKQRYCWXQyuYtWkGFgB4iNUlLT1hZZsnNnN5ewGDduYdDttjwAikJ8X4gPXRlAiI0gZw2kg4BPozlkYtqSWMLGsqUT2p0WB+Z1K0yfHGD65MCghUBwZhmPW+HQ6Tm89UEj733SRFOLidutkDBsDKM7dRVF4HJryeKNgtaQiZW5lg6q6qibNpJ4XBKP2zQ3Jv7y9ge7Q4A7EAi6J048GCkXJVRVjRsGHrBOdl4d/7EsJSKEnlIbamrm7gB2QOf6vIPBnDmLtd27rWwhTBeAYfjM2trZzfvabxdLoL1uwB0okJ2l0p4Gb5iSxhbnS92XaT8T2qttzDvcMVfEEzavLqwjEunYHApIbgmnEgxq5CZLyauKcMYa1PB4tE4BuUI4iajZQQ1FcQJEfF6V3By9pS7Ucmc8rkZiMc3uuN502XY8IKV1ETgVp4QwXwSwrNbB14PPgGnTluglJYtz9uyJF3YQ3zZra2c3gNhn82tXZ9DqwXjxVVWQG9QJR2xiSS9ZLOH8rQgnDFpVBbou+mUkktKZztvj9hKGjWWTMtJMrvRTVOCirj7BovcbOf6oAhRV4HJp6LoT2NnTU7QnnHq9OrYtkAjanaoZQsL+cOqpZe3FDVqqqqpd8fgWD+DWdUVTFM6UEqRku20bn6iqjtvtzS0vX2wmEs1mMOgzIhHLrK0Nm3CG3Sm9ogfMmbNYq63dq3s8WbqUqicSqVe9aS4MZ2f2Y1v701d/0FkIXN9agGLUdT0PvU/NHX8LTEvSFrWJd9nXNr2NEM7XKBQnxDv1m3SENydqt6f7OEN78sWdqdzBR++uYlJlVo9awCATQ1oTWrxk7NicjAaWsrLFByuKs9ehEOIPimL8PtN16VAUt4zHVSvddKsoljTNhGJZLsXjMXuMxNI0f8zl8ob7ViUHhk43FBXBemDAy0A6NNVJyMhLbtOWKUJXSollOTt1mmbHP8uyM4ZsCyFw6Spej5raG/DEowtTJVn/+o9d+zLkzBD8sSfiAyiKdW3yz7imWU+C83Uaht2mKMF4+pLRDtuOC12PaKoa19v/CWG6dF3RMhHfsgxDUdyhtWtb61atmt001MSHjCFhYhFCTtzXjlVV4FOFkw8oBYYlMU2JRUfNP1sKnEQpQft3p6hKsraeQNUEqkKnKmK2FMQTNvm5OnNn5/HG4nre+biJbTtjjBrRt7u3nwiZeqLHbJuKircrpLRPcY6U52zb3KMobrlx45wuU/N8parqDK2paaOWm5ulxONeJZGoVwMBTUAQy4oIVfVJRbFkKGRKt1u3QqEmKzc3alZXn2EM1TTfG7pP9bV7j0Qqb3c7n9aktyUg/fxQ+gLS24TCFrGExfZdcS77uVMx48SjC7nhJ+Mz9DPwJcCW8ncjyvy/ogeUly96GjgPsBVFzBbC2BSNRqObN39rn6Xyrxvd15xtBe8DQ7fP2SCwZLPOUx96aGzLvCR6kuFho4a7mT3DsQO8/nY962qHZMv2MJZ1T08/VlS8OR04B0BK+S8hjE0Afn/5V7tb9FeEbm9YHClM6Lm27FcNCfxzqZvlWzU+qMmct6JrHbmIF50zEpeuYNuSe/+yJeP1A4GA+0c4slDm8Unlbpz3lnC5xG0AiYSwBmuL/28j8ydmy4cYmqjuAcGW8NEGF9GEQ9wV2zQawj3MAklhsDBP59QTnVJqy1a18uY7g96yEKDZSJh39PRjRcWic6E9aUbcZ9vmdgBN8w/t9qBfI3pUyuWGhreAo1LHaU2+Chlg2Wad5z93Eze7D2lYts0P5kbxu2WqjWlJmludrFvDlFz042oamgwCWSrP3D+FokJ3xvt0fZ7OMoD45bDx3oybXZWXvzUS5EqcrezrVFXMACOhKG5ZXb137wAigP+vQs8ZQIr83dc4DtbtUTMSH2B3i8LeUOehqqpI5SbomuBHlzo1/EJhi9/9cWOfNv8M2Gl7PX/M/NN8BXgSh/gIIa8CIwEQjZrR/6nEh14YQIwveAsn8uVrwUlT4hwg/FesAAAFc0lEQVRTFacg0Fl9njTK5KwZcUoKur/j9LLth0zL5cSjnX1dPl3WwoNPDjRGUf5mRA/lVSsqDrs9LRLnkXhce7P9tzFjtCGRPP9b6L1ETG3jYUj5PhlKxMBXowY2RwW/+VcWEthvpMklh8d6VelCYSsVtau5NC7+0Uq27XT8MT+7opRTTyzucwmQknXF272TkwJwJ1RULLxcSpHcIJv1Pp96cDwe9wK0tZmxrVtP+mpj4r9i9JoEKsryPgT5t69rMADZXsno/P/T3tWFtlWG4ef9TtKepkmbrts6yqhb+oNb1OE6UCjCikp1ClPB4lR644UwUWGM4bxSGIqoQ/yB0RsvFCnFTaVs3kg7L2xRxtDN1qbNmlq6hmVp89O0SZOc7/Xi5KSx65L+Zmm35y4HDsnHec73fXm/53le/YE6q3PPrJYMKTgz49P39sBepv97OH1mFOfO38h2OwBAEB9b7OE3NPxylJm+SH30aZrybCymKYBe1nU4SnM3ECpw5E4JG7xZDUVc5dT6l49CUCxB8IWVNBFyFXUis5reKRS6pfzaaBRvnBxANCUfe/XFarzeVrNAJpb+bR3b6yxHMsd88GCPyetNfshMx1OXpoUQzZGIOmCzhe0AkEjIGbf70IrSOQsJS9Jvp1JCzxq33OlK4MJrkoGpYCIdHlFmM+HPgWm8e2oonS/YUFuKE286sKfBmnm/nwU/UOWwpqeJ+vruR4jkGcxr8fwAPz80FOjbvXvLVlVNiljMJD2ex335KNWuN5Ys4NeG/d8S6JVCJABDj1MNR+b76tlsJox753Di/UF4xvS/6UIQ9j9Uhqef2I4H91pRUVHU+kKb68dQKFQjhGwCRBvAzZhfGq8SaYddrhaP09m7RcpwMQBEo8WB0dHmxVOmNxiWTACemLDwTHEvQPsKkQAAEI5IxFMbQrVEj5+NxiS+7riOjh+8/2vlkoKxyVgoxIwBOK2q2gdXrrTM1NVdKDObRSlgnMc/mV1bvoGwLAsP/xPYxSb+g4FtQOERQDIhGE6mwiGBUosJqirAIFz3xvDdOS8u/jZ5iyQ8Az4A3xNpn7hcLR4AaGy8ZJmd9ZcDaRmWfzNM/QaW7eHi4cDDEtwNwF5oBGCQnhAaSkKmKkGlFhOKU+ZQBqBp/O/b77iOXf47WE6k++uYMUbE7qGhqd7Mok7mw9fXfWUSaF5X12++sSITH7unmiTjZ86QPRcKAQC9TBwKz4czqiVmI1/YB1Ie21arZm8RBt2Ba0z7QmisqlWT6yHIuNNYsYuT3cFGjfk8wFVAYREAgC5TT2fzEgSJGwniQ3sP2C9nG1dj4yXz9PR0uaLMmQH9zbdYpgL9/a0b8rQvF1Zl42V3qC7JWhcB9xcaAVLTPcK6iXWkp9v/8lffjIwJUTYXCiE6Pj4en5/uWdm5s6+ovBwlxk4fMNS3kamNXOvPhVX7uHnwpk0TSjsTXio0AgAAM/909oLvrc/bx+JSzi1pvEIUczJpnnG5miKbacO3GFZNAAPx4cnXCOJjABUFQQDCDDOfrKy1fqk3UOxUHI4KKzOpt1PfxmImScSxkZFAZDO/9ZlYMwIAAHt8OxJJ02cAteJ2B0j5IUAnQxyvrLMseiTodPYXGUJNAAgEIlIXYm7OdT4b1pQABuLXggdYylMAtRhfkwcCSAa6mJWPKustfasdw92CdSGAgfhwcL8EHyXQEQYswNoTgIAJyejUGO1bG2xZO2Xfw61YVwIYYE/AHk+KZxj8HBOegu6OXSkBJIC/QHxRMnXZa62/Eq3eI3e3Ii8EyAT3sClxX9ApJT3KTPtAqJHALgA7AAgGq7qDjwIMBEDwM8MFwMXgfjbz7/Ysjp17WB7+A/pTtwzblNQGAAAAAElFTkSuQmCC;" parent="130tE-UftCdM7chXd9jr-47" vertex="1">
          <mxGeometry width="30" height="30" as="geometry" />
        </mxCell>
        <mxCell id="130tE-UftCdM7chXd9jr-48" value="" style="group" parent="1" vertex="1" connectable="0">
          <mxGeometry x="550" y="220" width="180" height="50" as="geometry" />
        </mxCell>
        <mxCell id="130tE-UftCdM7chXd9jr-40" value="&lt;span style=&quot;font-family: &amp;quot;Times New Roman&amp;quot;;&quot;&gt;數學&lt;/span&gt;" style="text;html=1;align=left;verticalAlign=middle;resizable=0;points=[];autosize=1;strokeColor=none;fillColor=none;" parent="130tE-UftCdM7chXd9jr-48" vertex="1">
          <mxGeometry x="40" y="10" width="50" height="30" as="geometry" />
        </mxCell>
        <mxCell id="130tE-UftCdM7chXd9jr-45" value="" style="shape=image;verticalLabelPosition=bottom;labelBackgroundColor=default;verticalAlign=top;aspect=fixed;imageAspect=0;image=data:image/png,iVBORw0KGgoAAAANSUhEUgAAAIAAAACACAYAAADDPmHLAAAABHNCSVQICAgIfAhkiAAAAAlwSFlzAAAC3AAAAtwBNg+FpAAAABl0RVh0U29mdHdhcmUAd3d3Lmlua3NjYXBlLm9yZ5vuPBoAABYSSURBVHic7Z13fBTV9sC/u5BCGqHXhCDwBBVUxApIMSAtlIQiEOkC0kGkBwMaINQfKjUEAtJLEEV6L6GKBZ/wnoKEEjppQHr298e8bHZ2tu9kd5Ps9/OZP+bOzL03uWfvPXPOuWdAwB9YDzwBVM7DYY504AzQjgLEH7jrAH+s89B/5AL99Iyf1ax3gD/QeRg/kgBvPWNoMUoKeHpxIhulgcZyV1oSKKNZMHDE55T2LaPndie2ZHPMchJu39QsKit3GyW1C0r7lqVMufJyt+PEAkq6uGgXKeRuQyl3hU4KF04BKOaUBDIAt7yC7RuicZFOPU7swIO7CdpF6XK3oQDOAW/JXbET2VEBdYBrclaqBCL+V7kTx2YzMg++JkOAVOxv7HAeuo/NgKfe0bMCzdeKMkAzIApQvwcOGTqMWrVrF0TbTrT4amY4KSkpmkXhwBbgakG1qeu98jpQM+9k647vadKkaUG170SD1xu8xP379zWLGgNxBdmm8zWwmOMUgGKOxBRcXEhLS2PThvWkpT23d1fUPHv2TLsoFLB2/U0B/gZOINh8RBRLATh39gxjx4zkxj//2LsrxvhUxrpSgWXAbATXMlDMloC0tDTCpk0mpEvHwjD4cuMNTAB+AernFRabGeDihfOMGT2C69cKzJZSWAgAjgJvA9eKvACkpaUxK2Ima6JXkZubq/e+TnVfwLVECRv2zHr+ePCYKw+fqM9r+lek0WsviO55kviU0+f/Q3pGlmZxOSAGaFqkBcCctX5Nl1aUKeVm9D5HIuzwGb46ni8ALZu+zKpFgyX33XuQxIDRK9h7+FfN4iZA+yKpAxhb69978zU79Mp+VK7oS2zMOBq85K996aMiJwDnzp7hgxZNiY5aKZnyvb08+Xb2NLZGLbJT7+yHu5sLE0YEaRe/Z5cl4OrVK2RmZJr9nH8Nf3z1xCsaW+s/aPoOSyLD8KtamaTkFMn1X+89xMfN1ew+2ZO7qebZMBo2qKldVNUuAtC5Y3tSkpPNfu7bpcsJDukmKTek4Xt7eTJryhj69+yCQqE/pK7lmliz+1PYcHeXBPq421wAkpISLRp8XeTm5jLjizCiV0mnexDW+tWLI/CrWlmW9ooiNtcBbty4IVtdSqWSDkEdCagpmdoAuHzlLw4ei0Olcsa76MPmM8DN+HhxB0qWxNPLy6RnXVyka/Sbb73NgUPHiPgynJg1q0WDnfr0GSOnRPDD/qMsmTONalUq6a3b08cdAyuEQ5KZnk1mRrZVddhcAOK1ZoAPAluxZu16q+r08PAgYvZc2gd14rMxo4iPF7dx8HgcjVp3JzJsHH26d9JZR/Sx0XiVdreqH7Zm/cKjbF5ywuT7nyRKnE1JNl8Cbt4UzwA1agTIVvd77zXm8LGT9B8wUKLwpaQ+5dMJM+ncdyR37j6Qrc3ChJYhCCDe5gKg/ev0968ha/15s8G22F06hevg8ThaBPeTtc3CwNW/Epi/dLd28X7bzwBaOoB/DXkFIA/1bDBwkGQ2ePY8rUDadEQSk54R9d0RmgaFk5wishtkAdE2jQnMzs7mhRrVyM7OV1yOnzpDnTr/kqV+fcTFndapGxRzFgHjbDoD3L51SzT4CoUCPz+JfVp2DM0GxZQjwESwsR1A+xdYuUoV3N11a96PHj2Spc28ejw8PIiYFalXNygmqBDC/tshLAH2FQB9A3Hxwnkav9OI1auirGpv5YplNHnvLS5d+lldVkxngyRgI/AOMBiN2ECb2gFu3hQlO6CGDgXw4oXz9O7ZndTUVMKmTQZgwKBPzG5r5YplhE+fBkCvHl3ZuGU7DRu+AeTPBqNGjSU9Q/b9lhYT1O5D7ZmvG3DJymqfAnrfe20rAFozgJ/WK+DDhw/Vgw+gUqkImzYZhVJJ/wEDTW5n+bIlzAyfrj5PSUmhd8/unDl3UeRNrFTZsXwEJaQRSQkISnmBYeclQCwAFSpUYHr4TNHUrFKpmDZlosnLwcoVy0SDD4KyOWnyVL2u5OKMjQXAuBWwd2gf5s5fKBGCsGmTjQqB5rSfh0KhYNacufTtN8DyjhdhbLYEJCY+kbiB/fUogb1D+wAwYfw4tXMnTwhAt05g6eCH9uph8t8gJy4uLlb7QOTAZgKg/esvVaoUFSpU0Hu/OUJgzS//yOFDpv8RMuLq6hgBqDZbArQVwICAmkZfw0xZDpzTvnXYbga4YZkPoHdoHzIzs5g2ZaJkJjh16gT79u4R3a9UKpk7fyG9en8sT8eLOGYLwLatW7hw/pzOa9X9/Bg1eqzOa9puYHO8gP0HDMTV1UWyHGgPvkKhIGJ2pFmDHzF7rsn3yknJko6xCcVsATh7Jo5NG/UrLx4eHgz6ZIik3FQroD506QSaWDrtm2NfKIrIrgPMDJ/O6dOnJOXakUCWuIF7h/ahTVvdqY07dQ52rvkWILsAZGdnM3hgf9GUn5WVRULCHdF9NQICzK575Ypl7N3zk85ru76Ptdp3UBwxewlo+UEgZcuVE5XdTUggdsc29Xli4hMGD+rP9z/swd3dnTt3bpOTk6O+bokbWJe2r4kxO4E+lnyz2Kx+FCQFlCAij/vAr/871JgtAO07BNG+g2SLES4uJdmyeZP6/PfffmP8uDF8u3S5ZPqvVLmyXjewLrRt+yBo+x07dWHX97GStwNzfAcRX800uR92QM4EEXlcAoYhJAhFCXyNDFmo58xdQINXXxWVxe7YxqqoFVYpgPps+xGzI1m6fKVOO4E5voNiSEPgONABBAEYCawGrHovcXNzIyo6hrJlxcvDzPDp7IzdISrT5QbWhSlGHmt8B8UYN4T4APXewH4IKUR6WVOrn58/y6Oi6dWjqzr0Kzs7m3Nnz4ju0+cD0MQcC58lvoM8gjrq3idgLhkZGRzYv09U5uZagqaNquHrY1+zr0oFf/79mCvXnmgWewPjNHWAEGAXGpnDLaFJk6ZMmTZdMm1rYmwGsMS8a6kQrIhabbAvpnLq1EmRALi6lODod914q4FjxBzk5qoYOv0Qq3f8W7NYkiCiDVDV2saGfjqcHh/11HvdkA5gjW3fnsuBtq/jzQaVHGbwAZRKBSNCJYkxahaYM2h25HyJUpiHviXg4cOHLFwwT1SmVCqZt2CRyUae3qF9+GpWpEQIFi6YR1JSommdt4AMrXwHPp6Ol2vA20syubsVmDPI3d2dVavX0rZ1II8f58e5GXIDV6hQge07vqd712CSkhItsu2D1HdQ2teXDZu26owI+v2338z7w/SgbejSJj0jW3sNLnC8PF2pU8PX4D1GBSAj3fKgyerV/Vi2cpVIKaxRI8CgG/iV+g3Yuj2WHt1CmDBpssXm3TydIOLLmWzasp1XX9OdF6hN65YW1W8u/9xO4c2QjTZpK4/mb/txKCbE4D1Gl4Dx40Zz9eoVizuRpxTmYYoP4JX6DTh99rzVtv3eoX2IO3dB7+A70SEA/tXFn4y7f/8+3UM688fl3y1uRFMpDAjQncxBG7kCOJ2BoIaRLAE7Y8YxfOIazv78l7rs0aNHdA3pzPoNm2n0pmWfF5odOZ8rV/6UfTewtZT2NbxGmkpmRgZpaeZtOnXzLi1L23nkZGWRnW5e4iiJAJTx9eTQjql06buAg8cvq8tTkpPp0S2Y1THf0ax5C7M75+7uTlR0DPfv3TP72YLkyn/kSR27ZnU0UydPMPn+Eq5uDDhnWHE0lys71nIsbLhZz+jUATw93Phxw+cEtxf/2tPS0ugT2os9P0n2mZuEn5+/xTOIk4JBrxLo5urC1lWj6dvjfVF5VlYmQz4ZIPL8OSm8GHwLKFFCyZqvhzJy0Iei8pycHMaNGUl01MoC7ZyTgsfoa6BCoWBxRF/GD+sgKs8zsWpb7pwULkwyBSsUCuaF92ZOmNS+P3/uHEcPqnBiALN8ARNHduTbOf1RKsWWvCXfLGbKpAkG8/E7cUzMdgYNH9Catd8Ok8S1x6yJZtSIYaIUME4cH4ucQaFdm+DqUpKPhy8hMzN/wGN3bOOXX37G29tbtg4WFh4/emzW/TlZmWwLaSxrH9KTzHc2WewN7N7pHbw83ek6YBFp6fmu0H+uF2g+g6KDSsWjK/J4Iq3BqniAdoGvsW/LJHy8S8nVHyc2xuqAkPffrceR2DDKly1+035RQLIEjJi0Bk+P/Jj96eODeaWun8FK3ni1Jkd2htG62yzuPUjSvpyBkJMuwfruOjQfAno3I1Sv7MXWxR30XS4QKpYzPjNLBGDPIXFC4aF9A6Gu8cbq1/Mjbs8MAkMiuB4vSkrlBowBAoGi/NG+ioYuenu6Ety6tq36YjKyxgTW9K/Iqd0zePnF6tqXAoCTwCtytufEemQPCq1SyZcjO8N47RWJ378Kwo4UpzvQgZAsARNGBFG2TP4XPGrV1P+VDX1ULO/Dkdgw2vWMFAWWAGWB/UB7IM7siosQ2Tm5TFlwWlQWNvxtvG0cTSwRgKH9Aqnpr385S32ahreXceVCX2AJ4AscBLoAB8zucREhOzuXhWt+FpWN7d/Q5gJg9hIwJWIL+46YZsDQF1gCeAA/IuxGcmJHzBaAtPRMOvWZz/YfdecJ0kZfYAngCmxB2JfoxE5IloBNsXEio06H1g2pWlkcWZuZmc1Hg79m5YJPGNCrudFGSpRQsnrxUNzcXFi57rDoEhANlAKWWfQXFBISUzLYtPuq+jw7W+o5XbvzT3y88peA4Na1qVzeU31++MxN/vOP6bubqlfyouMHtQzeIxGAqbO2iM4P75gmEQCAnJxcBo1dSUpqGmOGtDXaGaVSwfJ5A/HxKqX97RolsBSoABTZwIJ7D58x6sujBu+ZtkisFL5er6JIAGJi/xQJkTGav+1nVACseg1UqVSMDVvHpC9Niw80FFgCzADmWNMfJ+Yjix0g8psfmPTlJpO/0KkvsATBZLxUrn45MY5kCWj81ouUcs9fhzRtAoaI/OYHklKesTRyoK6BlTB8QGtKubsy+LMocnJE6+GnCDrBICBH58OFEC9PF9q8H6A+z81VceCUOHlmi3f8cHPND7TRTizxat0KJKaYvlfz1Rf152LOQyIA3y0dZtAOYIgVaw+TkprG2m+G4eJiPOPMgF7NKVfWix6DviYjM0vzUj8Eo1EPwHE+6WEFfpW92b2is/o8PSMbr9e+Fd2zbm4bqlTw1H5UzfiBbzB+4Buy9kv2qXZTbBzB/ReSnpFl/GagU5tGxMaME806/6Mj8BNg2hTkxCLkEIATgGhD2u4Dl+gYOo9nzzP0PCLGQGBJS2AP4CNDP53oQCIAt+485nr8A/WhGe6lhxMIvnDR1yAOHr9Miy5f8iTxqUkdef/dehzcNlWXztEUOAyUlz5VeFEqFdR9oazocClpe91XogM06yR+FT+8Yxotm75srJ5TCL/WfQjv8wBc+OUagV0j2L91MhXKGf8Rv9WwFid/+IJW3WaRcE9k8GiEIGitAHl3VNoJV5cS/PFTH3t3Q1Yd4BLwPnBbs/CXyzd4v+MMbieYFrH60ovVObU7nFoBEi9kPQRBM2zZcGIWcs85VxGm7L9FhX8l0KTDF/z9j2lbw2v6V+Tkj+HOwBIbUBCLzg0EIRD5gONvP6Jp0AwuX7llUiVFLbBEpRJe/cw5TLSrWYVEB7h+cbHFdgAN7gHNgb1oDNS9B0k06zSDvZsn8XZD4/FxFcv7cHTndNr3iiTuwn81L5VFiCVoD5zW+bCDcfX6E+p3WGfWMyc39uDd16vovHb9VjIVy3ng5eGiLsvMyuH6rWTqvlDW5DYKUu18ArRGa4ASk54RGBLBkZP/1v2UFr6lPTiwbQqtmtXXvlQaQQhay9DXQsVf8Um0+Hgb7T7ZSeoz4S0tKzuXnmP30PijLZz/3fQsLAX93pGMMED7NQufPksnKHSeM7DEAv6KTyKw73bu3H9K3KUE2g/+nifJ6Xw05id2Hb5GcmoGbQftNFkIbPHi+RzBqidKGf48LcMZWGImKhX0mbCPO/fzbStxlxKo02oNuw7nR9wnp2bQ+7M9ZOmIOdBGogO83nKyyJmza914mr5jwsYAw2Qi2PWjgP7qQvkDS9yB5dZ2tiCoE+DLrRPmfQW9fBmxZVShgE0L2xHYdzs37qSoy5NTxRZXX283Ni1sb5JhSSIAySniNGNZWbI55HIQds6kAKPVhfIGlixD2KDhcIElJUsoDTp6TCWgmg+H1naVCEEevt5u7IsOplF906K5bW17VCHsEpohKnQGlphF1Yqe1K2lW9P/V80yeq/pwl6BF+HAJO1CZ2CJcfK0/X0nbui8fv73e6K3A2NIloAfvvtcFAP4r1oFlvM+EuEtYQkaA1VUA0viE1Lo/dles55ZMTOQl+vkf4JHpYJe4/aIFD5dxF1KIGjILg7GhBjVAyQC8Eq96nIYgkxlOYJOsFazL0UxsOR5WjZnf71r1jMpT8W/YoUC2jevya7D18jNFWbJMj5uLJsRyPjI49y+l/920LZZgElKoCNMkRuBYLQGyBlYopt+wS8T9VUrlEoFvt5u7F0VTNc2dTi2vjsB1QSP68zR7zHxkzdNqs8RBAAEY047QBQ8sPvAJdp+NIfUp6YlYS4ugSV9u7zE6tmtORgTotb2A6r5sG91MF+HtWDKUNPdJLIkiJCJo0BbYDeCmReAY6f/5IOQCPZtnmRSgGpeYEnbnnO0g1HyAkvaAo90PlyAVKvkxbq5bcx6pk6A/kzmoR3rScpq+/tSu5d52c9lSxAhE7IGlrTuPps7d0VxCHYLLPHxcqVXkO3+kabiKEuAJrIFlhzdGUaN6pJIsnoI7mTTvlxhOiJlJS3D7i8eEtIyJDkcsxxRAECmwJI6L1Tm5I/hvFhb8iW8WggzgZw/SVEOpIuX7xGfILXU2ZPte/+rXXRHjgQRLQEXYzdZyFlAFDgQf/sRzTrN5MC2KboihiT4VSvH8V3T+bD7bH77t2gjRnWEmaAN8IsMfT2BkBDLDeDp8yze7b6Zrh/WEfns7cWV60/48Ygkh+NBBYJ5Vo2xgJBBY1cSvcHwJkdbUMbX0+TAEhDiEHRkLAFIQr6MJYsQTN2FgSyggaMuAUYxN7CkjK8nB7dP0RXh7IsQWNJKhm5NBX42epf9yfPJXC20AgDmB5Z4ebrz08aJBH3YUPuSJ4ItorP0KbN4DrQANqA1szoQDxA+Er4UQLIEREzpYTBBxLqtJzh9XqJM2BVXl5J88XmIydlKs7Jy6DtyKZtiJbN+NkK8wnoZuvUi0AEhktkRviObDFxEsIo+yyuUCIA2Jm4MKXSoVCpGT13LN6v2Sy4BY4HFtu+V7SnUS4A16PsUDsKP4v+A6dKnih7FVgDAGVgCMiaIKMxMHNkRdzcXxoZ9px2MMhEh8ng0jqvUWYXZdoCizPrtp+g/ajnZ2RIz7gaE2IIi9z2cYr0EaBPatQnbV4/BzVViueuNENbuLn2qcOMUAC2KS2BJHpIl4Piu6VSvWk7P7cWHY6f/ZMj4VbqWgxNAEEIoW6HHqB3AiU5+RnAi2TywRG6cAmA5VygCGUucAmAdNyjkn8JxKoHWEUAhz1jy/5Gizg6OKbDCAAAAAElFTkSuQmCC;" parent="130tE-UftCdM7chXd9jr-48" vertex="1">
          <mxGeometry x="10" y="10" width="25" height="25" as="geometry" />
        </mxCell>
        <mxCell id="130tE-UftCdM7chXd9jr-50" value="" style="group" parent="1" vertex="1" connectable="0">
          <mxGeometry x="430" y="300" width="100" height="30" as="geometry" />
        </mxCell>
        <mxCell id="130tE-UftCdM7chXd9jr-41" value="&lt;font face=&quot;Times New Roman&quot;&gt;化學&lt;/font&gt;" style="text;html=1;align=left;verticalAlign=middle;resizable=0;points=[];autosize=1;strokeColor=none;fillColor=none;" parent="130tE-UftCdM7chXd9jr-50" vertex="1">
          <mxGeometry x="30" width="50" height="30" as="geometry" />
        </mxCell>
        <mxCell id="130tE-UftCdM7chXd9jr-44" value="" style="shape=image;verticalLabelPosition=bottom;labelBackgroundColor=default;verticalAlign=top;aspect=fixed;imageAspect=0;image=data:image/png,iVBORw0KGgoAAAANSUhEUgAAAIAAAACACAYAAADDPmHLAAAABHNCSVQICAgIfAhkiAAAAAlwSFlzAAADsQAAA7EB9YPtSQAAABl0RVh0U29mdHdhcmUAd3d3Lmlua3NjYXBlLm9yZ5vuPBoAABuTSURBVHic7Z15YFRVlsa/c9+rSlUWEjZZBG1aI0tACAmuoARQWwjtTI8wjNPuSiOgELtdWm0ttR1xmQYEBNEeaR2nu4FubZO4S1xBmgAJkEBAFkWQQAjZanvLPfNHAmR5tQhVFWLq91+9e+q9U3XPe+/ec+/9LhAnTpw4ceLE6YxQeztwJsMul/i2sjJV27fPk/7uu/729icaxAOgFQenT0/0SeddzJgGcCYAhRsaJHs9flZtRV046dbeby473N5+Rop4ADRj951zRkHKvwHUv0UBA/JIJdg0QYpickLCrAtWv/ZSO7kZUeIB0MTu22Zng8SnABKtytndAFlX1/SJgETnjB9DEMQDAMD+KXlOrYu5A8A5gWxY1yGrjpz4TEKYKbZufTv660C0twNnAlqK8SsEqXwAIEVp8ZmlVOpFw4oouhUT4gEAgIn+PQyrtkd0Y2zkvYktnT4AGCACMkPaGWbbg4bhXDslzxkNv2KFGq0T571X282fYL+WGOcSy2qTlQ+WTnDsidb1TpWK2+5PtsGXEMqOfT7L433ksXMB7Ii0X7EiKo3A2Wvc0xn0PICUZodNAMt6VjnvdU0lLRrXPRUYoD233+MB4AhsJGFWHgZYtilKT6IEWrXqjPk9P5SIvwJmrfHexqCX0LLyAUABMOtID8/ySF/zdCCAwdgUzEbW1llWPlTV05ErH4hwAMws4mSAnw9uRTffVeS5JJLXPV0Y+EugMllXC/Z6LMvIblsTNadiRGSfANKTA6BryItKXB/R654miqx7GcDeFgd1HebRo2C3O8CXhJlkM26NvnfRJaIBQEC/cOyYwrOLFQNWrPAZ4Gmm221wbQ3MI4dhVh0BtEDjPwR2Om7v++c/V8XU0SgQ2QAgCisrRkBlJK8bCQb+cdE/j4y9/CvTMADDCGjHNhuqcq/dMHDla3+KoXtRI6LdQNOmrRG63Q0gKZidIJEfyetGiupLLt5bO2L46N4F7yKpYhfI427K/xA4yQlPejoqfz4RRoLjm/b2NVJENACWjkk7NmuN53EAzwY0YhQsGuf4KJLXjSTS4cDB6/8VACCYRw9e+PyBbXn3dyPmjSeM2iYFOywR7wYuyXE+T8yPg7lN6oyAv3sTnDdE+prRZMCKFfva24doEvlMIBEvBlwvb/jmoM9UXvJIG+xkIFnR/nrnRQOmRfx6cU6LFgHgKmL1sNDSydSE8CV/vWginfI0qD72hkMtHpXE35+yl3Gihgo0VTz7fnuEvXPJRDdAgXR4G2YVeV7RG5wPL59M1pmQOB0e4XKxOMLe1QR+AkC3ZmXJYMxVk7wf563lDj3iFScwouoKzx0ArgtkQMAlmt/zUAx9ihNDBIPuDGnFdAeY49PHfoQIABlh2PWe8UFDz2g7Eyf2CADWMx1aMSb1cHaUfYnTDggQvghllKJoSHX4CvNLyvPfLt0xIBaOxYkNghjPoHG2TkDOc9YAAAicK9jckV9StvAfO3a0nvARpwMiFo9L/JKYZyNAEJznrNH72FuMidsJuEfxmeWFm8tu4ACNwz0HqntU7DuMkorv8EXxTqzftDsdHWgdQk29F6vXbJ2Qk7do5it/XXPX7m869PT/gJyokFkfu0cyKI8IF6ExQbSZJS25pts3FYowHwNwByzGDgjYwCzn5mYOWwsAOXMWX8zE8wBcefz80jThq62GUBQ/qbaX17380N2x+HE/lPySste+PVh942eb9qCyqu7EcVPX4K+vgd1ux+hLMjA6a+Dq3MyMKe3oasQI+44s3LQ1m4WyEODLLIoZhNWvrF63pabe+xgsxhg0dx0Mf2N7U7HbdycY5tBPVrjCaoDGilmLV20p331oGFuM9vnra2DqjdP/zjqrR3XB88d6Ai6LiYIdi7BHAyeNHFZcPHzwGDDfAqB1Xp+2766cUtvgfRIBBpjUhJOTbk1NO8+nqBut7NqLsXMX/absa+vKBwDVftL/w4erul16h/p+jFyLKj9oONhFJHMzh/7JRkY6Mx5HUxfS5zfw8fqdCPTnAQApthafpa4NGTPjqbwf7nLkuWL2ogEMPBXMRtha+m9q2oTLps+bFFXHYsApDQdfM3y4G4Drra1b/6iY4qktOw/e6PPrQb9DRCAQ+MQQIUPXzAcBzD8VHyKJoiKPAXswG6LWb0sGS+15AIXR8yx87vnUl25IvggABMTGxTkJYS1WiUir/NoHlm3x+vVhwWwYDG/1kVZHCaYjMW3j8gdrI+HHqTI2b9EeMILmN9g04a092uKYEIr51QpX1FZXhcOcjxp6mUL5I4NbPo2IPzQl3bpsfOKBYN+PyIwgr08PmSaWlhMtGXZGu64RyJr+ko0Z54ayk2Zb/6U0latnPHdWVBwLg+kfVqcaQnzSpvIBgOkqhfD5rI/qugc7R2SmhBFsoUzMQFOsVWrXoWZ7klulMP4HQ7PusBjS124JMZtw/BbAoCAmAyDUR4OdIyIBQIRDwcpZShh+r2VZAntLIuHDqbJu/r1eEI4Fs5GGYR3ARLxm+e92R8u3kBD+IwyroHMwTysAXMwiv7T8puED+wV+fzLD766FVRchISEBv54xJe/D4t2pp+PHqVJcXGzLLy2fk35Oj+SARiyhua2bKCkpycjfXOYq2rs38MLSKOEqYhVA/5CGQI+73+EugQpPOQAKS8suzi4tX0vMf8ocdHZi21Zy453vq6+F1K17CIMHngsC7vErvt35peVzVq5kxdIwChRsKp9wSHWWEPOCzEH9LV9hUprw1R2DNK2HSrKHn09EeMxT69mZX1p+U1QdbgYzU1a37TcoFFYeyn+oAQHWt51CL6BwU/m5LPhZAFObH//kn7tQXL6/0UHTgKH5oPt81qtqATicDvx6+s+hKC1icKNgnjMxc+iXP9SvcHlnU9kQKbAAwFXNj+d/sg0V+xrz/dI0YPp90P1eyycXAHRJTcHc21u2vRhYI4SYO+nCwVuj4z3w9uZto4SghWBcurnhLBzSgq7BAYEKF49z5gYuD5P84uJEUh13A/QIgDaPTEPK7+a/XOjwejw9gmaEAJCi6rdMGbutf98elsocDCpQme6+NnPwvnD9C0XBli1dIdUHAM6DRZ/f4/N/vejV93poXl8ah1j5oao236xbJ+5JTXEOsSiWDLxhJ+M31wwfHrERpLe2bu2vGsozIJ6GpnqrN21YW3s2ZOBq1CT4sqXjkgJmXU/0YW8pYkcifP9GzBcRQUjJWxR/4l9fuBb1hSXl14PwHGDZXfIw4znNl/ZMVZXP7JJmLzQ1bbz1FDKCYlN3KyyvvmvilXvyS7dNJqYXAPykpRXnmsTjC0rKX/DY+PdTMzIampdfmvcHpx3qBME0SgK9TL+nh2mYB53Jjnlr5t/bot/rYhZZW7b/EpKfB9iqu3oM4GeQkjA/gYXTUG0fmoY+ynL5DwGKmlBiT0nK2TU6qy5ry/Zfgvk5App3BQUBN+qsTi4o2TbPY6P5UzMyWmgIHD3KXRS792cCPBwQPdy63kcA5ZrCz/ZPTa1ubrty7X5nYmLtPTDpYRC36HGkKDoykyuPbmro7eS28nb1RHzT0pzAld/0kxpHAkH0N7SpCBzLTD5yoJe9YajFdxmE1WTSfZNGDmmxVm7s7U+frwl+VJrmJSB0AdhLQtkubOpzX774QJHlDwzwZAFwgIkeyr1w8OtEwJVzl8wg8OMATlQmSwlv7VEQwIrNXuQXxuSNy12egpJtOcRiARNfaHFeycAbirT/euLI9BYZqktnPJ0pTP6tZHMkS+5CRHUgUUok5q19+bcbmtu+uXlzmo0SHgR4LgArqZmdYLo3N3NIITOrtR7fA8TyfoBONMwMyajzaSCA7Tblb33SUqYRkRnoBmnCC9ALHhv//qPD/R02Vm8FYRQkiEEbbWy+unBCcshFuHR3kaefZGwG0MPKQIBxWepBpCgng5iADVKKOZNHDl4X6gLhkl9ScTZgPE3AL2HxapKSNyxfva66weO7xur7mrsBhr9x+YKw2Wtn3XjVh13TUix1CBhYIxWZd92wYVsi5X9hyfYLJPi/CWz5vlVUseai/v0cqqJYjaaiwa9DMxvbSwpR5bZDB3dJk0db+x+5VyTNLPIuJeYZwYx62rzITjkENI4CuoqHD3nFReE1QX8o+SVlowlYCGBk8+OfFu/Ghm2BF+UeH7M/TlpaKu657dqWRozdDPrN5Mwhb0XU6WYUbC6fBOI/ALig+fFBvXqiZ0rg3qbfMOHWTmYbDdNERWWbG3gjA3Mnj8gIOY0vXASxdcQ2p0p3wGCxRPjsg3JHZCyPVuUDwOQRGV9MGj4km4luBhoTTNW1Hmws+zbo94TaMiVfU1OLL4p3Hv/oZsbjSWmJQ6NZ+QCQmzmksLfhHcpEcwHUAkCq0xm08gFAFS175KqioFtS02udcZSJ5np2Drk4kpUPADRrjcePECNhAKCr3Hf5FUkxXd/3fmlpkibV+z5aX/FI6Y4DwXMEDHiOtWx0J6ckIe/Oya8LG+6flJERNFsZDf6+fnt3W4J8NKNPr7u7JyUG7XFJyajxtdSbkiy5/PtDixyG49Grss+LyoAZzVrj+RrAeSHsPHoXZ9rybAo+5hslxt+7ZK8p5U+C2bA04a1pOVpHIIju9Ynr5s+3zkPHAGamerfXzUDQMQ/DZNT5WwaAQmSe0zMtqqONgoG/hTIi4B/tVfkAk2nK3qGsrEYbGQx4uwcdpo42DQ0NPUNVPgAYFgkzk1nZz9FdlynYps0DEEzB86hB1I5rA4lBoTU5Ao3WAUo7BW4jbCGUYYVmJUULoF+IKfuni1g6Ju2YalIOgDbpVwJtI0XmLMtx7oumE2EQ9PpS12FqVnqNhH5H/WXRcSk8UlJSqgGuC2ajmSYM2TbGhSCdKLqqqioALLzK+S2A0bM+8lwKwsUgCIBKK6scn6yaSlGNwHBg8LsEGmxZJk34G2phlblTbLbvV732u3ZV8iQirm3wvIdWYyfHMSTD7bf+ixUhoq5B3KKBsWRC4joAEUvuRAo2aDGpmIVWmTZT16G5a8EBBpygimdi4F5oBP4bElPQKsGlGRJuTQ/4flOgPBht1zrMSp2xcxc+zKDfQ0pIXYeh+U7M07dC2G07v3rl0YExdDEotW7viyzlXRKAYUpohoQuA6dT7Ap9dnb3tCuj7VeH2S/gkwXHnnaSXuWtOQq/uy5o5ScnJ/nZKUfF0L2QeBMd9zX4jf21Xg1uzQhR+aK8b7fU8bHwq8M8AQCgoHTbko8/3zbzq00VMC26fSQEhg4egOsmZH/w86yhlmMG7QkzK9/X1K/QDfMGyW1vPkWQYVPopT5dU2fHyqd2ndJ8KowfPQw5l2WgpPwbrN1UsbauzivsNtV3+ahBY7OHDYDNpoLO0LgmIhPAjfuZp9d/d+jvihA/UwTBkAxp8p8z+ve6Jdqt/tZ0uAAAACEERg4dgKxhA56cNDzjvX9sLDtfUbCrvf0Kl/5E3sKSsk8Z+NnxY8xcNPSc3jHvsXSYNkCc6BAPgE5OPAA6OfEA6OTEA6CTEw+ATk48ADo58QDo5MQDoJMTD4BOTjwAOjln5qhJAApKty0B08zd+49ix95D+Prbqu91w3SaPg8lqJQ66IL+uOryoVAV5YNJI4accaOBAACXS1xZ0+3fz+qa8rCmmxk+TYfhdUPTtGPSxNIvX9F+F0v9wQ4VAH/6dP2KD9fuvPm7ypoWx5kBX91RsGnCZrdj0oSskoemTbRcedye5MxZMFCSWEmglmsVWcJbUw1mCaGo9YriuPrLVx74KhY+dZgAGJe39GxV5a2ablruTWz4PNA8jYuIiYjt9sQbPn/5wYCbQseanLzFGcz8BYA0q3LN0wDD17i2kUgx7c7EKz9fdn/UdBKO00HaAEySjVWBKh8AhO3kdEFmJs3wvZ413WW54DXWjHW96mDmtxCg8gFAaSZEyWwqmt/3PlzRl6DrEAGQM2fxLwBcGsyGWiqNgE1TTWB1RRTdCp/ahl8BOD+YCYmWdc2mnnT5QfuCaLoFdJAAYOIbQ9mQxdRaUzdiMq8uNBTaf4uXMZtmOCpgp0WHCAAwXRzSRLadW8/SdLSnkCMATHG57MwcskHKFkJUpmF0yy8pz39n69ZQazdPmQ4QAEwghFQiDTRL2EtsuaAkVtRUde8RlhClhf/MEpqm5UpTbM8vKVv4zle7Asq9nSodIACIQQi6tAoM6H7rtYGm0PZFwamwcWj2mpBGzDAt1jYSERLsNgCwEXCPdGg7CkrKpkdSTu+MD4D84uLEtGRn0ADQfR6whZavEAo/MOO6dt2UYtac0Q6nwxZ0bb/mcYMt1gnYE9pIDvUB8FLiBeXr80vKLOVjfihnbAAwMxVsLptCNuf2kUP6BxRzNjQfdG+DZVmfPt1JMcXu/M1lrnd27bIScIoaxcXFtoKSsumGjoqh5/cNqISq+9wntI1aY0+wfw7gc4uiLAI+zy8pzy/cVB5S6DoYZ2QAFG7aml1Yuv0LEFaCcc6FF/RBSlLL+mMpobnroTUEeDgIQu74LABIIsJj0q1tLdhcFpN9fppUSDcBeAlAj1FDz4Hd1rqb17ioVfdYi3iSENKru6/PHZFxBRP/HBYrpAmcy4LLC0rK560sKwuuQROAMyoTmF9ScTbBmAfgP9HKtwOVNfjft79iaRgkDR2moQVU8QQIl140BFeNttSGeB+mzMvNGrY9wu7j3dIdA02YfwBjYuuyir2H8NYHm1lKg0xDb5LPDez/8OHpb17V/5dTpjatzg4l1AngOyZ6uFFOz6pTHOhKsYSZZn7i7mUoRMvHJB5Ck6Mry8rsToPuIuYnAVjJrx8E8PjTy95OMry+55llkCcXQU1IWPTI7H95SzIWALCKAgPA/7ChPjw5e2BVoDMdYk5y+P29vLpe3yclpfVuFycIRyuQIH/91ItvjzV8/nuBwPswEwlMuDITl45MBwjbwZyXO2Loif2J3ikt7Wey+l+B5PQArCfCnEnDM9bv+s+7u6g2pZuttrq+35uvHbWwjU0ATFnJSq/u3jwmzAHQr+nwAQJeGNd1b4Wd8AcAP7X4qhegF0yHeOq6QYPqAWDczU+e51XFG9LQs5nNE61hIiFJVXbAod721ZKH1gNAUVGR6u561m0Afg9YdiWrmeiJ5OrKJTk5OQYAVFdXpyq2hDwQTQMwEAC8ugmfaep2EutImDf36dp1H3BShZSYnwXQy+L8NQDPE0kJCyamp/sBYMysZ0cafm2FaegZkCcDmYTCZ/ftSf9y9Sh0S2ul/8tYrUDc11wXsHBL+RVS8gICWuQYVI8X3TeVcOq2HccUXesGAFxXC+nTfGS3f0hS3nH+m6+fUNOKegC4XCyqrvCuYuAXVuW9bB5kplS2dYSwykqFtNmZxWV3Jl7IwhzMKu/pf1jbvGqVyzIZ8F5ZWTddx2MEzIT1crgdRMi74qc/9UjiVWgp/QoAqPVqMJkhBEk7iwc27D+wQQi5AMAIi/NJBt6QirzvumHDLNU6s6ZPtzmVAReaEhfYCDs+W+YvzS+9fhIxLYD1zaAxsEw6lEeO3wytAzBl9170/agIQmulisMS5uHDgJSAIgzFkXjzeatW/B8QgwCYucY9k0BLgtkMSTyKcx0nGnMlJGjOpAuHfBZpXwq3bB8mpVxAwLjWZakOB4ae3VsKIsvXi88w4WkSciQARxoaUFnXtgFKhE+lyXMmjxxaeio+NnsdPgHAKvFzEMDjzcU6V5aVJfdfu+mPPdcXT6UA7SJZVwd2N/WWSDAl2qamr3pjddQDYPYa71YGW2kNnyBZaBiTdqCaiZ7wVgxePDXKsjT5pdsmk6T5oEZ5PCEEss/phwQ1cH7FlIzaZjp+REBFZSX0k+JOp9QIC8R7xeV9DJVdCLBjK4iKIc05uZnD1n572+y+OokKWDcOAQDs90FWn9ShJlXxH0no2zWqAeAqYvUIe/0I1d1kxoikyt53XvLTkOLGkaK4uNj2vS1xJjE/0a9rapcB3bsFtZcM1HhbbhvjM3TsPnzEw4znvN4uz0y9rH/E9QgLtmzPgpQLAVxuUcwgrL5g+WsNis97a7DzsKFDHmnZjqXExFeiO978KSSugESoACAyD3gHWLZSo0V2drYOYOF7xeUre3fpUgrrRmIz2t7USXa7SZKG5AZsp5w+uRcO3sjMYwJI9hMkT2ER+oljaWHo10U1EeRykQTwzzBMi105ZLWvXNS5JmvwIadNDblnkbR4t5qSlazMwQG7kZGCiDg3M2OVx4ahYPwXmnZsBRpb/arHE/JJzlZCmobZPeqZQCJ+LqQNENImWlRVIRlhaCVrhvU8TXm0PpyNmyLC1IyMhtzMjIcFGekMvA6AFUt9xLaw1WAZs4h6ACzOSXqLmQPvy8t4ZvG4xJBytdGiZ0+qZyDou5vRKOduRZ/uKcFUVqPCxOHDv5s8IuMmZjnOSLCHFMJk0wT72v5EIjJjMhbw4vikR5jktQC9D+AogKME/gDgSUvGJ0ZdCy8MNgQrdPuttfxUgYZYa/o0Z3LmsE/qv8seLlVlf0AjBmRNjXXWWbEdOqPGAtqLGrf7V8S0rPVxBuDRjIB3v02hv/frnvZv0fYvFHtun/Mkgx9pU8CArDlmefcDACUlzosHAABmtte5vVvQlPoFAENKeDTDUsMXaNTxTabUHt27U/DJKjFg7y1z06TgChA3ZTAZ7PNB1tcDlns2A7DZ69Ptetczcjg41hCRpkCZ4jVMX4PfQI1XQ51PD1z5RKwQbjgTKh8ABqxYUCPZfxPX1pqyuhqyshLy2LGAlU9CmMKW8DNatSo2bYCOQHJywlZF8BRDSr9Vl+84gkhzqOIX/bqnrY6heyFJf3XZ+wbTbNY1w2p20XHIZmsgR9IV569+dS1whs0HOBPYy+xIqHEvNgx9GgNJkhv/JEHw2ISyirulzOxLZD2F5wygYvL0HiLB+yJ042rWjS4AEwkhoahHWLX/JX3YT35DLteJR0M8AAKQX1I2m4BFxz8T+N5JI4bOb0+fTgVuHLYI+EiLvwJ+5ASrfCAeAJ2eeAB0cuIB0MmJB0AnJx4AnZx4AHRy4gHQyYkHQCcnngm0YPpn7j5nkfZXr6GO8bECB5lwCn1dleGYsmx84oH29i+SxAOgFXd/5B8ihfkxAKsNqw+TIicsvjJ5a6z9ihbxV0AzXEWsSmGsgnXlA8BZbIqVriLukJttWREPgGYcYc/VAA0JYTaoij1tVv92VOIB0AxiXBSOnQzTriMQD4BmcJg7ThL9eP63H80PiRCbwjEi0MZoOxIr4gHQjJ5Vie8C+DqE2V7yOQti4U8siAdAM1xTSZPgaQCOBTCpEYxpiyaSP0B5hyMeAK1YOi5pIymUBeD/AByf++cB4y+CRfai8YnhrHWM82PA5WJx1+c1XV0ujt8oceLEiRMnTpwfFf8PG5Gfo5JDU5oAAAAASUVORK5CYII=;" parent="130tE-UftCdM7chXd9jr-50" vertex="1">
          <mxGeometry y="5" width="25" height="25" as="geometry" />
        </mxCell>
        <mxCell id="130tE-UftCdM7chXd9jr-58" value="&lt;font face=&quot;Times New Roman&quot;&gt;&lt;b&gt;跨學科學習&lt;/b&gt;&lt;/font&gt;" style="text;html=1;align=center;verticalAlign=middle;whiteSpace=wrap;rounded=0;fontFamily=Helvetica;fontSize=12;fontColor=default;" parent="1" vertex="1">
          <mxGeometry x="470" y="180" width="154.63" height="30" as="geometry" />
        </mxCell>
        <mxCell id="W_6RqLE3xj3r34jLqila-7" value="需要大量的先備知識" style="rounded=0;whiteSpace=wrap;html=1;fillColor=#d5e8d4;strokeColor=#82b366;" parent="1" vertex="1">
          <mxGeometry x="586" y="507.15" width="140" height="30" as="geometry" />
        </mxCell>
        <mxCell id="W_6RqLE3xj3r34jLqila-8" value="理解抽象概念" style="rounded=0;whiteSpace=wrap;html=1;fillColor=#d5e8d4;strokeColor=#82b366;" parent="1" vertex="1">
          <mxGeometry x="586" y="473.15" width="140" height="30" as="geometry" />
        </mxCell>
        <mxCell id="W_6RqLE3xj3r34jLqila-9" value="&lt;strong&gt;專案式實作&lt;/strong&gt;" style="rounded=0;whiteSpace=wrap;html=1;fillColor=light-dark(#9fdaf5, #ededed);" parent="1" vertex="1">
          <mxGeometry x="760" y="473.15" width="140" height="19.85" as="geometry" />
        </mxCell>
        <mxCell id="W_6RqLE3xj3r34jLqila-12" value="&lt;b&gt;翻轉教室&lt;/b&gt;" style="rounded=0;whiteSpace=wrap;html=1;fillColor=light-dark(#9fdaf5, #ededed);" parent="1" vertex="1">
          <mxGeometry x="760" y="495.22999999999996" width="140" height="19.85" as="geometry" />
        </mxCell>
        <mxCell id="W_6RqLE3xj3r34jLqila-13" value="&lt;b&gt;遊戲式學習&lt;/b&gt;" style="rounded=0;whiteSpace=wrap;html=1;fillColor=light-dark(#9fdaf5, #ededed);" parent="1" vertex="1">
          <mxGeometry x="760" y="517.3" width="140" height="19.85" as="geometry" />
        </mxCell>
        <mxCell id="W_6RqLE3xj3r34jLqila-6" value="程式教育" style="ellipse;whiteSpace=wrap;html=1;aspect=fixed;fillColor=light-dark(#b1d5f7, #EDEDED);" parent="1" vertex="1">
          <mxGeometry x="470" y="457.58" width="95.15" height="95.15" as="geometry" />
        </mxCell>
        <mxCell id="W_6RqLE3xj3r34jLqila-16" value="實驗描述" style="rounded=0;whiteSpace=wrap;html=1;fillColor=light-dark(#fcdfc0, #EDEDED);shadow=1;" parent="1" vertex="1">
          <mxGeometry x="160" y="1222" width="260" height="30" as="geometry" />
        </mxCell>
        <mxCell id="W_6RqLE3xj3r34jLqila-17" value="實驗組 (N=48)" style="rounded=0;whiteSpace=wrap;html=1;fillColor=light-dark(#fbeca2, #EDEDED);shadow=1;" parent="1" vertex="1">
          <mxGeometry x="160" y="1272" width="120" height="30" as="geometry" />
        </mxCell>
        <mxCell id="W_6RqLE3xj3r34jLqila-18" value="對照組 (N=48)" style="rounded=0;whiteSpace=wrap;html=1;fillColor=light-dark(#fbeca2, #EDEDED);shadow=1;" parent="1" vertex="1">
          <mxGeometry x="300" y="1272" width="120" height="30" as="geometry" />
        </mxCell>
        <mxCell id="W_6RqLE3xj3r34jLqila-55" style="edgeStyle=orthogonalEdgeStyle;rounded=0;orthogonalLoop=1;jettySize=auto;html=1;entryX=0;entryY=0.75;entryDx=0;entryDy=0;" parent="1" source="W_6RqLE3xj3r34jLqila-21" target="W_6RqLE3xj3r34jLqila-54" edge="1">
          <mxGeometry relative="1" as="geometry" />
        </mxCell>
        <mxCell id="W_6RqLE3xj3r34jLqila-21" value="學習目標" style="rounded=0;whiteSpace=wrap;html=1;fillColor=light-dark(#9fdaf5, #EDEDED);shadow=1;" parent="1" vertex="1">
          <mxGeometry x="160" y="1322" width="260" height="30" as="geometry" />
        </mxCell>
        <mxCell id="W_6RqLE3xj3r34jLqila-28" value="" style="shape=flexArrow;endArrow=classic;html=1;rounded=0;width=7.704918032786885;endSize=4.027868852459017;endWidth=13.735747820254863;fillColor=#fff2cc;gradientColor=#ffd966;strokeColor=light-dark(#000000, #6d5100);" parent="1" edge="1">
          <mxGeometry width="50" height="50" relative="1" as="geometry">
            <mxPoint x="217" y="1300" as="sourcePoint" />
            <mxPoint x="217" y="1330" as="targetPoint" />
          </mxGeometry>
        </mxCell>
        <mxCell id="W_6RqLE3xj3r34jLqila-31" value="" style="shape=flexArrow;endArrow=classic;html=1;rounded=0;width=7.704918032786885;endSize=4.027868852459017;endWidth=13.735747820254863;fillColor=#fff2cc;gradientColor=#ffd966;strokeColor=light-dark(#000000, #6d5100);" parent="1" edge="1">
          <mxGeometry width="50" height="50" relative="1" as="geometry">
            <mxPoint x="359" y="1300" as="sourcePoint" />
            <mxPoint x="359" y="1330" as="targetPoint" />
          </mxGeometry>
        </mxCell>
        <mxCell id="W_6RqLE3xj3r34jLqila-50" value="" style="edgeStyle=orthogonalEdgeStyle;rounded=0;orthogonalLoop=1;jettySize=auto;html=1;" parent="1" source="W_6RqLE3xj3r34jLqila-34" target="W_6RqLE3xj3r34jLqila-49" edge="1">
          <mxGeometry relative="1" as="geometry" />
        </mxCell>
        <mxCell id="W_6RqLE3xj3r34jLqila-34" value="實施方法" style="rounded=0;whiteSpace=wrap;html=1;fillColor=light-dark(#9fdaf5, #EDEDED);shadow=1;" parent="1" vertex="1">
          <mxGeometry x="160" y="1372" width="260" height="30" as="geometry" />
        </mxCell>
        <mxCell id="W_6RqLE3xj3r34jLqila-35" value="" style="shape=flexArrow;endArrow=classic;html=1;rounded=0;width=7.704918032786885;endSize=4.027868852459017;endWidth=13.735747820254863;fillColor=#fff2cc;gradientColor=#ffd966;strokeColor=light-dark(#000000, #6d5100);" parent="1" edge="1">
          <mxGeometry width="50" height="50" relative="1" as="geometry">
            <mxPoint x="287.83" y="1348" as="sourcePoint" />
            <mxPoint x="287.83" y="1378" as="targetPoint" />
          </mxGeometry>
        </mxCell>
        <mxCell id="W_6RqLE3xj3r34jLqila-37" value="教師講授&lt;div&gt;線上資源自行搜尋&lt;/div&gt;" style="rounded=0;whiteSpace=wrap;html=1;fillColor=light-dark(#b1d5f7, #EDEDED);shadow=0;" parent="1" vertex="1">
          <mxGeometry x="1030" y="1631.7" width="120" height="40" as="geometry" />
        </mxCell>
        <mxCell id="W_6RqLE3xj3r34jLqila-38" value="自主學習&amp;amp;GPT輔助" style="rounded=0;whiteSpace=wrap;html=1;fillColor=light-dark(#b1d5f7, #EDEDED);shadow=1;" parent="1" vertex="1">
          <mxGeometry x="300" y="1422" width="120" height="30" as="geometry" />
        </mxCell>
        <mxCell id="W_6RqLE3xj3r34jLqila-39" value="" style="shape=flexArrow;endArrow=classic;html=1;rounded=0;width=7.704918032786885;endSize=4.027868852459017;endWidth=13.735747820254863;fillColor=#fff2cc;gradientColor=#ffd966;strokeColor=light-dark(#000000, #6d5100);" parent="1" edge="1">
          <mxGeometry width="50" height="50" relative="1" as="geometry">
            <mxPoint x="217" y="1397" as="sourcePoint" />
            <mxPoint x="217" y="1427" as="targetPoint" />
          </mxGeometry>
        </mxCell>
        <mxCell id="W_6RqLE3xj3r34jLqila-40" value="" style="shape=flexArrow;endArrow=classic;html=1;rounded=0;width=7.704918032786885;endSize=4.027868852459017;endWidth=13.735747820254863;fillColor=#fff2cc;gradientColor=#ffd966;strokeColor=light-dark(#000000, #6d5100);" parent="1" edge="1">
          <mxGeometry width="50" height="50" relative="1" as="geometry">
            <mxPoint x="359" y="1397" as="sourcePoint" />
            <mxPoint x="359" y="1427" as="targetPoint" />
          </mxGeometry>
        </mxCell>
        <mxCell id="W_6RqLE3xj3r34jLqila-41" value="" style="shape=image;verticalLabelPosition=bottom;labelBackgroundColor=default;verticalAlign=top;aspect=fixed;imageAspect=0;image=data:image/png,iVBORw0KGgoAAAANSUhEUgAAASEAAAA2CAYAAACIuS+MAAAAAXNSR0IArs4c6QAAAARnQU1BAACxjwv8YQUAAAAJcEhZcwAAFxEAABcRAcom8z8AACmhSURBVHhe7V0JXFRV+74gAyjCgKZlufSV5ZI7CuYSKqtLapprfS2uuYBbKW4hrpmKay5pmZqafiqIgOCSmrtZ6d/qK620Rc0VFAVUmPf/PnfO6Mx4ZpgZBtQ+nt/v+d3LuWe7wnl837O8VylGMYrxv40DSsWSSZ6+VRI12gabPbStEty924K4RxqeIY/IXoxiFKMYBUOKUsYnyd23bbLGN26Lu3Y/C81FvtI2d1/ayfxSEPdIS+RnTOTZjzJbuSzqENUVoxjFKIZtSHPzDkxx1y5O0mjP7WBx2c3czuQ0gghBbDabEWl4hjzIizIoizqS3X2WpLh5NxbVOw1PMEcxjzJzmPQQEv1C/9DPCswHjqyQppVvhgS2zwwOjM0MCUy4ERL4Q2ZwQHpGcICOmXed7zn9Bzy7GRoYmxPa+GVdWMNKongxHiJQiFJZF660Z8bqQpUE5o8UqmTwVQeK+x+Zm3VhykTkRRlR/KFEgpvvS1s12uRUFhKIyFa+mouNvYQooa5UZopGm5LEbYjmCoRezOtM2cB/WIn+9mYWObIjmjybFRI4lnk0MyRARxFNSGX4i8QiQyxEdC04QCXukYZnhnwsUnkoizqyWzZ4VlRbjAcAXYTyLAvKWApTjvJVR20UorbM1sxwZhgzVBD3SMMz5OG8KMP8hoVpHF+rimofONaVLPMUi8XKNBYKuFcyS6egRJ2oG22gLbQpmrcbbzFlg/xR4dvMIsHVlgF1s0MDV2aFBmZT66aUF/aiieDYSpTRcVnUkRUakJ0TGrgis1VgHdFMMYoALD51WDRWsjWTfVd0jAXHVqKMECWuL4e5itPriWYeCBI1Pt3Y+rmwh8UB7pRMQJxJtIG20GaCxqe76IbNKMfMZsoG96NC9L88s9DwR+PGZVh45rPlkkutmxC7X1JxcYSoC3WyuN3JCQmch7ZEs8UoBOgaK2VYeOazWOSq4uOI8Fgi6oIYhSu5oo0i/10maXxmwjqBq5RgJhaFSbSFNtH2Fo3PLNEdmxDNlA3sR414j0IBC0VbtlTOwGqBYGRIhKSgRJ16MWrKrlvgmSstAtqK5ovhROhClDZsAZ12uviY854YndEFK0Xyu1yvKO48+Dd+BREwEwgZE9y8aZPiQRt4/PzHjBsVF4pXPGmzxkda1hrRNvqQpPHdhD6J7lnFcaZsUD9qPMZ0Oq6HBMTkhb+oul2FIT7mRBu5YY1VMbrWquFE7oKLvifFKCjYKnlfdZtAmXAUBiOY+vYmiG4UCjDYkzTaVAx+mTAYE8IDodnEIpP2bE3a36YjfftOFH0/ahydeG8MfdNnAO0NaUNbK1VlMXJT86qCJKnLGvVCpE21RYhymbJB/ajxDtOpyGwV8FlhWj8yoh1MYN8KbXwto2VAD9GVfwT+aFyx5O3aVRrfrldx4M26FR2ewHQELEDLqR2LQWFaP5aINrlt9EF0x+lI1Phssi5AvqqQQFBSn65GJ8aMpyuHj1BudjZZwu3r1+ni7j10LHIYJT9eiVhMKMGllFqXvI37qfZJ4xMvumkRsgH9qNJpuB4csI7aNCW+SsWisAjRyw5t/OP5lo1eEF35xyDjhUrP5tStTNToGcqsXbGnSC506EKVdaoAyQSiKAkh4r6IbjkN8RqfWXvzEQaIz5bHKtDPs2ar4mIvsi9coO/HxVBCKV/VfbNXiNBH0V0pZIP5UaVTkBHcaFlRC1AmU7W6QgNT/6kT0xSkuF2vU/EXavgv4usckVyo4EG/tEgFKITZSlxlzyFEIcoy0b0CY6O79lV1Ilgy+FW6easWzL42HejGmd+FpJji24TN9Fmf/jSjVRjFhbWmtUOH06l9+8VTU6QfP0FfBjZVRW2zRtKehOgb+oi+im7fB9lgflRZYKS3DHgPYuCIAGVhYtloL9B95GfIY1wG7pdajtu8ERK4QHTjH4vrtSuuEyK0XyQVGniwv+t0AWrGbMwMYDZltmRCcOByvcTE8zAXoiZ8bSHSzeuAEAUr74luOozNXl6Pb3H3uYoVKdngx8QzBOj4sPeEhJji3I//pektQ+gtxVVlnxIe1NfVne8V6sf3n77xFmVlZIjc95Cbk0OHu7+u1m2rEKGP6Cv6LLpvAtlgLgivMbczpzGx/6g1s5W44uepTDxHPln5grBAuNLCv+ntsMb3CUV+zMV+HxYZtmZuMPdcD240O7NVwCC2qF4DcX8jpFEcniEP8qIMyqK9O8xrrQKGim48sjj/olL+WpDL5LP+SimRdB8ya1caRv5PE4tRRnrdKr4i2enQhSlN1ElhZ84BQWCWjSLaH0+0hAd2VFOiDr5EzTm9LrPnv4gOJhL9+TPRthVE7csQW3/314M+cd90LZSmorsOYZO792rszZEuw2t8VJE4MWqskA5T/HLgIEWVq0BvKyVosO9jFGnEKFx9yvAzhaY05LFw/m9RyhSHe76pWkSJFkTQmOij6Otq0X0TyAazI8RRin5MW49SIF9fJsrJ6nOEDuN0UJAnC8RJHVsrtkxCI4+6C5oFhUXrRHZI48FZNhzF0EUEVLwZEjAYZahNM9Rx7Wpwo3bi8SOL35soT15s7nKWwl3oXDMXixbd9TqVmuXVq0J59SpTVt3KBRqElqCLUDzYDTvp1FWwYFxLEGVcJLp+heiGmFfJyyU6/T3RhkVEf/xXn2bA/k164ZK5Ztw37uMpFilP0W27wG5WYxwulbthvqo4HGGRkOHir7/R0CcqUh83T4r0K28iQhCgIYLD/MpRH65nRvMWdIetH3Pk5uZSavNWtJHz2CJE6Cv6jL6L17gL2WC2h38y32AWBCiPemT120OHkR7UaALmgWSCY051BSviRWwuzICg7AoKchPV2AyUyQ4LHHApqFFDkfRIAwP/QnOXTRTsQjktXejPpkon8cgExNYPrCBYQ9fYKhLJTgULxgSnu2Fwtd54Rj/6hr/EP3sQ9atHFNePrZ7Pia6e0z8zxq1sos5+erdMVifcslAlVnTbLmzS+GzHPItssGNZPa1qTbpz44boyD3odDqaGRLBLlcJqwI0VBBC1Jv/SeMtWFSXfv+dlpcpT1tcbVvCR5/jNdpt4jXuQjaYbeUmprN2KqMeLOXJ2rGVDuFmr2pP3mjZ+GZ2S72LlB+F9XPkWnCj50UVxWBcCFJKX2ru8guE6Epzl/S/mitSyzCzTsX96rxQ7YpfiCSnQddKeYpdsZvq+S7ZwHeUmAea9Kp+5L36mN7CAQOZ9ZidOY0HuAku/8V/K576iWpZndxH7msW+iy6bxN4EPvr51gkA93NhzYoLnR+a5rohCkOfr6a+H98Fp9y+QsQczjnG1K6DA329Kaz3/8gajHF7vkf0TyuM8WG+SH0GX1HnCLxOipkg9kWFtbqBuqVtWcLHcKtL13i6NNylNGC/d/mLEQhcvFRLaDWTehGSMC2s/7+Fuc9/pfxR3MlICPIJQ9CdKGZyx6RbIIbdSrO0YtQpZP8S3MVyU6BLkSJU3dDywZ9QdiIuWkO+zJ/6i0b1T0z4ovM5ePEsGTATZvSU59unM+c2FUdrMwW3bcJm919PsYJdtkghwDtC20nOmGK3Dt3KNY/gPpoSt4VH+sCxFdtOb4vR/14fK3q1VfUZIrbt27RtJp1aYmLh01ChL7H8zuI11FhPpBtYWGv4nzElLWbH+1GRpLid2eHkk5HFbq1wpuut/GnjCZN5ALEFtANtoAwfySKF0OCc02VEToWIQjR2WYKdn2bILN2xR7U4Gm6WafSnew6lf8lkgsMHtB+7N6kO90KArHa9fPXRHs36FfGzJ9j3geW0bBmRLN6s6tWR1/GPJ859X3NQN/Fa1jFeqVc6Xh37SVpOA6NdSvoh+07qZeLhgZrbROg4RAg5nDOP7SUlkaVq2Bxknp33Bwawr+C5SX98hUi9D3BXXsR7yJeSzqYrXEH0xzhTEdPDfszQ/S3JtjJlLVvjXbj1jalD32t0J1tCuXuV+h2ggdldq9FGY1N54cwCc0uWPrZEP+HOnbMwwK2gpIgQjdauNCfzdXV0bu4VvvJaixAOmpQha7XeUo6d+QI2ArqUyhWENypNu5Et7KIFg6Vi5CBWLaHiwZBkj2XEdZQiLpIky8S3b1bI6iYbHBvUtxp27O1KO/2bSENpvh88BB6i0XKZgtICNAIkNMGcNkjK1eJ2kyRfuZ3ep/zjC3lS595qjGGpH00EO+wid9FvJZ0MFtiBtPcf63BNDzfx+zABEowMSdQn4nZcFzxs8H8foV5gGkoaz640Y69y/h24/Z2ZQcdZBHaLoToK9y70o13ntMLUSv9cj2soMstGyLm0v88LndVhp7rpFQRP0pxNkh57Epzl/Pq/NBLLmf/ClbKikfKUX9/zfXaFU/DJcusU2m6SC4weCDvVGMByQZ6QYgl+L4v6EdbVGO90MjyOUrEJOK+i9ewigSNz2xLrhhWxL7tH6nvpxl0eXk0qWFj6q8pZZcFZBCg95iDFVdaY8ElAz5uEUKj2SWb4F2GVrAQJVsRIvUdND5x4rWkg9kS32WaowvTPB82ov3MNA8Rgp9/YuK5cTp4VxWNgA1d5vms0S7QdkV7e5uSRbuECAkhusM/Q4yyxlZSXbPc4KaU0SrgO1HsfxosQG9TH4Wud1euXuupvJsSoXiIR/fhr2ZKCCwhMT+UKJJVsPjEi3mhXSKpQGB3SMuuWJbTXDHM+WCPDwSnJnPaa0S3c/RWESwdPDOfF3KUYeoqWRbeQbyORbAbcxBhVmUDGyL0+8rVQhJMcfXPv2gou1MDS/vabQFBgEYyh7qVpNmBTe+fgBdIGT6SorkPk1iEJnmXpZUQIkk/QfEOMEJUyAazjOeZssnYrkxZfnvZhmkOtId2ZflltAtsBTWDFZRrECBj7uT0AwrlxJVjv51FqNmL/6jDpI7icjfl/ZzXlDy264neZDHqoXzP7Cwe34dzTV2mQIR0rbB/SLm7JH+9TqVo/abFSpep5r25AUfBA7hZga0giAomkuFuQWy6PkE0qCHRsDZEX6fq9wiNak00kNO68DPslkZelCmoIMEaaqU0F68jxXJF8eSBexmhVY0HtEoRluPK4a+FJJji14OHqL+HF0Vqy9ptAUGARvHP75b0pklVnqVsyS5q4OuPl9EY/lVMYQGaXLosTWGusiBE4h0u453wbrLBLKMls7kaM48pK2MrbzMtbfT7kCkrI6NdYCtoiDofJBMhcAf/cRxR6NZyr4vnlde9RDG70GlGVpVuH90J6xSXHeJsduZ6O8ymp0VTRYaLXZUGmT2UpDv/5n8fFqNcvrJllJrRVWkkspjgYnOXvRCijJdccs81UdR9UZl1KrfS1a9CufUq07XaTxU4WDq7M0Nsmg+CuBiW13GP3cu4QkyCXYneDSHaNI/o1LdEWZlieEmAZyc5D/KiDMoaxMtQp3E7sr4YUz8vNES8jhSJnn6VDYHnzQd1gqsXbfYsQ5m//iY6aIrjSSnU10VDUUKE7LGAIEDRXG6Ul5bGl32Crlo4g/bT5i00XilBU7zK0rTSZegDwc8lQoR3wLvgnfBussEso/QPjIHVDx1TVsZWQsQsBSULYMrKyGgX2PX6jA5JxMeI6vN9jp987hiXFf36Cv6P8yPn87XlRB1n5awUTRU50nsoHdkKOg6LCGLE97rM7sriy68oFUUWFVebKpWvvuSSASG63Nzl5OkgxTO9ShXf7LqViBqp+4UGiqwOgy2hz6xaQhAGrFaFlSAa0EBP3DfgtFYsIDP7Ef32f2I4OYBfuSzqQF3+aJOvA+qz1cTthLuJtpFugeg7v4N4HSmwPwixnGWxohNcvGiLT3nK+uus6JApvtkYT30VN4csIAjQGOZoL18ax/kunzolajXFL2nbKUZxp2leZWg6i8+HIN/P4OtqFqIko/7iHdR3EfuFZIPZnGeZMt8fm/UKKkAGwhqSrTyhXbQvK2NOu8AidJj23i88xoQlxG5blChiNzrOzhne/WOiV2bfcjohRB3jcg6Jph4IjvormmvdlWEsQBdUF00vRldudFdG7jI6kvBnM+VV7KSmEBc639xFjS9zrVbFt7MbPB1+3b/CY2qmAkAXyr9LnBWTDXAMfrhMUc1ZaE6IIcP49TjRBywcPxwQCU4A6pramy2p70QC48wP7NK10PfBkhDhLBm/g3gdKTaW0LbCt8CMxcdAWEKJXo/RTQtWyjG2UvopGocsIAjQWL4fU8qXYvzK09XTp0WtpjjJ1tYEFroPSvupAjSDBWgWX2fxz7iaCxHeJaGEtiXeTTaYzSlblgfGMmX5HaUlc9TW5Xq7wCJznr6Uiw+YC3dsP9+nKWGiiN1QRWgJi1BcjtPZeW4eLKFzoqkHigtdlCdYfOZd66HkGuaL2GX7MaO7Omeo4nxTlyV3MEnd3GUydVFXT50GHsDnLQ5wHLnoUYUo24p7VdjIucmm6zP6vsj6yH1ndwzznxaB5XlLRzVwYj7etRSlH5Nbcyf3fEUDNCVpCAuKvRYQBGicD4uQpw9NfaoK3bh0SdRqiuMrVrEIKSYCFMcCNJuvs/nnOcy1LEQGdxLvgnfCu8kGszktRYRbw5Tld5RLmDJ8ypTlN6ddYAvnFoRGJkBg3k7+49il0K3t6vYCh1CYIqRaRLOy8R22QsX+EXXKH4627YhKek+lXmZPJfHO6/xvx2KU92+FWJi2XeiqNP29reL390vKiyKrU8ED+JZ0cIOYq1k9SQyVB4h1H+j7IusjE+8gXkcKayIEYqPi2YQtojFTXDh5ioayoAzx9jOxgIb5lKUoj9I0kK2kgVx+EPYRKa40zNWdor20dwVoPOcb41aK5tbxp7zcXFGrKXaPn6CKEARoppEAQXzmMed7+dH8Un70hYdeiOwVoblMGTBXIsvvKD9hymDrUQ67IBMeY+pYhPJYpG5tVRyOclioIiQomio07B1Zf8qJ2Ea5B0bXP3Qguv60w6PrBx+KCbD6GWB20dqzJfSdOl/UW6HL3ZTr/Fde4FUwS5AN6rvEkvrudWKoWEFeHlHaSqIV04h++VYkWgHyIG/aCn3Z/LB3o/4MmqyPguJ1pLDmjoFYov9hXKxozBS3s7MppvoLFOnpzSJUnoaysLzDrtMgVw+KrfYCLevSjeJHvEdJY8bTfwZG0qLgcBrnx1YSC9J47zIUwwIWrZSgz1/pKmq8H1+07UiTOY+xBWQQoAUsQB+xAC1kLmauZyGCCNnjjs1nyrCIKcvvKGcwZYAIyvKb0y78EyyhjnHZVv/3dAa+GlnvwJnpjenU1EA6OSWQvn2/Ie2Prv/3wej68YdGNxh0ZHTDWiKrCXYFKW5sFUXdekO5dKmrY6fFbUW+ltCayWKoWAD+d49prz+MisnqoBJEh5PEQwkOJ+vzIC/KvM9lc++IhxawbnqBLCFrE9PgRhaA3S+2FI3dj6Vde1B/tniGsQANYStncYfO9H1KKuVITtsDF3/6mTb06U+jWKzeL6mlkTzGvpo+Uzw1RdaVKzSnfCX60L20RQFaxFzC/LikH31Skq0hFqKtdkxMr2LKMJgpy+8oEfRMBrQvy29Ou8BC8+jPCcVlW51HcAZ2j6xf4/DYBn0Pjqm/bn90g7+OjvennycH0i8sSj9OCqD9oxsQW0gn+PmCQ6P9Ox5+txE+J34X5yKUcvzLcepBVXMUeE7ouy/1AmGIkgjrCXuELAHPkAd5UQZlv9spHkpw6ybR6wWcE7KyRA8mlChN8W5edO2HH0Wjptj/yWfUl8fJOy4laDNbPLbiyNJPaLSLhsa5uNP5Y8dFqilOrFpDk7ju/ARoqRAgHO3AZsb1dizR4ziGDJgnkOV3hPhahqW9QmhfVsacdoGFxrbVsbQCro4Vkgi9ugD1ZltdUbEH/fr10/Tu3bsM2KVLF+nE8bERdbwOjK4XdHCMfyy7Z3v3RdfPYldNtZJOsZV0fEIj4rRrB6Ib7Dg41j9678gGcEBcmvSa7o16Y2Ji7I69ZAtsXh07K19eVl2lhkZlsFP6rarioQRvPWd6fANlcbhVhvO/EQ1jC6WAq2NWNysKwiU7Nni4aNgUmZcu0agnKrIb5krzQiNEqm3YM3U6LfJvLH66H583b0UfuLjZJEDLWXzWQIQ8fO3arHiVaWkOAOEaZWXspaVJaW/mFaasjDntgk37hA7zH8f2guwTyrF7n5BeXOTCY8yuiznfrGyre0vsAYvQS4MHD07v37//Vb6vLpKt4sjYhpUOjq7f/cDoBp+wlXTy0JgG9NPkANVKOv1BYzoUXfv0yP5vBPTrP+AK1321T58+Bd6YKINN+4RqM7/4QAwbMyBaYveniOpzHuzpQV5rk9mr2b1DHuRFme5PEl27LB6aYf0Molqcx5IAgTbsEwKsHdsAE1xL0WYe/JaC2m96b5QalmOEtx8t69SFFoW3pSWt29GGQZF05uBhkUsCHdHV3+QbIU9tSaKpigvNZqGxRYBwrmyDpx997mH/sY1Qpgz4MkRBP6B4hAmxkQHtysrIaBfy3THNpD0sQtuUS8fSHndox3THWVmvd1uc923HWdnf2EIWl6PsYh3TC82t+4THmOr+o1k5Dltp5hgwYEDI0KFDadCgQdSrVy91nmduTKTP4slDK6yPibHpS5rfjqtX99Do+sPYRdt6PKbh9SPRLyyv++a0p1mAaMiQIQShE1mdCnZl8t8xDZcJMYEs4Q92Y8a/StS/CdHaaSLRCiBoyIsyv8tdIBUJ863OBam0Ycc0YO0Aq5760K4HX+kuGjfF9QsXaOyTlWmoRykawu7VUHazhmMnNZd5z82Tjq+3YM1ZwJ2sLFpaozZ96OphswDhKMcWFqG1Hr52H2A1XqbHH6Rx1HwELMdnTDCxJitriVnMhUxLAgSgXVlZGe2C1bNjTGJmbXelYfsaUoXEdkX2nawOs3I6d12kY6GxLkJdFxF1irvttDjN77zzTqvIyEjiK7HFoq4Izo+NfPfTD0fe4OvpebGRX8+fGJXI94sXTIwa/9GkqN4LY4e0Xjgxsv5Hk4ZXYlfLJM4SPvFzdZSifaN3VJ2BAwcShIhFqJl47FSwFZH/2TEIwcIoMXyKEIvZPcpPhLjv+Z0dAxD+wlIoj7vU+KhC9NviZaIDpvjuPxtpED8f6aW9tw9IW46iNaVofGktXfjRiqCaIbXfQJrCdc3xKmuzAGHTYiKnrxXL84BsMMt4g2mYcESYjRNMbCI0Du1RlYnJapiVvzFl9eAUPZbi32HmF9AK7aFdWT0y2oWrslP0RgL01zZPap/8Ij2+syNVSwwrslP0sIi6LLTukmFSmq2gmxFzdVaXyu2BTITmTRj8yaYlsbR6zhhaM28srZ03Tr2unjuGVsZF0ycfvkeLJg+l+bGDc1iczvP1xPwJg3fMj41auWT6qAkzp0Y//+ab/aoXgQjlf4oe57j6iZAcRYl36ujblvUJxKS0jafo05THvRAQTBrUzIgJJUrRJrZs/k7bITphiu3TplMk/7ON8vRWBQj7gGJYjEYprrSsZZjIZR1HZs1mN0xR3TBbBQjnyDYw13poL+JdxGtJB7MlGkdUhOBcZkJUZJOYSJfV8Q3TVtgbYdFusDV0L54QE1YR7VDo6zRfCkhqSU8ktaUaSWH0wlftqFpCcKHHE+o4M7tXN3UiOx8raLF6bgyfTnIaZCI0d1xk/aUfjHh7QezgcSwsC9ka2sxic3hBbORvfM3gK/Fz+mzmSFo1ezStmasXKnDz0km0eEpUz6BX+lQsbBECeCDvsGoNYRULk8nfbBPDSAKEqciTBwWTIu8OgvWIHyTAihnalH1xw0BYQTbGEwIQGtW6Swb6qkHOEkr50NnkVNEZUxxY/DGNZfEZxmNnjFtJGl/Sh9738FF/Pjhnnsglx+EPZ6oCFOepNRUgFh3Em57PZBfnPgHCjumtzHXuPiZzwLLBbIk4aIoDpQYYDpeuZRp/Qwqf/jEva0xZ2A5zBDLtPZ1vN3INkRVZfHRCgDalPUlVk8KpUlIbVYCqM2tsi6AaqeHpz6wPKbTIih1mZlXqPO92+qvz2cqRCI8xMR/UYVZ2b1HUKZCJkCUsWdJPsyRm+GMLJw6ptmDSkJcWTIzsOj92yFAWppksTGvnTxy8++Npw3/6dPLQBt3e6PtskYiQLZEVIQi9a1ne03NgM1HbJ4gOyncem+BQsj4vvkMmA+JM92UryHgVTUb9fJBNkRUBHPq0GOjehHoh2lDCg45ZEJVLP5+kxCHDaU6d+jT18Yr0QYXK9FH9hnR4/kcihxz7JkyiyTzm5rHw3BUgFqTFzP3DR9E3E6fSoXejaSW7aSvdfe4K0HoP7peHL20sYKD7U0xjszGZiXScYUpifsU0D2ZmTrYErQKC9gtTVtYa7QYhxvR2JR0T0HDBZm2tShW2tKVnklh0hACp3MLW0J62VH1r2JEqy50fYzoohjw7zb11pJu64iUXHgM7z1NdsfQOs8mpHw+0R4TsgAvXV78oRIhdnvxjTGOFCkHrp8u/yUVXzxMNCyGqw3lef47ooyii1E/Y90jRM205pw0h+vfz+g8eDmlJdEXyuR9gZi99W9ZWxeyMMW0APptj7QjHPXIe11K0hv951rVtT6e/NTpYawREXsz8+2+6aeFcmAypb/WlaVzvPHb9FrL4zEEbtf3FU6Ibv/9BK9y8aJXGRxWgL1iAtrIA/cfdOZ/8geloWC3BnBD2N8jyWaI1EcIA382UlcuPDiFvmxKXd7QERabUpce2tKPn2Aq6Kz7mQrS3HdXYGr6tQmI7p31to13M2VIsQNvEapdUeIzZYynyZc8SxZ0GYxHq379/TaS9/fbb5Xr37v24PeTy5cGePQeoA6uoRAhgiyL/r23ANYI4zOxj2ZWCJTS2A5ub4iuqhthAuEfamPZsAbHVJAW7dPgeGSajrblhIKwgO7+2ASS4eQdi93T+1pCeWzRa+oLHyBR2uVb8+y06uW0H3c7KEv11HAfGxdDS8k/RQk0pWvl0VTq3Z594QnRy2Wf0CbdpEKANzGQWIfRdvMZdyAazLcTJeizPA9gNi9jS45gjmf9hysoYOIgpA0I6INynrIwtdAh/7Cj5VM+0wJtPpLaXi48ZVSFKCz9SfVNwgb871nGq7vnO8+4cUQVIIjjmhBXUac6tm+2n33xSVOE0mInQc0FBQW59+/Y9wz9n8tUuogwLDqxm1FuryEQI3x0LteG7YwYhimxG9OsxMWwkgEhdYevoj5/0xL21c2KISRQVpK87PwHiPuIbafZ+d8yAeHfvzy1+BlpChNHAruoJiguNcPWguOq1aN1rb9KeDz6k/1vzBf2clEI/Jyapp+H3xEyk1WFtaFPX18SLWUb2lSt0+cT3dOfGTZGix5ftX6UV3BYECG7YDg8/2uCu/Vx03wSywWwrMfks+6OCpSPLb6AsiFULJv5oZfltpcPw29w2tvaBl1VrRyY8JoRFtLstC1FERvXUsMFBu+z/AitLrVvTtfMGd5lDGd0WQYCy7xMcGXssU+eCJohanApjEWLRqAoRYjGiESNGEPYP2UOUYcHJFfUWmQgBbA3F2PwFVuxiDnEnmsduF0TGUfx5kmjBUK7TI99DqneJPgYrDv8u07y8yrOwXMH8kEx0ZITlhKMfM738KFrjRaMVVzUk6zi+vq9oKEZxU0/Cg5M4LZavhz+cJV7SdmT8+F9a7VGa1rqVVgUoiS0gbv9KmuIl/ViqbDDby3lM4wnb/ETI+LPRzzCddRDWYVTZFeRZLSn0VM1dbWwWIhYheuErFqPU8BM1U1sPrr0rwiSioAzIA+FCmRf2tqFm6xZRp5l51Hlm/kKEfUEd426dDIo57fQ5KcBYhNitwldUXFg0ugwYMOB1vtpFlGGLSI09zUJWtyhFiF0mT7aGbPsWPeZrDOFdw1iMRrclSmKzFIHI8BlnS7iVw3l+JEpm33jsy2zVsPigDsSdtjYHZKD+W/Qn0VfRbYcQ767tjLkhW90y0JA3joVogk8ZNSb01NJl1YiIakAyvhriAc0s6U3TXd3pVHyieHHbsDOsHa3kXwUEKF61gvDBQ63FWOSywewI8XmepcyXmfiygiyPgVhNg/u2gnlTpDmDBcLzm0Ob1tzRGqIiFx4LRBks4VdPDr9RPSV8T43k8NnVk0MHVU8K6aGS75FWLTlsN/Igb82dLHZJoVR1ayPyXz+SOs6+Rq/OsOySdZ6bS10W5FGHmVlNRHedDmMRcuLENOotsjkhA9jNaaKeJbNFEAyEGMEywsFUuFI9KxMNbUoU24lo+ht64h4fOMSzEBd9Xlg+tsSRNhB9wlkx7qPoboGwSeMzc68d1hBoECLscp4IAWLBMYRkNY0HVJZmunnRbLZqflpjQzgUxteRw9gNYwHi+jeyAO1mNwx9FN2VQjaYH1UWGNUSQ9+rtZ/dsmS54FgjxKvml21UQVK5p62e4mdYWTKBq7o1kGrHv0Ht5p+WC9Hs26ob1nFGFj6BVGgws4SwD8wpwCR3UYsQwG7Zuza7ZeY0fPIHZ8MgMhAbg+AgDafhHf3CBvdJF6w49XeZqPHZ+JWDQjS3FKyhewJ0XzwgFqI57LrNZlfty/4DKf1ndj0luHjgEO2MaCcEyEediN7t7kfom+imRcgG86NKp4BdrWW1MD9kJhaFx3B6bmsTqrGlHYUtPkRdPoQQGTYr3tIL0OwcWJmFCmMRYleqZa9evZ4cNGhQgYg62DULexAiBLDLs9RhISoMQoBC1CNOTsUSRdFs0Wi3OipEiHgId8xyQLIy6jL8XB5ny7wfo+TQNnQgajgdHT2e9vXqT8mNmtLnriXvumCqBaQKkDb1KPdNdNMiZIP5UaXTUD0lbJ0qRA5YRI4xnJ5PeYkZRC0+3aRaRJ3iclUBemV2jsOn+O0BRAhCgcloZjbzJotGVkGIOlAXhI1FqchFCGAh+uKhECIIUKjjERnyg16IfDZAiByZI0LUwxnepgKEkKymRzHK0FJNaVqiuDIV4v8Z1WX4VWwlfaHxvjsHhB3d6Mv6e1t5rAIrGLIB/agR8YicimrJ4Z/BNaux1b45IscZTtWSW7FVFEhN1iyg7p+wEM2+7bRQHfmBhSIcq1pRUVEmK13OIE7QDx8+HOKGVdAiBw/+T1UhsmeOyFlEm/q2i+R3yYN/BsLAYtXM1uV7CBFWzSA2s0wsoPzPghn2ARlWwRBqBH0Q3bEJBQ3D8bDwGNPpqJYcOgHzPOpEsi2rZgUlt1FzZwRV3xNEgWunFcpSvCVgoyFbQt3YWnE62SXrhrqx+VE0V+TQhSnvqytmtqyaOYv32ivS3+VmjU/XrRrt39hHZKtVZMj3MQvOXDsFCPM/2AeU7K79G22LbtgMfHRQNqgfNVr6eGKBwRZK2+rbIs7U2q/ulpaLhxOIutFGTW4LbYrmi+FE6EKUNrpw5Yy6q7owrSLUjd3Q3JYuWHkgv8s1Jcs+udVd+xl2Vtu6jG+IX72MBQcilJ8AwfrBUQzshOayK9YpZRzaeIn/mfI76/WwE/2XboJyFmquCytTY1v4vBpp4bni6IZUSBwh6hK7sHOZ89GWaLYYhQC2iMqwOMzna67TxcggPly3aOOB/y4T3fyapWi0SQj/gbma/MKAGIRoOQvPEokAIR4QwnHgNPxmFqFED21SvJtvvrGQ8gMCzMsG96NCSwHynY7ntoTVrZ4WsbJGakR2rX1iv0+KA4LEZVAWddRIDc9Gnc+nRNQRzRSjCMACUZe5ksUiWxUjuE2OCBLKoKxefHJ0EVwn1y2aeWiQ5OYdmOKuXZSk0Z5FYDQIEuZvELPaMCdkLkQQHQgQYkIjJGsiczOT3a+z8VyX7BxYQYCwENeZskH+sBL9dWo4C1vxQkrEszW2RYxly+UoC4oOO6fVvUBftlHDfpgIE98j7d4eorZI06Es6kBdotpiPACwaDzLojGWxeQoX3VqTCKDKOEMmrEw4R5peIZ8iAXEZZjfsJiN46vT9lcVFhKUst5p7t6tkzQ+s1h89m3RaC9AdOC2YUIbrhuIe6StYVdrlYfvxbUevvvWlfSdtcHdr80qpYzTgumZowJzFPNrJr7sKRv4D5roF/qHfqK/Dxw1t7erXC0t4mV2q2KrJ4clMH9gprMA5VVPCs1T75GWEh5fIyVsIvKijChejIcIFKJUZlF6mQUlVheqJDB/YKYzdSALUYZIS2DBmcT52lM7kyNLjxx2KVU8Uz39KrHLVn9LCW0LfBUVxD3S8Ax5RHYnQ1H+H8uCOTlYuvUgAAAAAElFTkSuQmCC;" parent="1" vertex="1">
          <mxGeometry x="243.78000000000003" y="1497.86" width="114.22" height="21.34" as="geometry" />
        </mxCell>
        <mxCell id="H9l12tLdnF7aZDhb0lx9-20" value="" style="edgeStyle=orthogonalEdgeStyle;rounded=0;orthogonalLoop=1;jettySize=auto;html=1;" parent="1" source="W_6RqLE3xj3r34jLqila-47" target="W_6RqLE3xj3r34jLqila-41" edge="1">
          <mxGeometry relative="1" as="geometry" />
        </mxCell>
        <mxCell id="W_6RqLE3xj3r34jLqila-47" value="生成式AI聊天機器人" style="rounded=0;whiteSpace=wrap;html=1;fillColor=light-dark(#fbeca2, #EDEDED);shadow=1;" parent="1" vertex="1">
          <mxGeometry x="446" y="1422" width="120" height="30" as="geometry" />
        </mxCell>
        <mxCell id="W_6RqLE3xj3r34jLqila-48" value="" style="shape=image;verticalLabelPosition=bottom;labelBackgroundColor=default;verticalAlign=top;aspect=fixed;imageAspect=0;image=data:image/png,iVBORw0KGgoAAAANSUhEUgAAAJAAAABCCAYAAAC4sF+cAAAAAXNSR0IArs4c6QAAAARnQU1BAACxjwv8YQUAAAAJcEhZcwAAFxEAABcRAcom8z8AADCGSURBVHhe7V0HmFTV2V56B2vU5PdPscQaey9YsKAxMYklmsTEJL8tKnWBZVkWxIJK7LLAwgKiohSxK0TsYuwinWXZXmZ2dnq9d+a+//ve2cHLZJZlaUmex09fdvbOvefePeedr53vnMn7TnZOUqkUth+wkWxFKmUhZf+SIKKAEQPMBOLJECIIIYwoDFPH+J7lR6zhQ3gX/R7l4w5G5fgfobnkQlQ+exPqPi6D2bKG5/kA8PpUDHEzAiMZhmmEYRls3+BbcTbDn/xNLxG3+JowCWvLcyQcz9s+WrvhO9lRydWpbcFKmhwtwx4sk+OVGTyQSEhxSJMGUhzDFF/HUx4OMgmEJGKedahdOhGb7j8Kgfw8hEfnoblof1jTTkZi5hloLBmI+uduReCLBUiFa2CRIimSJhUhYibbTPIWBgwrhKQVZfsmf/JeqSSJTFitz8jnSmY9c3to7YbvZEclV6e2DQ5kigQiSwT7tWWRImmtIDKlIhYiEQMmjxjBDWh452GsnzIQlYUD4C3KgzU2D4nC7vBO+D6s6ScBpcfYSMwaiMbSa9CweBwiq14CItU2afwkqp/txniXpBXkfcPfajxqKBvUWHo2aSRpptzPnhut3fCd7Kjk6tRcsIgYByjAATL4iUcySMa08GeIxLHg53G9x5ewQrUIfTwNNY9fhJqC/REo6AqjMA/GuDxEi7ojMq4Pf+5DAp0Ic87ZCM85B7HZA2GUnoPI9LPhnjUYta+PhLf6NUQtF82hRUJSpN34IsGbSAulSRTiwTDJZZJkabOW6/nbQms37FLpQZxHTCLeJpqIVCsaiLeIYuJsohvxXy25OrUtaHA4XAiTQAkrQTMWRdIM0u0JUj8kOIh++Ne+gPLS61Az5iDER+YBBWlYY/KQKuiMSFEvBMf2hTe/P+KPnAj/7Evhmnc5gmXnITXjZETKjkFg3olwzzgdrlm/gO+1IqQq3yMzfGwfCJK7ImqYrxP2c8VJ7iiJGyeRaeb4JLmevS20dsMukX2JiUQtoYa3B5XEWKIf8V8puTo1N6z0QNHRDdOEuGivPPKDbM+2CvGKhWiadzXqiwegdlRvBMbti9TYngB9HpBIqdHdEOexAF/XDOmF+kcvhO+5P6Np2mCEZl8As+wsmDPOQISvw7POBWaeCUw/DbHHzkBT6a/R/P4UGL4VJIjfNlMR+mJRMipOMpuWfCSpJ+ogEir38+dGazfstFxLdIQ42SgnLiP+6yRXp7YFe4AMrx0ZBRhZJRFEtOkD1L14OzaN/194RpEoNFMgRJjU2D4IF/WBt7g/Wgr3Qe3wAai86zAElo4GvJ9QnaxC5JOpaJ53LQIzSJzSi5Gc/gugZDD9ovORLDsT0dmnwMufdfy9Yd5vEPrkCaT8K0mhJmqdCAlMEvG3pBz5pBz5PU+gB4hsQmQQJ0SOfxKfEJsIg8h1rlBA/FdJrk7NBflAirrkZ8hVTbr/Cc/rBSi/73hUje6HYHEPxCd2RZw/E6N7wRrRCxjTC+GxXVAxphtWFh8M14s3wfR+jBSNUJThfsSgWSQpTe/XCHwwBd651yM09WyYM89Cgv5QvJR+0awLEZ1xHuIzz0ek5Fy4pw9G/YJb4ftyFlLRTWyLbfCJ2BTJQ3eeminX87eF1m7YYZlOZJNA+AfxB+KHRBciI12JQ4i/Eh8Qua69l7iQ+D9iNJFP3EgMJL5H/EeJszNNmgOFxzIJBsli8dNsmkkEDCofxe2MgqKxjXCteAS1U86Ee3g/xEf3oNbpiYSiq/Gd6ON0J4H6ITFib3ju6Evy7I+6569GvO4FjnA9A3sTEY5znKMeY7sx3U9eTcoNq+Er+JdPQv28X8NVOhjBGYNo1s6DRSKlZg4kqc6lRhqIUNlguKb9Cp5FtyCybhGtlpskisKgU50yGPY7/qb20NoNOyTjiezB30B0xBRdSXxNZLfTFvzEG4TI2ZP4t4uzMxVNKbphgM7hIF9SETrJEYT0wY554P+sBOtKBmHT2O8hNob+DTWLRW0TzSeBCvi6sAtD9Dx46TBXjBmAqhlXIbruNTpKPrZlcoBp9BLUGGKnHfwzOLeiiDCCCvBQhEcSqQQSte/B9+pwBJ48G8a006h9zkW8jH7SrLOQnHkCEozUEjN+jsC0gaiZehmqXpqIWNM7fPZGEn5rgrSH1m7osJxDZA+uBnYvoqOyLRO4Lawnfkf8W2WrDlWYwwEw6E9oMJOpEAnk5lAHsH7ZZKwceQACw7vaxAH9neSYLnSM+yNcuC/iY/dCbGRP1I/oh81Pngv/yidoVzYSbClGo0Vt426lTSpah+rPn4Kr/BUSy6u34aF99NKfsdMEom90A7D+WQReuA2ukosQmSbH+mxg1rEwS09HbNavEJ1zMc3cOQhOPQ+rHx+E+i+f4dVsXxly59+1DbR2Q4dEJukbwjmY7xIyTx2RXxOrCGc7O4LniP7Ev0WcnWlPBxgKz5M2gQxqIMtqIWqw7unr0TiiC6Mqkie/s50QNIo6ITC+D5rG7ovqIf1Re+8Z8L03D/BXiyU0e1EkqMFiqSDbizL0bkF05UJUzvgtvrjrSNTMHIzmNychUUW/yGgiuRoRTwYRpBmSBoxRExrhegS/eQEtLwxBqORCGDNPQpxmLF56Kaw5jNRKjgDu+x7Wj+yB6jfHUW0qybl7CaSIyzmAbqIjvskJxKuEsw0n1hHyre4gfktcT8gPmk/UE7mu+Yo4iNjj4uxMmRlldlNJWweQSCSUsr6mC66nb4B/JM3V2AFIFPWAMYHkKc5D5bju2PDg8Wh5aywsOshx6g/5TWacJKS6CYqI1C3xcpJg1u/QUPB9tLCdBMN9lByF4LQzUDf7N2h57x6kXMtImbDyhSSvQdNp8sp07skMViH06Ww0LLqRURmjtcdORPIBar4JfJax3VA3ujOalg7nmcpW714CZTu/cna3R0SyR4kk4bw+AyUdBxNOpztblC/6IyGSZV8vrbjHNZGzMzns7HwOVzJGX4SDRj6JU5oM9cy9GYGhPREZ1xvR4m4IMFR3T+yE5rITkGx8iid5STpqjkQLgoys6PWwPUZY9e8jsOh2NBYdDs/w3ogV0PSN7gKrYG/g8WOAOSez7TNRQae5+qnb4Pn4GST95bxxgK3ReNKkBhJ05qkNadfI5dfgKWXIP6YvDPpaIZInVtQPNaM6w70sTaDdYcKOJJTwk6lyDlo10V42uTNxO9FIOK/NQGF+R32Z3sRjRHZbS4g9Ks7O1Cc/qUlRk8aD2kPkMfhTx5qevgWBYZ0Qpu8TGs9Be3A/mNMPQ+iZi9D41jj4mr5EWAPHRoxkC1K+9+B/7Q647z4S/mHdGKV1RmRCHqJ0smMM72PjDgSmnoLE7HPQMvc8kujn8Jb+Bk0lv4Znwe0IfzmXynCTTcIUYcXLEfxsGjaUXIz64oOQyu+KJMkYGtcHZmFvuEbmoXnZKP0F/Ft2HYGOIWQ6TCJ7sIS/E9uSS4nPiFzXhghNafQldlRk2rLbvYHYY+LsTJktgz/lB8mZthg1xe258QA2z78OLaPp99y9N+KPHs3IaCCjoguQYCQULLkEjWV/QOD9x6lx3kX4g/tR9+BJcNl5oE6IFXZCsrgnTU1PmPk9YNIJj43vAUw7GklGV1FqH3PGQFglxyFVqpzP5WiedgVci4Yisf45xDY8i9q5v0d14f+guaALCSNfrBOi43pQE/alU98JoSF5aFlaQK0lJ1rYmihtobUbcopyMEoEZg+QE1cQuUQaawGR6xphHnEosSvkYcLZtvykPsQeEWdnmvzkKt2jfJylqfUkTUYyRA3gRvmrI1Bz/49hTfsZUjPOQmz6IBLoUhLgfKCU0VHJGfDffwzq7zsUNeO+x4HuDYMDLS1hEYmCXggVHEiTcyDcjOSairojMP0YeGYNhn/2VUiUDKRGOoptncw2Sc7ZFyLwyKlonnw0z/0BmscMQLCwH8nTGaADb43uwbZ6I0EipvLzUH1LZ9S//WRr9KgUxNZEaQut3bCVKJp6lnAOSls4msgW+SgxItf5HxHnE+2JHOJe6ZftinymNYTzPrcQe0ScnaliMNXURMUdkokhEI/RqWYUZfpWoeWjB9Hw3PUMqy+h5rkQqVnnwCw7CdGpP0Vo0gEIjeaA0pk1C2he6JskC7siMY6hvvJDRb3gGdELG4bvi/InL0V45XTEyp9H7Uuj0Fh6JUPxi6iJLkWq7HSS8TDEJh9IwvRChP6SOaYLUtQ8VgHJQ22THCNzOAAtBX3RdGd31BYfAs+yCTAY/Sk5qWe3lBTlJ0HlJs6/MRut3bCVvEA4B0OQJtInfYXjmMzajwmnaDDlFzmvFXRM2ef25CfEU0SY0LTHX4jtESUknff7lNgj4uxMOcspRj52SYQ+xozG4hwAL19GkiqqcMPn+hQN7z2C8LxrkZx6HMx7+yKiUg1qBdDE2ZDGKeyGSFFPhIt7IFjcB55xe6NlyjEIfTSR/swaRmYM05UU8jN0X0EyvfAXhGeTRA8fQh+LxCFZkmqLPpfdJh1mtasZ/ZTaLmDkNeFgeJbcDqNpBZ8tSpMrXymS/nv43DtCIPk0zoEQ3iPkC0kWEpnjmtPKJpCyw3VE5hwRbzKxN7EtkclRZjtIZK7N4EOiPa0l4lYQmWsU6WU/224RZ2fKZNmZaBJI5AHJpDC8jgjwfU2eAo2w6l6Ed8bFCNCEpEgeixFZkpomVdiDpoWDrGmNIh6TqeGgx4v2hu/hU2B+eV9razEkEwz3xSJJvB7ht0fDO4nn0a/x068Jj+1uax2QMFZBJ7bZiSTtjEChIsG+sCbuB+vFa2D537fnwuxQn86/lfCm/54dIJDmnzIDkMEcQlFURl4mMu/lIpBqgTIaSJnio4j2RHmejUSm3bYgzSQN1ZY8QTjPv5rY7bJVh1qGPY2hGW5Q44hQqrtxJxWS83fPewgsHYaqB05GU+H+iHGQkxxgk4Mbp9aIF/eGRUJJYxiMikyR4IF96dcci0TZRfCVXYumN+5FrI4aI+WlmmuGb9UCVE67kn7TAfAV9UZwXE8EC3oyWutDLdYH8TE96YT3RIgI0AxG7vkBko/TD5t9GmJzL0PDonzUr16KiOlhmz6qSv3U39IxAuXyI0SWbOkIgdoLqU8nNOmaaU9QqK+aIs3eO49nIA1VRORykhV9Oc8tJHa7ODvTIHHsDLRNIPo/hp8huRKDMXi+WoCahwfCRT+mZWwfmhk6yTRRCUZU8neMsV0QpW8SHNEZLUV7wfPAIYiWnEDynEKf5iRYM85AovR8BJ4YjOY5v0fsw/GoWnAVVhbvBRc1VWq8CEeHWP4OzZU1tit9p75oGdUXHiI66UBYj/0EmHUKrLmDkJh5PuJ04COMBj2ll6Dh+aEIlb9NUtLU6u/pIIGuIZydr8rBXPNaHSHQazqQQ35ATCMy7QgyOY8QmYy2tJ4y0apmdJ6XgTTWdYRTBhHOc9TebhdnZ2o23i6NYKfb5aIcjAQda8toQtWzN6N6WD9qBJWkdkN4XGebNMmC7jAYcTWP7Ib1+fuhcsa1qJp7PRrnXIEgo7Xk1OMZrp8IkwMdKrsM5vSLYM1kFPfo/6KBps8/kSZugghDzaXiM/k81GhB3mcTHe6Ke0+Gf86ViM4YhNi0M23HPT57EKKzGQHOPIPk/CHwyAEoH/kDVL7xdz59zCZPRwmkLLCz89tyeHeGQN2JkYSHyLShaO1p4jgilxxAKGHYVvZaGkyaTHIa4XxP1+12cXZmekmMyiFUfahVECmExKVkExqf/Z2tDUSWKP2aJH0cFY7FR3ZH5fADsf7Ri+FbPQspoxpJz+fwvs2IrezXCDDEN8rOgKGcEaMss/QcJKefimTJ8fAVD0CCmkZ+TorRVmpcLzv0rx/RCasnHI2614pgev4JhFchtup51C8ZC3/pL9nOQPifosP9xDEwFcbzeTaOPQhVyx6wvSF7KqMDBNqHcOZ7lEcREXLJjhJIUVL2BKzQQijZ2J6cSKi97OszmELcmnXsHmK3i7MzpXUskYg+j35XDlgrtUwzgLqnfg/fCA7WqK62nyNHWctzPHcfgdD7U5CKl9NPSq+SMBX2w4OQ6wM0LL8bjbOvQmz6BTCmnU6tdAqiT12IyPQLaeoOgUlSgmF/gg5zdX53rBx/CKoX3QSj4Q3e2U+Hnj4ZH82eJI27YKwpQ3DmOfDf8z92FjpOc6dcU+XI/VC3TBpINdJbEygbzr9ZfaBCLWfHayKzLekIgRYTRxAvtf6egSZfBecxtXs80Z78hlhNOK9tC9uTNthpcXamSkS1VEcBmP4x+GlWnU7KMEigP8E/pqudg4kzKorcxWjpoR/B+/zvEd2wGJbZRI0VRyoWQyKZskN/H2mUSDUgXPUqGhbfDvf0SxEpOxuxOech/MQZiI0/kA53F4TvJAHG7oPNT18Db9VrJGAj2wrZq0DSxfN6oDCscBWa3n8Ymyb/yE4dKLS38hmpFXZCE382vzmZ5/F5eW/n35UtzvfUBzcTzo5XsVZbsj0EqiH0vkxVtPV1BqWEzJIwo/VYBsorKde0P7Et0T1GEV7Ceb0TFiGttdvF2ZmWCtL5qdUkqorTNRdOnYRkKoCq+b9DFQcsUNwHsQcPhzmVZmnu+fDOHYjGp66A76XRMNa/bhNJdURmPI5EjG1qWiTZAiuyDuGNi+FZfCfN0GDEHz+Wzng3ap2uqJt6HgLfPM17qiKIxE3GETPo0HPs49RryVg5Wj59HJseG4yawoMQLO6KSHEnhIr3RnTs/iRQZ3jpPwWWFtqaKnsurD0NpKjH2fnnEm1JRwjkxHLiTCJbdEzvOc+VA/83wpk+yCUHEyKk89oMFM11Ina7ODtTiwW1stNUgo8EstDCqIxESrqx+pkbUH0PI6FpxwJlqgw8l6E5Hdo59HFmMxp64nz4ZvwWrrcehlH9LtVGvd1GwkgiSo2k1gyaRNNXgegXs1A3+1f4+rFz4fqU5s/czBvS/CVo/qIW4ry/6JtM1iG06hnUPHmlPQ/mGU8nns476H8lJjLaG7s3IgX72g745mF5qH5tHO+iv2VrkmSL8z31QXZF4ClEW9JRAm3vTLvO0bmZ6wRNwl5CtCeqjswui5XTPYbY7eLsTK260AK9dD20lsiEaUYY3ltRhNYvQsv8G+EvuRhRhubW7GMYUp+AVMm5dIgH08fh8WkXIPT4ZWgovQ6NH0xBNPAZSdMCP7VCkFZI0wwGfSzL8iDhWwUjtIHDHUGQ9wuZJA61lSoCRKbYhlfhnnM96ooOhI+RXnycpjS62s62fB6t/khRg0VVBTmqB1Y/dir8Ve/YSdCOEkgz4s7O16LAtqQjBNJ0Qkdm2nWursm0n8HzhHypbYnyQtm+lqDIbLeKszMVtqsWUGbDkiOkVRM0Z5ragBEAmr6E/5MyVGs9V8mZSM44GZh6GjD9fBgzL7ajIzxxHBLTTkXdrItQvvivcK+cCTP0DTVDkMSJky7adCHG/+ics12TDnssYdr5J2WTE43voWbhrVg38Wg05veyI6z0VIbmwfqSPP0YqXVHhOa06Y48NNx3CgLvTSTXP+BTe+32nH+T/XdlifM99YHmm5yd/meiLekIgV7UgQ5KhgRqO3MfQb6UoqoBRFuiZGh2vZK02G41Zc7OVBivBcJ0g+nL0I5QHSTIIxXVW2RRKiFy8X33JrjfmYWG2YzMSk6DOeskaqOBsGYy0ppFEzf7eKSopSIlZ9NxvgK1C+9AcN1TtGhfk0ZhBLUUOR6ic542V/SyYLZ8iMAbt8Fd/H14x/RA8/iejNK6wlD1I/2kVH5vJEf1Q2j0vticvzc2TDwE3peGAO5PqcWidNhVPuunmlNB2bd/k9CeD3QW4ez0uURbosL5zHka5Ow5LieB2kokbkteJ3StEoUXE9nVj1rJ+ieiLTmQUGrAeU1bJSe7RJydKZWgkg7tqZESgeJSQgzlaYLiFqMzaqWIMtP2x5hao+5TNL59N6rnXglPyVmIzTgXkdnnkVBnA0ryzTiV2ukMhEoHobqUpu3lO9PZ4ngtG25kIwGYsWqau8dQef9xCA+nWdLiRGobK7+TnZWOFneHb1J/eMfvA/edfVA++nBUvzAMcddyPi/bIKkVqTWztRhfI9o6mer8u7LE+Z76QJ9qZ7TUTLRlesqIzHmKdFSiqjxSRjSZuisIVGX/lhaVzGavepWm+V8ilwwlnOeK9LtNnJ0pZqgeSPkfFZMpAZO0YtQaQZKKBkYrUzlIyWSUv5viF7WIHxH6HvVv5KOi9BL4pl2GWNlgRGaeTSf7FJq1E5GaeSasWYOQePIS+J+8Cp7XJiPe8BF8q8roIJ+OZvo2obE94brrUITG/wgGNY05SiYrnW9qHt0N6wu/j/p5v0Rs8/NUWW77GeNaRcJoL2lSq5HkWt2hKkrn32T/XVnifK+1G7bSLMIwIpdo0LLNhAb3JiIju4pAylxnRCQVWUXazH1nErlE5HfmmfTh2Jbp2ylxdma6GJ2g46z5pHRRlvbiSUPvW+SVEo0quDd5TDNoKRLMiNfDtf4l1C6+EZWzL0UjI7Pw3HOQEHlmqODsPOIimDMGwVt6OZpmXI7aCQcj0bp2HmM7wzPhIGqaAxAv7G9nvP0jejDMp8l64iKG+dN4Pzre9HP0fGn/iQQ39Vx8Pu0TpGfP4QNtC63dYKv5TIcLyrF8n2hLVDS2mXBeo7ILZZVVx6PfdyWBJPsRzikNrexoS1RFkDlPkJneLZKrU9uGPr0iUOZTrLA/RjKF7eU4cpST4TXwrpyL6uf/AveM85CYQSd75lkwZ57P6O0iROYMRrKMkdsjhyNQ0JNk6W7XDtnOMjWO5sFiI5RZ7oe1DPNbPn8EVmItfRcfDCMOgypSqYaML6Ns89bP2DG0doPtaH5OODv9fWJba720AuJuIkI4r8s4wDvjROcikJZEOwm0rfYVCGTOE7a3MK3DkqtT24cGjZ98aiCT4b5hRhBPBBmmM8qSU6zCNM9XCH78KBrnXQfPTE1+XoB42Tk0Z6eTUKch+eTPEJy4P+LFfZEar7KQPMQZbblGdEbN3Yeh+e1RSAQ+tk1ngNSMKr6nzUwpOUnySLId4h1BazfYoklJZ6cLrxDtheI/JbS4L/vaHQnjMwX4O0sgpSIy5wlKVewWydWpbUPESdCECNrEQBOvghxskskQ0nXV2nZF0VG86XO0fPAQmuZejcC0c+gLncmI7XQkHzsCoaK+iI3rjnBRL1SM6I11xYeg6rURSPg+Ij3cZIiBKEmjVEJKNiuuubYY6fSt5H7O7UdrN2wRJd+yZ741Car5svZEUZN24HBeq+Tg74n2ROdkTJ+wswQ6mcicJyhZulskV6e2DZJlK/I4zQdH03aQIvRT7GlVG3bEZrhhbv4HfK9OgGf6ZQhqK5epZ9Lf2R8eZZBH9Uftc39CrP4dXpmO8sQXKjheyxdaW6TMuMXQX/NtW+6582jthi2i6YO2anAUgWm3jW2JTKFmxbNXkKpcpK2pjOxSEmFnCaTpGGd7E4jdIrk6tW2kTde/kkdIawOD8ZGQ1EAr62wwXoppJzM6uokIQhXvwfPKKPinnIDqEXujvvQXiJUvIVsa2AAd5ETS3omVtpHOsWp7IiRTLD0rTy5Ju219351DazdsEX1ynZFONnyE9vBpb2cMObwPEdkJQUVOytUI2fNY8qWUQtDrnSVQdnWiM0rcpZKrU7cN+R0ZbP1euiBNm2HS7tglsWE6wGGYiThC1CbaR5G6BAhtROiT6QiueByIrKFJiiGmYn6T18UIZS/N9M4dmtxQm8qGKzXF2zjuuWt9IIk62tnxbWEtcRXRnqhQLHuKQSTJECUDkUG+1OLW33eWQNkz/duaIN4pydWpbYMDpkG0BzKbRAqntQWw6nFo4hhOq7IxzlBb5RgJlWekAojyYhWqUR8Rmmejp0RmxHSe9phW0pLvSeMoqSmraK9RUwW+6pXUtn0/aUC95s/W0F3R2c5u86vNnZwdL0I9SLSllRR2n0S0J5oUzc4QCyuJXxAZ2VYYv70EknbUjH7mPBXLOZOdu1ScnWlxMJRT2RZs/2crBzpjyjSIrWZHjjbf00ZVyhcpb5O+rnW2n3xQDlDuTcYspUNzbdVp2Tknna/3VBOUpCnU1nryr9SW7UXzNSwXL+ZPzfuyUW26Jxf722drC9/+za3dsEWeJDIdL8ikSU4llhHO9zLQ7quPEzJLuUSFYs8QzqpHaaDhRPa6+l1BoGwtqnKR3SbOzkxDhGgL7Hz5NnKk7U+/oAGTRhJ4ve1kO9/XdZn3W89xYOsVpNQ4MnFyguT38DcVtCkbjqT2EaKJpFbjHe33oqRLgs/EX8QyarSETcp0W9nP7sS392zthi2SvWFB9nosbbei5TrOczJwEXcSmtSUqGgs124cJURbScqdJZDm5rI3cdgeU7vD4uxMZXJpSbYBnbf1J5j/p7HFP8keJMf79jnOa/8VUjCKuECi8l8b6Y19fdCcV5Dk0na+eq0ZfHHHvoYmEhZ9ri3PsS18e7/Wbtgi4whn5+cKwbUzhs4LEM5zM1AofxeRHc1Jg7VXXiFS6NwdJVD2vkPawCpD6N0izs5sn0C5BqMVWwjSBra8n/ZX2oKmJ1IGvaBkjNqGZjDehFDt22hZvQTxuN/e5Newd6unuWypoPmiGaMmSqGFjfM4lRebaQff3q+1G7ZI9vIeaZC2RKUcmrl3np8L2jdRmqs90Tr7jHbrKIFEEm3YkHkvg+1Zh79ToqmADORfJPkRtteC2eZKpFJU1Qq70/91QJIc9DTS5kyJ4szrzO8aLMNIayZlkDNwDqbAKJ6Ot6oYlfcJY9PyEnxUdDo+ufs8mO7PlJqk2fIj+P48VNx7MTY/fQdMRnUxUkulsPKHMvfWz/TrDDLP++3f3NoNW0SDJJ8mMwAqq2ivtFRJxlw7rkpDSVNJY21LZHbuJ5w+kiZo2yOQCs0kPyNy3V/O/26XrQdT330h/4UaQKAWSNlRVfqY3v9WMteJFAbPp4NM4qWJYEG7lOm1NjmQ2Uva56j9bRNIDnaIAxuS42y5UbFgKDYO3wu1k35Kn/lN0ieCeKwZlQ9dg7oh/bBi6CFoXr0U2tcskiTp5VDb9xRBeF+2lTGrfMc+5rx/azdsJdn7+WxvPY3mn5RNDhOazMwuNsslKtXIzN47obqfbNOTTW7t9KHFgwnHsQwWEXtEvu1MaQo6pMrhcJgshsxJ7c6hvLC9Qz39C5FIg2ODg6VAnP5IUqTjNXJtkyKLBpLvizDaqo50InRe+nrnADrJk47EtDZfdZFKQ7vQuORvcI/sDvekHyLpWiY32S7f8P7j7/h64lFYPf06mL4qxl8W4iSJSQba1df2c/Gn/Q7btZ9Bz0b323H/1m7YSm4jnIMhP6I9LZQRhdDbs1fhBYRzpw8nVH6Ra2WIorlc52dDpmx7n3enxVbt7Mi0iEV0TeVLyBZwuJrqyhEJNvG4HFS5rd+eqwGhQSAUPOsa1Qppb2ltVSXhJ58RlGXpd7VH+6F/HaQxTZOmjb6ONJb9rsgb4JUicgtcL94G9/AuqJt0COLuFXZon34EN8zAcj7iel5CUsTDJGvETkiKzOmTdH+RVvdO/y4nKa2RRN7cBNKkpjOPIiirvCtEm0ppJaqzbSe2Vf+sXV1zXZOBVrlq5eselShHTbNPqeqXEHzxz2gsvQ4NJX+Ge/EtCH80BF88cim+mpmPQNMq+kVeNH72LKoX3AHv8kmwyucg+tL/wTNjMCpmXIPqNx6AFXUhEfWi/tPF8Cy8DaHpg+CbdQXqn70BzW+OgdG4nJqGITlJFjdojkigsOpa9QVzqxYjPP93iJRejMCcq+F77S+IPn4coiPysGnykTB8q2GGK7F5aTGaXhoC70t3ouKNYhjulUglvPAbCXvLGCtWi5YvpqNx4S1omPlb1JURLw9By6rnoGXa0qb6Cql4GwSSqN4ne4B2ZnBESs2Ia1u77HaF7VmBoVxTrms1XSJSbs9OILtcpNxrVi3F+vuPQ2hoHgK356H+zv5oGMnXBXkIjuvM985FS+Xb/PS6Uf7Un1B1ZyfUT/w+B/U4VNzZBQ3D8rDi5v6ofbEQ+h4NI+zCxw/9AWtu7oFGtrd5WC9UDukEL4mw7v6T4d/0Ks1LiAOoNWA0LUkS7p2p2DjuMDTwGVw8t35Ib3wxqg98o3vaO5BteuAYpAKrEW/+GMsmHIqK4X3RPGQAPi4+FrGGpfSdWhCQJvXUwDX3Bmwq3BeNw/PQ/Lcu8AztjNrReVgz/gdwvzCUzKkAdSrCxr9GYU7JhNROKE/UnlOcLbmW7GQgTSeT2Z7JUa21c98hQQlCbcN3OPFvk7h7NT6Z8nOUj90flUWHIPxGEXyfTeOn9kr4C7shOCoP4Vf/SLuzkVqiGnVPXYeY6nYKB+DDohNQv+gmtCwvxPoFBQjVf2p/g46yxvXLn8DmBcPh+ngqGj8uRcP8G+xdOxqG9kPdrBtoehrtdfcyWc0fPYZVYw9Gzaju+Oqek1G7ZBQ8707GpldvR82kIxAd2RWVDxyJlIcmLFCOirfGwzPlBITz98I3k09FtOldfgz8NJVeND+Xj8Zh3VBb2BdNJRci+u79SCwdjca/H8lnpikc2QeBD/9OVzxMy5fQOLQpKgPNtZ5dW+xKQ21rS105wNqyN9dMu7C9q1AzooWGzutV7PYfId6PZqKu4AA0j+4Oz1sTbD9EyTmj5Z+oevhYaqJuqH5sMBKRzfQ/fKifcy1MaonG4V1R/3oB3Qr6IFYjf/roh3hgxPww4xxMQ/vSq9RdU6j8vCe/gmvBn+EbSq1UdDgM7erKd8zIJkZUZ9pfA1U3cV+ENyzk0SDPl45YB9/zf4R3WHdU3X8oneh3aUblz9QhPv8qBIbkUTuegphb9UMxRKqWYfOEY1BDp7t81uV05zbYk7DxRBjJ+hdR/dCRcI/qiqqHBiIVWkdnPKqx2KbIIdYm3s7By0AlG9rBVcuMlXDUdivKRGsis61staAite1ZB58RZa2z59H2yOZR2yPet6dw8LogRE2T3FhGf8hClL1uGRtRX3Y+6kb0wcbJlyMcaKCLTHP39J8R5cD5JnyPYfUyuqXagz7tIts7nBkqPQ2QSI3wrX2BJuNvCM3+OUJP/woNT14IX2E/NBTsj1j5m7Zb61+7hAQ+yDadroU38kgApsJvUzR2wbv4drQM64nK+0gg94eI8CKV80eevwFBmqj19xyDWPMKnptA4/L70TCqFyoK+sP39SN27OWnnx+QX4R6uF/8AzyjuqGOpixS/RqviWks2hVpmlwVhx2ForlfER0RmS6F6852NAG7x6Ks9iTw2WzU5O+NQH4n+F/XPsv8tHKAUo3L0HLfsSTQAHzz+C+QilRwEGKomH87fQoO9n1Hwmr51CaONr6TQ6p18JqRSrq/wOqZf8XX40/ExmH7oImEayBB6kb3h4taZvO4/RBap2/vicNDAteOOhDNw3vC/8U8HmOElIjBSCjs9sK7kAS6sxsJdBid5U/TWotoWXgTvCRQ+d1HIe79p91W/SsFdoFa7fh9ENs8m8eCJDRbtLf3qIX3rdsRGNEF7jH9ENyo1R3bR6CMaCu6bWmWbUGJwo6KvgExewczYbcVyO+IJH2rsObxK1GX3w+h8T9G+OVb4Pm0CP6p5yI1rD+d1X2wYblMVTU/5C5Uzr8NjSN60Cc5HcmWb0QXu2zDMhmWK7vLULph/i2oGj4Aa8f8BJufvgWRz56A+c1j8Cz6E2qLvofqAhJ2tUwVCfLWJGwefxgaxwxAaM2zPEZKGtpDUWmCEHwL74D/ji6oupcEav6CNEkH5PWL70ATneuKuw7nY8nBT6DmZT43j1WNPxihquepgbR4ke6bKhrRgsZ/FFCb9YE7fwACaxfwmKnx6JAozyNzpUlPFZdlD25b0Nr1XxLbKyrxcJa4ZrBHtq3riCStCCK1H8I9+WdI8hNdQ+2yMr8zGu/Ig/fmTqiZ9gtEoysR5qc1Rb+m6Zk/oHlkb5T//QIY/rUchAjJpUFPZ3HCTd+gasJRiLCdlnnXMsJy2z6VckSuz0vhye8PP6+PrH2Fx1rQsmIKvi4+Ek0F3RB6X19V4IVF8sR4kUG6+BYOQeiOTqi958ck0Gd28o//oHLJSFSPyUPlXYfCcL3J62jClj6IFv4N1WN+AN/652xNGjcMJEhsLZyuWTwcwaH94aXPF6taahOxtRt2SOQAaxpDXwanEF+7xmtPHiUJ7yOyB1/QlIPOUVbZueJDr5W5lnPeluM9lfiPE31KW1YtQs3EQ9Aw8cf8ZN+CmpduRd2SGxH66G6O+0bbbHhTCrer0fLMdWjRyokHT0TS+xU/3hppekfaxoUSpG9TWfhDBEig6FujSALRRNII/0u3IDiyFzz0geLr5YMYCFW+iZUkr2cszeKjJ5MkH9m+i+4p0nkX3QwvyVx1z0/p2H9tm0xte+VaeANc1DbVE49gQPeOfa5//RJUFA2w9wqqXfhXEruBGlE0sXjO+6iccjJNXGdsmDIIVmANPxARjctuE5W+ZpMgA+VutC2vVm5kvgoz15REBtoq+D9SEr41+OrBi9BE3yD25GlIfv4giTMevuV/Q2D5aPj++QwSvgYqGEZZ5iY0PHMjIzBqqClH0Af6zJ5hVwmqSldldKINH2DtxOPgH90Zvkd/hsiauQhWvovw22xz7N4IF3RF7bh9Efv0MTsTbJlBVDx7NerpxIeG7QXXQ2cj+OG98NDE+d+9F77JhyNGrdJ4z1EMzFbYO6bFLDdCC6609wSqpp+WqH+PSikEM1GN8qeuQhMjuupiaqEld8JYMx/xL0pR8+QlaBrbExuGd0HFB6XklAtWtFFjs1vlcqKtHND2QPNk/zERVy5J+jbgmylXoGFoL0Y1neEaQfN0R2dsvi0Pbjq/taP3wobp18D0q3Y5gK9m344vh+6LVfefDpPkUwGXvWqCn+YYTYtp+unMFtkbIATo0LpH9URF4f/gq6EHom7CYYzC9kbVCGqUuZczaKtN74pPh73y4RNQd2snGNQ2Qd63fNgAbBraFyGSxE8CrSvWXNjLPD9Jvsaw+bn/w6cj++CDu2guG5fbBNKEr7l5OaoeOBfr8g9C+YjuaBrXDbVjumLN0N5YPfxgND17M/3tSt7UQ1UW1BjtdtFXNEkbZa9k3RZEHK2k2G2lqLtKkAgguv5N1C4Yiqqyq1E96zrUPzcEniXD4Ss5E4HxnbE+vydcHzwhpmDd23Pw+fTrsXZRPmKhejushpKHJkNr/rC/HyxSB9e7j6DqyctRcc9xqHj4QlQvKYBR8zaa35iML+4/FWvnX4VkZD2CDKliWgrU9A+4XxkB1yODUDXpNPpYg+F/ZRi8rw7Bujk34PPFBYiGVzHaU6rAj/L3pmNF2U34/PkiGN4Nth+WIIlTBjVR43rUvD4Z66YP4ofjx1j76DFY/9Tv4Foxn6arkcTRRpwh+8vwWrthj4j8HEVQ2pFe0ZWy0JpdF1RFqMyydkuTX6Xw/b9C4vp+jHgDwg3vUq1v4vBnJkJJhNqXUXPvvqiheal/MZ/vKwYiRVI8L1kFfb9pkL6zPRmrZTupFJWRTJk8FbaToOnzr+dLRnA8pvDb4vnxUDlNn/YM8ukye+GgQZdXs+jxOAkddJEPSkLq6xUU5yk5oOJ8ahh7GzwVkcmY8R6qclPEZspljiJKgvEE+1oY5bzXJ9R09NXogynqUoG+XZjfGj22dsN3sqNi0gcpX/YAPqff0vTCrQivXgSj+iNEV7+Opvl/RGNRd6ynSXH/4wEqGlUd01wllSnWZlTpslKtrLBnt6mJ9EW9+oTbs/r20Iscgs5JcADTFKUBsc2XHZeTAPpuDs20S4MpE6UEpZYnaoWGzld5CMwAGyJxrDDba90dRG3IjvLeqpeO8XxtFsrfCN09zSeR0z5uRXlquu5Il7V2w3eyo9JS/Tk+nHQWXPQzFDk1j9kPrjEHomnUADTTh6mjT1JTMpiqf709kBog2/nl2GjwtCWVBlM7dyhfZ+sFHtfXZiKplRk2P/hTxCOxYj7+bmjhMrUF/9Fcg0HamKQUtY8K2GzK2N+cqO/u4NDzPDal/TNtJSjHXWfFSDD7K8NFVhJQrpi2eBH1VJ1kL0LUbQmRRYWvWrmh5UJUlrbyau2G72RHxYw0IrDyOdTNvQ6uu45GfdEhWDvhUGy+5yeof+B4BF4fT39zPcc5TtBX4SdYAyOFoNFRGkC7mtlbw5AtYZIjwk+4/ZWZHDgNoF3701q5mEp6ObjaBY0kVOhP8sRIAk1uKgNtf+WUck6qI0oJJBFfa9NhXWPzjfeyF/BYfr6vQjcaOPteIo2+bUjajMTLgo7bGXOep/2PhNZu+E52VPT1TpIUiWG5v0Gi6h0EGRbHmj8AQkoU8lPLQYskObD6KkuaKH1yNWD6R3XL9tdS8hgMah2DmsTUd4ylC/Ttb4JWrbIKzUgiurmknN4jeRJ+Hvepmtn2aqSRbG3RCl2a/tagMO+lfdPS675EJpkjO4HJxydn7OexC9dSMnP82VqKK/2oysR0vkoJT0J/sw0D/w+Ts3yDlqnY9QAAAABJRU5ErkJggg==;" parent="1" vertex="1">
          <mxGeometry x="1366" y="1611.95" width="54" height="24.75" as="geometry" />
        </mxCell>
        <mxCell id="W_6RqLE3xj3r34jLqila-49" value="Python套件（astropy、Sympy…）" style="rounded=0;whiteSpace=wrap;html=1;fillColor=light-dark(#fceadb, #EDEDED);glass=0;shadow=1;" parent="1" vertex="1">
          <mxGeometry x="470" y="1372" width="260" height="30" as="geometry" />
        </mxCell>
        <mxCell id="W_6RqLE3xj3r34jLqila-51" value="模擬太陽系中行星軌道" style="rounded=0;whiteSpace=wrap;html=1;fillColor=light-dark(#b1d5f7, #EDEDED);" parent="1" vertex="1">
          <mxGeometry x="485" y="1272" width="230" height="20" as="geometry" />
        </mxCell>
        <mxCell id="W_6RqLE3xj3r34jLqila-52" value="分析水星的逆行運動數據" style="rounded=0;whiteSpace=wrap;html=1;fillColor=light-dark(#b1d5f7, #EDEDED);" parent="1" vertex="1">
          <mxGeometry x="485" y="1302" width="230" height="20" as="geometry" />
        </mxCell>
        <mxCell id="W_6RqLE3xj3r34jLqila-53" value="可視化凌越系外行星的光變曲線" style="rounded=0;whiteSpace=wrap;html=1;fillColor=light-dark(#b1d5f7, #EDEDED);" parent="1" vertex="1">
          <mxGeometry x="485" y="1332" width="230" height="20" as="geometry" />
        </mxCell>
        <mxCell id="W_6RqLE3xj3r34jLqila-56" value="&lt;font style=&quot;font-size: 14px; color: light-dark(rgb(255, 0, 0), rgb(237, 237, 237));&quot; face=&quot;Times New Roman&quot;&gt;1 week&lt;/font&gt;" style="text;html=1;align=center;verticalAlign=middle;resizable=0;points=[];autosize=1;strokeColor=light-dark(#ff0000, #ededed);fillColor=none;dashed=1;dashPattern=8 8;" parent="1" vertex="1">
          <mxGeometry x="373" y="1200" width="60" height="30" as="geometry" />
        </mxCell>
        <mxCell id="W_6RqLE3xj3r34jLqila-57" value="&lt;font style=&quot;font-size: 14px; color: rgb(255, 0, 0);&quot; face=&quot;Times New Roman&quot;&gt;3 weeks&lt;/font&gt;" style="text;html=1;align=center;verticalAlign=middle;resizable=0;points=[];autosize=1;strokeColor=light-dark(#ff0000, #ededed);fillColor=none;dashed=1;dashPattern=8 8;" parent="1" vertex="1">
          <mxGeometry x="364" y="1300" width="70" height="30" as="geometry" />
        </mxCell>
        <mxCell id="W_6RqLE3xj3r34jLqila-58" value="&lt;div&gt;Astropy(python 套件)&lt;/div&gt;" style="rounded=0;whiteSpace=wrap;html=1;fillColor=light-dark(#fbeca2, #EDEDED);shadow=1;" parent="1" vertex="1">
          <mxGeometry x="240" y="1110" width="143" height="30" as="geometry" />
        </mxCell>
        <mxCell id="W_6RqLE3xj3r34jLqila-71" style="edgeStyle=orthogonalEdgeStyle;rounded=0;orthogonalLoop=1;jettySize=auto;html=1;entryX=0;entryY=0.5;entryDx=0;entryDy=0;" parent="1" source="W_6RqLE3xj3r34jLqila-59" target="W_6RqLE3xj3r34jLqila-70" edge="1">
          <mxGeometry relative="1" as="geometry" />
        </mxCell>
        <mxCell id="W_6RqLE3xj3r34jLqila-72" style="edgeStyle=orthogonalEdgeStyle;rounded=0;orthogonalLoop=1;jettySize=auto;html=1;entryX=0;entryY=0.5;entryDx=0;entryDy=0;" parent="1" source="W_6RqLE3xj3r34jLqila-59" target="W_6RqLE3xj3r34jLqila-69" edge="1">
          <mxGeometry relative="1" as="geometry">
            <Array as="points">
              <mxPoint x="560" y="1125" />
              <mxPoint x="560" y="1070" />
            </Array>
          </mxGeometry>
        </mxCell>
        <mxCell id="W_6RqLE3xj3r34jLqila-59" value="&lt;div&gt;FIFS File&lt;/div&gt;" style="rounded=0;whiteSpace=wrap;html=1;fillColor=light-dark(#fcc4fb, #EDEDED);shadow=1;" parent="1" vertex="1">
          <mxGeometry x="414" y="1110" width="120" height="30" as="geometry" />
        </mxCell>
        <mxCell id="W_6RqLE3xj3r34jLqila-60" style="edgeStyle=orthogonalEdgeStyle;rounded=0;orthogonalLoop=1;jettySize=auto;html=1;entryX=-0.025;entryY=0.517;entryDx=0;entryDy=0;entryPerimeter=0;" parent="1" source="W_6RqLE3xj3r34jLqila-58" target="W_6RqLE3xj3r34jLqila-59" edge="1">
          <mxGeometry relative="1" as="geometry" />
        </mxCell>
        <mxCell id="W_6RqLE3xj3r34jLqila-67" style="edgeStyle=orthogonalEdgeStyle;rounded=0;orthogonalLoop=1;jettySize=auto;html=1;entryX=0.5;entryY=0;entryDx=0;entryDy=0;" parent="1" source="W_6RqLE3xj3r34jLqila-61" target="W_6RqLE3xj3r34jLqila-59" edge="1">
          <mxGeometry relative="1" as="geometry" />
        </mxCell>
        <mxCell id="W_6RqLE3xj3r34jLqila-61" value="&lt;div&gt;Sumpy(python 套件)&lt;/div&gt;" style="rounded=0;whiteSpace=wrap;html=1;fillColor=light-dark(#fbeca2, #EDEDED);shadow=1;" parent="1" vertex="1">
          <mxGeometry x="402" y="978.31" width="144" height="30" as="geometry" />
        </mxCell>
        <mxCell id="W_6RqLE3xj3r34jLqila-68" style="edgeStyle=orthogonalEdgeStyle;rounded=0;orthogonalLoop=1;jettySize=auto;html=1;" parent="1" source="W_6RqLE3xj3r34jLqila-62" edge="1">
          <mxGeometry relative="1" as="geometry">
            <mxPoint x="470" y="1060" as="targetPoint" />
          </mxGeometry>
        </mxCell>
        <mxCell id="W_6RqLE3xj3r34jLqila-62" value="&lt;div&gt;擷取資料：Fido.Fetch()&lt;/div&gt;" style="rounded=0;whiteSpace=wrap;html=1;fillColor=light-dark(#9fdaf5, #EDEDED);shadow=1;verticalAlign=top;" parent="1" vertex="1">
          <mxGeometry x="172" y="1030" width="270" height="60" as="geometry" />
        </mxCell>
        <mxCell id="W_6RqLE3xj3r34jLqila-63" value="&lt;div&gt;設備儀器&lt;/div&gt;" style="rounded=0;whiteSpace=wrap;html=1;fillColor=light-dark(#b1d5f7, #EDEDED);shadow=0;" parent="1" vertex="1">
          <mxGeometry x="182" y="1055" width="120" height="30" as="geometry" />
        </mxCell>
        <mxCell id="W_6RqLE3xj3r34jLqila-64" value="&lt;div&gt;時間&lt;/div&gt;" style="rounded=0;whiteSpace=wrap;html=1;fillColor=light-dark(#b1d5f7, #EDEDED);shadow=0;" parent="1" vertex="1">
          <mxGeometry x="313" y="1055" width="120" height="30" as="geometry" />
        </mxCell>
        <mxCell id="W_6RqLE3xj3r34jLqila-69" value="&lt;div&gt;Sumpy.Map&lt;/div&gt;" style="rounded=0;whiteSpace=wrap;html=1;fillColor=light-dark(#b1d5f7, #EDEDED);shadow=1;" parent="1" vertex="1">
          <mxGeometry x="665.37" y="1055" width="120" height="30" as="geometry" />
        </mxCell>
        <mxCell id="W_6RqLE3xj3r34jLqila-70" value="&lt;div&gt;Sumpy.Timeseries&lt;/div&gt;" style="rounded=0;whiteSpace=wrap;html=1;fillColor=light-dark(#b1d5f7, #EDEDED);shadow=1;" parent="1" vertex="1">
          <mxGeometry x="665.37" y="1110" width="120" height="30" as="geometry" />
        </mxCell>
        <mxCell id="W_6RqLE3xj3r34jLqila-73" value="&lt;font face=&quot;Times New Roman&quot;&gt;時間序列資料&lt;/font&gt;" style="text;html=1;align=center;verticalAlign=middle;resizable=0;points=[];autosize=1;strokeColor=none;fillColor=none;" parent="1" vertex="1">
          <mxGeometry x="565.37" y="1100" width="100" height="30" as="geometry" />
        </mxCell>
        <mxCell id="W_6RqLE3xj3r34jLqila-74" value="&lt;font face=&quot;Times New Roman&quot;&gt;資料視覺化&lt;/font&gt;" style="text;html=1;align=center;verticalAlign=middle;resizable=0;points=[];autosize=1;strokeColor=none;fillColor=none;" parent="1" vertex="1">
          <mxGeometry x="575.37" y="1045" width="80" height="30" as="geometry" />
        </mxCell>
        <mxCell id="W_6RqLE3xj3r34jLqila-76" value="課程設計01：探索太陽系行星的軌道軌跡" style="rounded=0;whiteSpace=wrap;html=1;fillColor=light-dark(#9fdaf5, #EDEDED);shadow=1;" parent="1" vertex="1">
          <mxGeometry x="344" y="934.31" width="260" height="30" as="geometry" />
        </mxCell>
        <mxCell id="W_6RqLE3xj3r34jLqila-84" style="edgeStyle=orthogonalEdgeStyle;rounded=0;orthogonalLoop=1;jettySize=auto;html=1;" parent="1" source="W_6RqLE3xj3r34jLqila-77" target="W_6RqLE3xj3r34jLqila-80" edge="1">
          <mxGeometry relative="1" as="geometry" />
        </mxCell>
        <mxCell id="W_6RqLE3xj3r34jLqila-85" style="edgeStyle=orthogonalEdgeStyle;rounded=0;orthogonalLoop=1;jettySize=auto;html=1;entryX=0;entryY=0.5;entryDx=0;entryDy=0;" parent="1" source="W_6RqLE3xj3r34jLqila-77" target="W_6RqLE3xj3r34jLqila-82" edge="1">
          <mxGeometry relative="1" as="geometry" />
        </mxCell>
        <mxCell id="W_6RqLE3xj3r34jLqila-77" value="&lt;div&gt;Astropy&lt;/div&gt;&lt;div&gt;(python 套件)&lt;/div&gt;" style="rounded=0;whiteSpace=wrap;html=1;fillColor=light-dark(#fbeca2, #EDEDED);shadow=1;" parent="1" vertex="1">
          <mxGeometry x="880" y="1022.5" width="80" height="62.5" as="geometry" />
        </mxCell>
        <mxCell id="W_6RqLE3xj3r34jLqila-87" style="edgeStyle=orthogonalEdgeStyle;rounded=0;orthogonalLoop=1;jettySize=auto;html=1;entryX=0;entryY=0.5;entryDx=0;entryDy=0;" parent="1" source="W_6RqLE3xj3r34jLqila-80" target="W_6RqLE3xj3r34jLqila-86" edge="1">
          <mxGeometry relative="1" as="geometry" />
        </mxCell>
        <mxCell id="W_6RqLE3xj3r34jLqila-80" value="從 MPC 擷取小行星和彗星資" style="rounded=0;whiteSpace=wrap;html=1;fillColor=light-dark(#fcdfc0, #EDEDED);shadow=1;verticalAlign=bottom;" parent="1" vertex="1">
          <mxGeometry x="1000" y="1015" width="260" height="30" as="geometry" />
        </mxCell>
        <mxCell id="W_6RqLE3xj3r34jLqila-81" value="Astroquery.mpc" style="rounded=0;whiteSpace=wrap;html=1;fillColor=light-dark(#fbeca2, #EDEDED);shadow=1;" parent="1" vertex="1">
          <mxGeometry x="1020" y="1003.75" width="144" height="20" as="geometry" />
        </mxCell>
        <mxCell id="W_6RqLE3xj3r34jLqila-89" style="edgeStyle=orthogonalEdgeStyle;rounded=0;orthogonalLoop=1;jettySize=auto;html=1;entryX=0;entryY=0.5;entryDx=0;entryDy=0;" parent="1" source="W_6RqLE3xj3r34jLqila-82" target="W_6RqLE3xj3r34jLqila-86" edge="1">
          <mxGeometry relative="1" as="geometry" />
        </mxCell>
        <mxCell id="W_6RqLE3xj3r34jLqila-82" value="擷取行星、小行星和彗星的軌道資料" style="rounded=0;whiteSpace=wrap;html=1;fillColor=light-dark(#fcdfc0, #EDEDED);shadow=1;verticalAlign=bottom;" parent="1" vertex="1">
          <mxGeometry x="1000" y="1070" width="260" height="30" as="geometry" />
        </mxCell>
        <mxCell id="W_6RqLE3xj3r34jLqila-83" value="Astroquery.jplhorizons" style="rounded=0;whiteSpace=wrap;html=1;fillColor=light-dark(#fbeca2, #EDEDED);shadow=1;" parent="1" vertex="1">
          <mxGeometry x="1020" y="1058.75" width="144" height="20" as="geometry" />
        </mxCell>
        <mxCell id="W_6RqLE3xj3r34jLqila-92" style="edgeStyle=orthogonalEdgeStyle;rounded=0;orthogonalLoop=1;jettySize=auto;html=1;entryX=0;entryY=0.5;entryDx=0;entryDy=0;" parent="1" source="W_6RqLE3xj3r34jLqila-86" target="W_6RqLE3xj3r34jLqila-91" edge="1">
          <mxGeometry relative="1" as="geometry" />
        </mxCell>
        <mxCell id="W_6RqLE3xj3r34jLqila-93" style="edgeStyle=orthogonalEdgeStyle;rounded=0;orthogonalLoop=1;jettySize=auto;html=1;entryX=0;entryY=0.5;entryDx=0;entryDy=0;" parent="1" source="W_6RqLE3xj3r34jLqila-86" target="W_6RqLE3xj3r34jLqila-90" edge="1">
          <mxGeometry relative="1" as="geometry" />
        </mxCell>
        <mxCell id="W_6RqLE3xj3r34jLqila-86" value="&lt;div&gt;Ploty(python套件)&lt;/div&gt;" style="rounded=0;whiteSpace=wrap;html=1;fillColor=light-dark(#fcc4fb, #EDEDED);shadow=1;" parent="1" vertex="1">
          <mxGeometry x="1300" y="1045" width="120" height="30" as="geometry" />
        </mxCell>
        <mxCell id="W_6RqLE3xj3r34jLqila-90" value="&lt;div&gt;水星逆行&lt;/div&gt;" style="rounded=0;whiteSpace=wrap;html=1;fillColor=light-dark(#b1d5f7, #EDEDED);shadow=1;" parent="1" vertex="1">
          <mxGeometry x="1450" y="1061.25" width="120" height="30" as="geometry" />
        </mxCell>
        <mxCell id="W_6RqLE3xj3r34jLqila-91" value="&lt;div&gt;行星運行軌道&lt;/div&gt;" style="rounded=0;whiteSpace=wrap;html=1;fillColor=light-dark(#b1d5f7, #EDEDED);shadow=1;" parent="1" vertex="1">
          <mxGeometry x="1450" y="1022.5" width="120" height="30" as="geometry" />
        </mxCell>
        <mxCell id="W_6RqLE3xj3r34jLqila-95" style="edgeStyle=orthogonalEdgeStyle;rounded=0;orthogonalLoop=1;jettySize=auto;html=1;" parent="1" source="W_6RqLE3xj3r34jLqila-94" target="W_6RqLE3xj3r34jLqila-86" edge="1">
          <mxGeometry relative="1" as="geometry" />
        </mxCell>
        <mxCell id="W_6RqLE3xj3r34jLqila-94" value="資料視覺化" style="rounded=0;whiteSpace=wrap;html=1;fillColor=light-dark(#fceadb, #EDEDED);glass=0;shadow=1;" parent="1" vertex="1">
          <mxGeometry x="1315" y="992.5" width="90" height="30" as="geometry" />
        </mxCell>
        <mxCell id="W_6RqLE3xj3r34jLqila-96" value="課程設計02：了解水星逆行的現象" style="rounded=0;whiteSpace=wrap;html=1;fillColor=light-dark(#9fdaf5, #EDEDED);shadow=1;" parent="1" vertex="1">
          <mxGeometry x="1095" y="950" width="260" height="30" as="geometry" />
        </mxCell>
        <mxCell id="H9l12tLdnF7aZDhb0lx9-1" value="實驗描述" style="rounded=0;whiteSpace=wrap;html=1;fillColor=light-dark(#fcdfc0, #EDEDED);shadow=1;" parent="1" vertex="1">
          <mxGeometry x="1024" y="1439.2" width="260" height="30" as="geometry" />
        </mxCell>
        <mxCell id="H9l12tLdnF7aZDhb0lx9-2" value="實驗組 (N=48)" style="rounded=0;whiteSpace=wrap;html=1;fillColor=light-dark(#fbeca2, #EDEDED);shadow=1;" parent="1" vertex="1">
          <mxGeometry x="1024" y="1519.2" width="120" height="30" as="geometry" />
        </mxCell>
        <mxCell id="H9l12tLdnF7aZDhb0lx9-3" value="對照組 (N=48)" style="rounded=0;whiteSpace=wrap;html=1;fillColor=light-dark(#fbeca2, #EDEDED);shadow=1;" parent="1" vertex="1">
          <mxGeometry x="1164" y="1519.2" width="120" height="30" as="geometry" />
        </mxCell>
        <mxCell id="H9l12tLdnF7aZDhb0lx9-6" value="天文核心知識前側" style="rounded=0;whiteSpace=wrap;html=1;fillColor=light-dark(#d0f4de, #EDEDED);shadow=1;" parent="1" vertex="1">
          <mxGeometry x="1024" y="1479.2" width="260" height="30" as="geometry" />
        </mxCell>
        <mxCell id="H9l12tLdnF7aZDhb0lx9-35" style="edgeStyle=orthogonalEdgeStyle;rounded=0;orthogonalLoop=1;jettySize=auto;html=1;" parent="1" source="H9l12tLdnF7aZDhb0lx9-7" edge="1">
          <mxGeometry relative="1" as="geometry">
            <mxPoint x="1320" y="1574.1999999999998" as="targetPoint" />
          </mxGeometry>
        </mxCell>
        <mxCell id="H9l12tLdnF7aZDhb0lx9-7" value="學習目標" style="rounded=0;whiteSpace=wrap;html=1;fillColor=light-dark(#9fdaf5, #EDEDED);shadow=1;" parent="1" vertex="1">
          <mxGeometry x="1024" y="1559.2" width="260" height="30" as="geometry" />
        </mxCell>
        <mxCell id="H9l12tLdnF7aZDhb0lx9-8" value="" style="rounded=0;whiteSpace=wrap;html=1;fillColor=light-dark(#9fdaf5, #EDEDED);shadow=1;" parent="1" vertex="1">
          <mxGeometry x="1323" y="1489.2" width="250" height="100" as="geometry" />
        </mxCell>
        <mxCell id="H9l12tLdnF7aZDhb0lx9-9" value="行星運行模擬" style="rounded=0;whiteSpace=wrap;html=1;fillColor=light-dark(#b1d5f7, #EDEDED);" parent="1" vertex="1">
          <mxGeometry x="1333" y="1499.2" width="230" height="20" as="geometry" />
        </mxCell>
        <mxCell id="H9l12tLdnF7aZDhb0lx9-10" value="水星逆行現象的視覺化" style="rounded=0;whiteSpace=wrap;html=1;fillColor=light-dark(#b1d5f7, #EDEDED);" parent="1" vertex="1">
          <mxGeometry x="1333" y="1529.2" width="230" height="20" as="geometry" />
        </mxCell>
        <mxCell id="H9l12tLdnF7aZDhb0lx9-11" value="凌日系外行星的光變曲線分析" style="rounded=0;whiteSpace=wrap;html=1;fillColor=light-dark(#b1d5f7, #EDEDED);" parent="1" vertex="1">
          <mxGeometry x="1333" y="1559.2" width="230" height="20" as="geometry" />
        </mxCell>
        <mxCell id="H9l12tLdnF7aZDhb0lx9-14" value="教師講授&lt;div&gt;線上資源自行搜尋&lt;/div&gt;" style="rounded=0;whiteSpace=wrap;html=1;fillColor=light-dark(#64a9f6, #EDEDED);shadow=1;" parent="1" vertex="1">
          <mxGeometry x="780" y="1317" width="120" height="50" as="geometry" />
        </mxCell>
        <mxCell id="H9l12tLdnF7aZDhb0lx9-15" value="教師講授&lt;div&gt;線上資源自行搜尋&lt;/div&gt;" style="rounded=0;whiteSpace=wrap;html=1;fillColor=light-dark(#64a9f6, #EDEDED);shadow=1;" parent="1" vertex="1">
          <mxGeometry x="950" y="1292" width="120" height="50" as="geometry" />
        </mxCell>
        <mxCell id="H9l12tLdnF7aZDhb0lx9-22" value="" style="edgeStyle=orthogonalEdgeStyle;rounded=0;orthogonalLoop=1;jettySize=auto;html=1;" parent="1" source="H9l12tLdnF7aZDhb0lx9-16" target="H9l12tLdnF7aZDhb0lx9-19" edge="1">
          <mxGeometry relative="1" as="geometry" />
        </mxCell>
        <mxCell id="H9l12tLdnF7aZDhb0lx9-16" value="教師講授&lt;div&gt;GPT輔助&lt;/div&gt;" style="rounded=0;whiteSpace=wrap;html=1;fillColor=light-dark(#b1d5f7, #EDEDED);shadow=0;" parent="1" vertex="1">
          <mxGeometry x="1159" y="1631.7" width="120" height="40" as="geometry" />
        </mxCell>
        <mxCell id="H9l12tLdnF7aZDhb0lx9-17" value="Python套件（astropy、Sympy…）" style="rounded=0;whiteSpace=wrap;html=1;fillColor=light-dark(#fceadb, #EDEDED);glass=0;shadow=1;" parent="1" vertex="1">
          <mxGeometry x="1320" y="1441.5" width="260" height="30" as="geometry" />
        </mxCell>
        <mxCell id="H9l12tLdnF7aZDhb0lx9-19" value="生成式AI聊天機器人" style="rounded=0;whiteSpace=wrap;html=1;fillColor=light-dark(#fbeca2, #EDEDED);shadow=1;" parent="1" vertex="1">
          <mxGeometry x="1300" y="1636.7" width="120" height="30" as="geometry" />
        </mxCell>
        <mxCell id="W_6RqLE3xj3r34jLqila-46" value="" style="shape=flexArrow;endArrow=classic;html=1;rounded=0;width=7.704918032786885;endSize=4.027868852459017;endWidth=13.735747820254863;fillColor=#fff2cc;gradientColor=#ffd966;strokeColor=light-dark(#000000, #6d5100);exitX=0.979;exitY=0.518;exitDx=0;exitDy=0;exitPerimeter=0;" parent="1" edge="1">
          <mxGeometry width="50" height="50" relative="1" as="geometry">
            <mxPoint x="1272.48" y="1651.4700000000003" as="sourcePoint" />
            <mxPoint x="1305" y="1651.93" as="targetPoint" />
          </mxGeometry>
        </mxCell>
        <mxCell id="H9l12tLdnF7aZDhb0lx9-21" value="" style="shape=image;verticalLabelPosition=bottom;labelBackgroundColor=default;verticalAlign=top;aspect=fixed;imageAspect=0;image=data:image/png,iVBORw0KGgoAAAANSUhEUgAAASEAAAA2CAYAAACIuS+MAAAAAXNSR0IArs4c6QAAAARnQU1BAACxjwv8YQUAAAAJcEhZcwAAFxEAABcRAcom8z8AACmhSURBVHhe7V0JXFRV+74gAyjCgKZlufSV5ZI7CuYSKqtLapprfS2uuYBbKW4hrpmKay5pmZqafiqIgOCSmrtZ6d/qK620Rc0VFAVUmPf/PnfO6Mx4ZpgZBtQ+nt/v+d3LuWe7wnl837O8VylGMYrxv40DSsWSSZ6+VRI12gabPbStEty924K4RxqeIY/IXoxiFKMYBUOKUsYnyd23bbLGN26Lu3Y/C81FvtI2d1/ayfxSEPdIS+RnTOTZjzJbuSzqENUVoxjFKIZtSHPzDkxx1y5O0mjP7WBx2c3czuQ0gghBbDabEWl4hjzIizIoizqS3X2WpLh5NxbVOw1PMEcxjzJzmPQQEv1C/9DPCswHjqyQppVvhgS2zwwOjM0MCUy4ERL4Q2ZwQHpGcICOmXed7zn9Bzy7GRoYmxPa+GVdWMNKongxHiJQiFJZF660Z8bqQpUE5o8UqmTwVQeK+x+Zm3VhykTkRRlR/KFEgpvvS1s12uRUFhKIyFa+mouNvYQooa5UZopGm5LEbYjmCoRezOtM2cB/WIn+9mYWObIjmjybFRI4lnk0MyRARxFNSGX4i8QiQyxEdC04QCXukYZnhnwsUnkoizqyWzZ4VlRbjAcAXYTyLAvKWApTjvJVR20UorbM1sxwZhgzVBD3SMMz5OG8KMP8hoVpHF+rimofONaVLPMUi8XKNBYKuFcyS6egRJ2oG22gLbQpmrcbbzFlg/xR4dvMIsHVlgF1s0MDV2aFBmZT66aUF/aiieDYSpTRcVnUkRUakJ0TGrgis1VgHdFMMYoALD51WDRWsjWTfVd0jAXHVqKMECWuL4e5itPriWYeCBI1Pt3Y+rmwh8UB7pRMQJxJtIG20GaCxqe76IbNKMfMZsoG96NC9L88s9DwR+PGZVh45rPlkkutmxC7X1JxcYSoC3WyuN3JCQmch7ZEs8UoBOgaK2VYeOazWOSq4uOI8Fgi6oIYhSu5oo0i/10maXxmwjqBq5RgJhaFSbSFNtH2Fo3PLNEdmxDNlA3sR414j0IBC0VbtlTOwGqBYGRIhKSgRJ16MWrKrlvgmSstAtqK5ovhROhClDZsAZ12uviY854YndEFK0Xyu1yvKO48+Dd+BREwEwgZE9y8aZPiQRt4/PzHjBsVF4pXPGmzxkda1hrRNvqQpPHdhD6J7lnFcaZsUD9qPMZ0Oq6HBMTkhb+oul2FIT7mRBu5YY1VMbrWquFE7oKLvifFKCjYKnlfdZtAmXAUBiOY+vYmiG4UCjDYkzTaVAx+mTAYE8IDodnEIpP2bE3a36YjfftOFH0/ahydeG8MfdNnAO0NaUNbK1VlMXJT86qCJKnLGvVCpE21RYhymbJB/ajxDtOpyGwV8FlhWj8yoh1MYN8KbXwto2VAD9GVfwT+aFyx5O3aVRrfrldx4M26FR2ewHQELEDLqR2LQWFaP5aINrlt9EF0x+lI1Phssi5AvqqQQFBSn65GJ8aMpyuHj1BudjZZwu3r1+ni7j10LHIYJT9eiVhMKMGllFqXvI37qfZJ4xMvumkRsgH9qNJpuB4csI7aNCW+SsWisAjRyw5t/OP5lo1eEF35xyDjhUrP5tStTNToGcqsXbGnSC506EKVdaoAyQSiKAkh4r6IbjkN8RqfWXvzEQaIz5bHKtDPs2ar4mIvsi9coO/HxVBCKV/VfbNXiNBH0V0pZIP5UaVTkBHcaFlRC1AmU7W6QgNT/6kT0xSkuF2vU/EXavgv4usckVyo4EG/tEgFKITZSlxlzyFEIcoy0b0CY6O79lV1Ilgy+FW6easWzL42HejGmd+FpJji24TN9Fmf/jSjVRjFhbWmtUOH06l9+8VTU6QfP0FfBjZVRW2zRtKehOgb+oi+im7fB9lgflRZYKS3DHgPYuCIAGVhYtloL9B95GfIY1wG7pdajtu8ERK4QHTjH4vrtSuuEyK0XyQVGniwv+t0AWrGbMwMYDZltmRCcOByvcTE8zAXoiZ8bSHSzeuAEAUr74luOozNXl6Pb3H3uYoVKdngx8QzBOj4sPeEhJji3I//pektQ+gtxVVlnxIe1NfVne8V6sf3n77xFmVlZIjc95Cbk0OHu7+u1m2rEKGP6Cv6LLpvAtlgLgivMbczpzGx/6g1s5W44uepTDxHPln5grBAuNLCv+ntsMb3CUV+zMV+HxYZtmZuMPdcD240O7NVwCC2qF4DcX8jpFEcniEP8qIMyqK9O8xrrQKGim48sjj/olL+WpDL5LP+SimRdB8ya1caRv5PE4tRRnrdKr4i2enQhSlN1ElhZ84BQWCWjSLaH0+0hAd2VFOiDr5EzTm9LrPnv4gOJhL9+TPRthVE7csQW3/314M+cd90LZSmorsOYZO792rszZEuw2t8VJE4MWqskA5T/HLgIEWVq0BvKyVosO9jFGnEKFx9yvAzhaY05LFw/m9RyhSHe76pWkSJFkTQmOij6Otq0X0TyAazI8RRin5MW49SIF9fJsrJ6nOEDuN0UJAnC8RJHVsrtkxCI4+6C5oFhUXrRHZI48FZNhzF0EUEVLwZEjAYZahNM9Rx7Wpwo3bi8SOL35soT15s7nKWwl3oXDMXixbd9TqVmuXVq0J59SpTVt3KBRqElqCLUDzYDTvp1FWwYFxLEGVcJLp+heiGmFfJyyU6/T3RhkVEf/xXn2bA/k164ZK5Ztw37uMpFilP0W27wG5WYxwulbthvqo4HGGRkOHir7/R0CcqUh83T4r0K28iQhCgIYLD/MpRH65nRvMWdIetH3Pk5uZSavNWtJHz2CJE6Cv6jL6L17gL2WC2h38y32AWBCiPemT120OHkR7UaALmgWSCY051BSviRWwuzICg7AoKchPV2AyUyQ4LHHApqFFDkfRIAwP/QnOXTRTsQjktXejPpkon8cgExNYPrCBYQ9fYKhLJTgULxgSnu2Fwtd54Rj/6hr/EP3sQ9atHFNePrZ7Pia6e0z8zxq1sos5+erdMVifcslAlVnTbLmzS+GzHPItssGNZPa1qTbpz44boyD3odDqaGRLBLlcJqwI0VBBC1Jv/SeMtWFSXfv+dlpcpT1tcbVvCR5/jNdpt4jXuQjaYbeUmprN2KqMeLOXJ2rGVDuFmr2pP3mjZ+GZ2S72LlB+F9XPkWnCj50UVxWBcCFJKX2ru8guE6Epzl/S/mitSyzCzTsX96rxQ7YpfiCSnQddKeYpdsZvq+S7ZwHeUmAea9Kp+5L36mN7CAQOZ9ZidOY0HuAku/8V/K576iWpZndxH7msW+iy6bxN4EPvr51gkA93NhzYoLnR+a5rohCkOfr6a+H98Fp9y+QsQczjnG1K6DA329Kaz3/8gajHF7vkf0TyuM8WG+SH0GX1HnCLxOipkg9kWFtbqBuqVtWcLHcKtL13i6NNylNGC/d/mLEQhcvFRLaDWTehGSMC2s/7+Fuc9/pfxR3MlICPIJQ9CdKGZyx6RbIIbdSrO0YtQpZP8S3MVyU6BLkSJU3dDywZ9QdiIuWkO+zJ/6i0b1T0z4ovM5ePEsGTATZvSU59unM+c2FUdrMwW3bcJm919PsYJdtkghwDtC20nOmGK3Dt3KNY/gPpoSt4VH+sCxFdtOb4vR/14fK3q1VfUZIrbt27RtJp1aYmLh01ChL7H8zuI11FhPpBtYWGv4nzElLWbH+1GRpLid2eHkk5HFbq1wpuut/GnjCZN5ALEFtANtoAwfySKF0OCc02VEToWIQjR2WYKdn2bILN2xR7U4Gm6WafSnew6lf8lkgsMHtB+7N6kO90KArHa9fPXRHs36FfGzJ9j3geW0bBmRLN6s6tWR1/GPJ859X3NQN/Fa1jFeqVc6Xh37SVpOA6NdSvoh+07qZeLhgZrbROg4RAg5nDOP7SUlkaVq2Bxknp33Bwawr+C5SX98hUi9D3BXXsR7yJeSzqYrXEH0xzhTEdPDfszQ/S3JtjJlLVvjXbj1jalD32t0J1tCuXuV+h2ggdldq9FGY1N54cwCc0uWPrZEP+HOnbMwwK2gpIgQjdauNCfzdXV0bu4VvvJaixAOmpQha7XeUo6d+QI2ArqUyhWENypNu5Et7KIFg6Vi5CBWLaHiwZBkj2XEdZQiLpIky8S3b1bI6iYbHBvUtxp27O1KO/2bSENpvh88BB6i0XKZgtICNAIkNMGcNkjK1eJ2kyRfuZ3ep/zjC3lS595qjGGpH00EO+wid9FvJZ0MFtiBtPcf63BNDzfx+zABEowMSdQn4nZcFzxs8H8foV5gGkoaz640Y69y/h24/Z2ZQcdZBHaLoToK9y70o13ntMLUSv9cj2soMstGyLm0v88LndVhp7rpFQRP0pxNkh57Epzl/Pq/NBLLmf/ClbKikfKUX9/zfXaFU/DJcusU2m6SC4weCDvVGMByQZ6QYgl+L4v6EdbVGO90MjyOUrEJOK+i9ewigSNz2xLrhhWxL7tH6nvpxl0eXk0qWFj6q8pZZcFZBCg95iDFVdaY8ElAz5uEUKj2SWb4F2GVrAQJVsRIvUdND5x4rWkg9kS32WaowvTPB82ov3MNA8Rgp9/YuK5cTp4VxWNgA1d5vms0S7QdkV7e5uSRbuECAkhusM/Q4yyxlZSXbPc4KaU0SrgO1HsfxosQG9TH4Wud1euXuupvJsSoXiIR/fhr2ZKCCwhMT+UKJJVsPjEi3mhXSKpQGB3SMuuWJbTXDHM+WCPDwSnJnPaa0S3c/RWESwdPDOfF3KUYeoqWRbeQbyORbAbcxBhVmUDGyL0+8rVQhJMcfXPv2gou1MDS/vabQFBgEYyh7qVpNmBTe+fgBdIGT6SorkPk1iEJnmXpZUQIkk/QfEOMEJUyAazjOeZssnYrkxZfnvZhmkOtId2ZflltAtsBTWDFZRrECBj7uT0AwrlxJVjv51FqNmL/6jDpI7icjfl/ZzXlDy264neZDHqoXzP7Cwe34dzTV2mQIR0rbB/SLm7JH+9TqVo/abFSpep5r25AUfBA7hZga0giAomkuFuQWy6PkE0qCHRsDZEX6fq9wiNak00kNO68DPslkZelCmoIMEaaqU0F68jxXJF8eSBexmhVY0HtEoRluPK4a+FJJji14OHqL+HF0Vqy9ptAUGARvHP75b0pklVnqVsyS5q4OuPl9EY/lVMYQGaXLosTWGusiBE4h0u453wbrLBLKMls7kaM48pK2MrbzMtbfT7kCkrI6NdYCtoiDofJBMhcAf/cRxR6NZyr4vnlde9RDG70GlGVpVuH90J6xSXHeJsduZ6O8ymp0VTRYaLXZUGmT2UpDv/5n8fFqNcvrJllJrRVWkkspjgYnOXvRCijJdccs81UdR9UZl1KrfS1a9CufUq07XaTxU4WDq7M0Nsmg+CuBiW13GP3cu4QkyCXYneDSHaNI/o1LdEWZlieEmAZyc5D/KiDMoaxMtQp3E7sr4YUz8vNES8jhSJnn6VDYHnzQd1gqsXbfYsQ5m//iY6aIrjSSnU10VDUUKE7LGAIEDRXG6Ul5bGl32Crlo4g/bT5i00XilBU7zK0rTSZegDwc8lQoR3wLvgnfBussEso/QPjIHVDx1TVsZWQsQsBSULYMrKyGgX2PX6jA5JxMeI6vN9jp987hiXFf36Cv6P8yPn87XlRB1n5awUTRU50nsoHdkKOg6LCGLE97rM7sriy68oFUUWFVebKpWvvuSSASG63Nzl5OkgxTO9ShXf7LqViBqp+4UGiqwOgy2hz6xaQhAGrFaFlSAa0EBP3DfgtFYsIDP7Ef32f2I4OYBfuSzqQF3+aJOvA+qz1cTthLuJtpFugeg7v4N4HSmwPwixnGWxohNcvGiLT3nK+uus6JApvtkYT30VN4csIAjQGOZoL18ax/kunzolajXFL2nbKUZxp2leZWg6i8+HIN/P4OtqFqIko/7iHdR3EfuFZIPZnGeZMt8fm/UKKkAGwhqSrTyhXbQvK2NOu8AidJj23i88xoQlxG5blChiNzrOzhne/WOiV2bfcjohRB3jcg6Jph4IjvormmvdlWEsQBdUF00vRldudFdG7jI6kvBnM+VV7KSmEBc639xFjS9zrVbFt7MbPB1+3b/CY2qmAkAXyr9LnBWTDXAMfrhMUc1ZaE6IIcP49TjRBywcPxwQCU4A6pramy2p70QC48wP7NK10PfBkhDhLBm/g3gdKTaW0LbCt8CMxcdAWEKJXo/RTQtWyjG2UvopGocsIAjQWL4fU8qXYvzK09XTp0WtpjjJ1tYEFroPSvupAjSDBWgWX2fxz7iaCxHeJaGEtiXeTTaYzSlblgfGMmX5HaUlc9TW5Xq7wCJznr6Uiw+YC3dsP9+nKWGiiN1QRWgJi1BcjtPZeW4eLKFzoqkHigtdlCdYfOZd66HkGuaL2GX7MaO7Omeo4nxTlyV3MEnd3GUydVFXT50GHsDnLQ5wHLnoUYUo24p7VdjIucmm6zP6vsj6yH1ndwzznxaB5XlLRzVwYj7etRSlH5Nbcyf3fEUDNCVpCAuKvRYQBGicD4uQpw9NfaoK3bh0SdRqiuMrVrEIKSYCFMcCNJuvs/nnOcy1LEQGdxLvgnfCu8kGszktRYRbw5Tld5RLmDJ8ypTlN6ddYAvnFoRGJkBg3k7+49il0K3t6vYCh1CYIqRaRLOy8R22QsX+EXXKH4627YhKek+lXmZPJfHO6/xvx2KU92+FWJi2XeiqNP29reL390vKiyKrU8ED+JZ0cIOYq1k9SQyVB4h1H+j7IusjE+8gXkcKayIEYqPi2YQtojFTXDh5ioayoAzx9jOxgIb5lKUoj9I0kK2kgVx+EPYRKa40zNWdor20dwVoPOcb41aK5tbxp7zcXFGrKXaPn6CKEARoppEAQXzmMed7+dH8Un70hYdeiOwVoblMGTBXIsvvKD9hymDrUQ67IBMeY+pYhPJYpG5tVRyOclioIiQomio07B1Zf8qJ2Ea5B0bXP3Qguv60w6PrBx+KCbD6GWB20dqzJfSdOl/UW6HL3ZTr/Fde4FUwS5AN6rvEkvrudWKoWEFeHlHaSqIV04h++VYkWgHyIG/aCn3Z/LB3o/4MmqyPguJ1pLDmjoFYov9hXKxozBS3s7MppvoLFOnpzSJUnoaysLzDrtMgVw+KrfYCLevSjeJHvEdJY8bTfwZG0qLgcBrnx1YSC9J47zIUwwIWrZSgz1/pKmq8H1+07UiTOY+xBWQQoAUsQB+xAC1kLmauZyGCCNnjjs1nyrCIKcvvKGcwZYAIyvKb0y78EyyhjnHZVv/3dAa+GlnvwJnpjenU1EA6OSWQvn2/Ie2Prv/3wej68YdGNxh0ZHTDWiKrCXYFKW5sFUXdekO5dKmrY6fFbUW+ltCayWKoWAD+d49prz+MisnqoBJEh5PEQwkOJ+vzIC/KvM9lc++IhxawbnqBLCFrE9PgRhaA3S+2FI3dj6Vde1B/tniGsQANYStncYfO9H1KKuVITtsDF3/6mTb06U+jWKzeL6mlkTzGvpo+Uzw1RdaVKzSnfCX60L20RQFaxFzC/LikH31Skq0hFqKtdkxMr2LKMJgpy+8oEfRMBrQvy29Ou8BC8+jPCcVlW51HcAZ2j6xf4/DYBn0Pjqm/bn90g7+OjvennycH0i8sSj9OCqD9oxsQW0gn+PmCQ6P9Ox5+txE+J34X5yKUcvzLcepBVXMUeE7ouy/1AmGIkgjrCXuELAHPkAd5UQZlv9spHkpw6ybR6wWcE7KyRA8mlChN8W5edO2HH0Wjptj/yWfUl8fJOy4laDNbPLbiyNJPaLSLhsa5uNP5Y8dFqilOrFpDk7ju/ARoqRAgHO3AZsb1dizR4ziGDJgnkOV3hPhahqW9QmhfVsacdoGFxrbVsbQCro4Vkgi9ugD1ZltdUbEH/fr10/Tu3bsM2KVLF+nE8bERdbwOjK4XdHCMfyy7Z3v3RdfPYldNtZJOsZV0fEIj4rRrB6Ib7Dg41j9678gGcEBcmvSa7o16Y2Ji7I69ZAtsXh07K19eVl2lhkZlsFP6rarioQRvPWd6fANlcbhVhvO/EQ1jC6WAq2NWNysKwiU7Nni4aNgUmZcu0agnKrIb5krzQiNEqm3YM3U6LfJvLH66H583b0UfuLjZJEDLWXzWQIQ8fO3arHiVaWkOAOEaZWXspaVJaW/mFaasjDntgk37hA7zH8f2guwTyrF7n5BeXOTCY8yuiznfrGyre0vsAYvQS4MHD07v37//Vb6vLpKt4sjYhpUOjq7f/cDoBp+wlXTy0JgG9NPkANVKOv1BYzoUXfv0yP5vBPTrP+AK1321T58+Bd6YKINN+4RqM7/4QAwbMyBaYveniOpzHuzpQV5rk9mr2b1DHuRFme5PEl27LB6aYf0Molqcx5IAgTbsEwKsHdsAE1xL0WYe/JaC2m96b5QalmOEtx8t69SFFoW3pSWt29GGQZF05uBhkUsCHdHV3+QbIU9tSaKpigvNZqGxRYBwrmyDpx997mH/sY1Qpgz4MkRBP6B4hAmxkQHtysrIaBfy3THNpD0sQtuUS8fSHndox3THWVmvd1uc923HWdnf2EIWl6PsYh3TC82t+4THmOr+o1k5Dltp5hgwYEDI0KFDadCgQdSrVy91nmduTKTP4slDK6yPibHpS5rfjqtX99Do+sPYRdt6PKbh9SPRLyyv++a0p1mAaMiQIQShE1mdCnZl8t8xDZcJMYEs4Q92Y8a/StS/CdHaaSLRCiBoyIsyv8tdIBUJ863OBam0Ycc0YO0Aq5760K4HX+kuGjfF9QsXaOyTlWmoRykawu7VUHazhmMnNZd5z82Tjq+3YM1ZwJ2sLFpaozZ96OphswDhKMcWFqG1Hr52H2A1XqbHH6Rx1HwELMdnTDCxJitriVnMhUxLAgSgXVlZGe2C1bNjTGJmbXelYfsaUoXEdkX2nawOs3I6d12kY6GxLkJdFxF1irvttDjN77zzTqvIyEjiK7HFoq4Izo+NfPfTD0fe4OvpebGRX8+fGJXI94sXTIwa/9GkqN4LY4e0Xjgxsv5Hk4ZXYlfLJM4SPvFzdZSifaN3VJ2BAwcShIhFqJl47FSwFZH/2TEIwcIoMXyKEIvZPcpPhLjv+Z0dAxD+wlIoj7vU+KhC9NviZaIDpvjuPxtpED8f6aW9tw9IW46iNaVofGktXfjRiqCaIbXfQJrCdc3xKmuzAGHTYiKnrxXL84BsMMt4g2mYcESYjRNMbCI0Du1RlYnJapiVvzFl9eAUPZbi32HmF9AK7aFdWT0y2oWrslP0RgL01zZPap/8Ij2+syNVSwwrslP0sIi6LLTukmFSmq2gmxFzdVaXyu2BTITmTRj8yaYlsbR6zhhaM28srZ03Tr2unjuGVsZF0ycfvkeLJg+l+bGDc1iczvP1xPwJg3fMj41auWT6qAkzp0Y//+ab/aoXgQjlf4oe57j6iZAcRYl36ujblvUJxKS0jafo05THvRAQTBrUzIgJJUrRJrZs/k7bITphiu3TplMk/7ON8vRWBQj7gGJYjEYprrSsZZjIZR1HZs1mN0xR3TBbBQjnyDYw13poL+JdxGtJB7MlGkdUhOBcZkJUZJOYSJfV8Q3TVtgbYdFusDV0L54QE1YR7VDo6zRfCkhqSU8ktaUaSWH0wlftqFpCcKHHE+o4M7tXN3UiOx8raLF6bgyfTnIaZCI0d1xk/aUfjHh7QezgcSwsC9ka2sxic3hBbORvfM3gK/Fz+mzmSFo1ezStmasXKnDz0km0eEpUz6BX+lQsbBECeCDvsGoNYRULk8nfbBPDSAKEqciTBwWTIu8OgvWIHyTAihnalH1xw0BYQTbGEwIQGtW6Swb6qkHOEkr50NnkVNEZUxxY/DGNZfEZxmNnjFtJGl/Sh9738FF/Pjhnnsglx+EPZ6oCFOepNRUgFh3Em57PZBfnPgHCjumtzHXuPiZzwLLBbIk4aIoDpQYYDpeuZRp/Qwqf/jEva0xZ2A5zBDLtPZ1vN3INkRVZfHRCgDalPUlVk8KpUlIbVYCqM2tsi6AaqeHpz6wPKbTIih1mZlXqPO92+qvz2cqRCI8xMR/UYVZ2b1HUKZCJkCUsWdJPsyRm+GMLJw6ptmDSkJcWTIzsOj92yFAWppksTGvnTxy8++Npw3/6dPLQBt3e6PtskYiQLZEVIQi9a1ne03NgM1HbJ4gOyncem+BQsj4vvkMmA+JM92UryHgVTUb9fJBNkRUBHPq0GOjehHoh2lDCg45ZEJVLP5+kxCHDaU6d+jT18Yr0QYXK9FH9hnR4/kcihxz7JkyiyTzm5rHw3BUgFqTFzP3DR9E3E6fSoXejaSW7aSvdfe4K0HoP7peHL20sYKD7U0xjszGZiXScYUpifsU0D2ZmTrYErQKC9gtTVtYa7QYhxvR2JR0T0HDBZm2tShW2tKVnklh0hACp3MLW0J62VH1r2JEqy50fYzoohjw7zb11pJu64iUXHgM7z1NdsfQOs8mpHw+0R4TsgAvXV78oRIhdnvxjTGOFCkHrp8u/yUVXzxMNCyGqw3lef47ooyii1E/Y90jRM205pw0h+vfz+g8eDmlJdEXyuR9gZi99W9ZWxeyMMW0APptj7QjHPXIe11K0hv951rVtT6e/NTpYawREXsz8+2+6aeFcmAypb/WlaVzvPHb9FrL4zEEbtf3FU6Ibv/9BK9y8aJXGRxWgL1iAtrIA/cfdOZ/8geloWC3BnBD2N8jyWaI1EcIA382UlcuPDiFvmxKXd7QERabUpce2tKPn2Aq6Kz7mQrS3HdXYGr6tQmI7p31to13M2VIsQNvEapdUeIzZYynyZc8SxZ0GYxHq379/TaS9/fbb5Xr37v24PeTy5cGePQeoA6uoRAhgiyL/r23ANYI4zOxj2ZWCJTS2A5ub4iuqhthAuEfamPZsAbHVJAW7dPgeGSajrblhIKwgO7+2ASS4eQdi93T+1pCeWzRa+oLHyBR2uVb8+y06uW0H3c7KEv11HAfGxdDS8k/RQk0pWvl0VTq3Z594QnRy2Wf0CbdpEKANzGQWIfRdvMZdyAazLcTJeizPA9gNi9jS45gjmf9hysoYOIgpA0I6INynrIwtdAh/7Cj5VM+0wJtPpLaXi48ZVSFKCz9SfVNwgb871nGq7vnO8+4cUQVIIjjmhBXUac6tm+2n33xSVOE0mInQc0FBQW59+/Y9wz9n8tUuogwLDqxm1FuryEQI3x0LteG7YwYhimxG9OsxMWwkgEhdYevoj5/0xL21c2KISRQVpK87PwHiPuIbafZ+d8yAeHfvzy1+BlpChNHAruoJiguNcPWguOq1aN1rb9KeDz6k/1vzBf2clEI/Jyapp+H3xEyk1WFtaFPX18SLWUb2lSt0+cT3dOfGTZGix5ftX6UV3BYECG7YDg8/2uCu/Vx03wSywWwrMfks+6OCpSPLb6AsiFULJv5oZfltpcPw29w2tvaBl1VrRyY8JoRFtLstC1FERvXUsMFBu+z/AitLrVvTtfMGd5lDGd0WQYCy7xMcGXssU+eCJohanApjEWLRqAoRYjGiESNGEPYP2UOUYcHJFfUWmQgBbA3F2PwFVuxiDnEnmsduF0TGUfx5kmjBUK7TI99DqneJPgYrDv8u07y8yrOwXMH8kEx0ZITlhKMfM738KFrjRaMVVzUk6zi+vq9oKEZxU0/Cg5M4LZavhz+cJV7SdmT8+F9a7VGa1rqVVgUoiS0gbv9KmuIl/ViqbDDby3lM4wnb/ETI+LPRzzCddRDWYVTZFeRZLSn0VM1dbWwWIhYheuErFqPU8BM1U1sPrr0rwiSioAzIA+FCmRf2tqFm6xZRp5l51Hlm/kKEfUEd426dDIo57fQ5KcBYhNitwldUXFg0ugwYMOB1vtpFlGGLSI09zUJWtyhFiF0mT7aGbPsWPeZrDOFdw1iMRrclSmKzFIHI8BlnS7iVw3l+JEpm33jsy2zVsPigDsSdtjYHZKD+W/Qn0VfRbYcQ767tjLkhW90y0JA3joVogk8ZNSb01NJl1YiIakAyvhriAc0s6U3TXd3pVHyieHHbsDOsHa3kXwUEKF61gvDBQ63FWOSywewI8XmepcyXmfiygiyPgVhNg/u2gnlTpDmDBcLzm0Ob1tzRGqIiFx4LRBks4VdPDr9RPSV8T43k8NnVk0MHVU8K6aGS75FWLTlsN/Igb82dLHZJoVR1ayPyXz+SOs6+Rq/OsOySdZ6bS10W5FGHmVlNRHedDmMRcuLENOotsjkhA9jNaaKeJbNFEAyEGMEywsFUuFI9KxMNbUoU24lo+ht64h4fOMSzEBd9Xlg+tsSRNhB9wlkx7qPoboGwSeMzc68d1hBoECLscp4IAWLBMYRkNY0HVJZmunnRbLZqflpjQzgUxteRw9gNYwHi+jeyAO1mNwx9FN2VQjaYH1UWGNUSQ9+rtZ/dsmS54FgjxKvml21UQVK5p62e4mdYWTKBq7o1kGrHv0Ht5p+WC9Hs26ob1nFGFj6BVGgws4SwD8wpwCR3UYsQwG7Zuza7ZeY0fPIHZ8MgMhAbg+AgDafhHf3CBvdJF6w49XeZqPHZ+JWDQjS3FKyhewJ0XzwgFqI57LrNZlfty/4DKf1ndj0luHjgEO2MaCcEyEediN7t7kfom+imRcgG86NKp4BdrWW1MD9kJhaFx3B6bmsTqrGlHYUtPkRdPoQQGTYr3tIL0OwcWJmFCmMRYleqZa9evZ4cNGhQgYg62DULexAiBLDLs9RhISoMQoBC1CNOTsUSRdFs0Wi3OipEiHgId8xyQLIy6jL8XB5ny7wfo+TQNnQgajgdHT2e9vXqT8mNmtLnriXvumCqBaQKkDb1KPdNdNMiZIP5UaXTUD0lbJ0qRA5YRI4xnJ5PeYkZRC0+3aRaRJ3iclUBemV2jsOn+O0BRAhCgcloZjbzJotGVkGIOlAXhI1FqchFCGAh+uKhECIIUKjjERnyg16IfDZAiByZI0LUwxnepgKEkKymRzHK0FJNaVqiuDIV4v8Z1WX4VWwlfaHxvjsHhB3d6Mv6e1t5rAIrGLIB/agR8YicimrJ4Z/BNaux1b45IscZTtWSW7FVFEhN1iyg7p+wEM2+7bRQHfmBhSIcq1pRUVEmK13OIE7QDx8+HOKGVdAiBw/+T1UhsmeOyFlEm/q2i+R3yYN/BsLAYtXM1uV7CBFWzSA2s0wsoPzPghn2ARlWwRBqBH0Q3bEJBQ3D8bDwGNPpqJYcOgHzPOpEsi2rZgUlt1FzZwRV3xNEgWunFcpSvCVgoyFbQt3YWnE62SXrhrqx+VE0V+TQhSnvqytmtqyaOYv32ivS3+VmjU/XrRrt39hHZKtVZMj3MQvOXDsFCPM/2AeU7K79G22LbtgMfHRQNqgfNVr6eGKBwRZK2+rbIs7U2q/ulpaLhxOIutFGTW4LbYrmi+FE6EKUNrpw5Yy6q7owrSLUjd3Q3JYuWHkgv8s1Jcs+udVd+xl2Vtu6jG+IX72MBQcilJ8AwfrBUQzshOayK9YpZRzaeIn/mfI76/WwE/2XboJyFmquCytTY1v4vBpp4bni6IZUSBwh6hK7sHOZ89GWaLYYhQC2iMqwOMzna67TxcggPly3aOOB/y4T3fyapWi0SQj/gbma/MKAGIRoOQvPEokAIR4QwnHgNPxmFqFED21SvJtvvrGQ8gMCzMsG96NCSwHynY7ntoTVrZ4WsbJGakR2rX1iv0+KA4LEZVAWddRIDc9Gnc+nRNQRzRSjCMACUZe5ksUiWxUjuE2OCBLKoKxefHJ0EVwn1y2aeWiQ5OYdmOKuXZSk0Z5FYDQIEuZvELPaMCdkLkQQHQgQYkIjJGsiczOT3a+z8VyX7BxYQYCwENeZskH+sBL9dWo4C1vxQkrEszW2RYxly+UoC4oOO6fVvUBftlHDfpgIE98j7d4eorZI06Es6kBdotpiPACwaDzLojGWxeQoX3VqTCKDKOEMmrEw4R5peIZ8iAXEZZjfsJiN46vT9lcVFhKUst5p7t6tkzQ+s1h89m3RaC9AdOC2YUIbrhuIe6StYVdrlYfvxbUevvvWlfSdtcHdr80qpYzTgumZowJzFPNrJr7sKRv4D5roF/qHfqK/Dxw1t7erXC0t4mV2q2KrJ4clMH9gprMA5VVPCs1T75GWEh5fIyVsIvKijChejIcIFKJUZlF6mQUlVheqJDB/YKYzdSALUYZIS2DBmcT52lM7kyNLjxx2KVU8Uz39KrHLVn9LCW0LfBUVxD3S8Ax5RHYnQ1H+H8uCOTlYuvUgAAAAAElFTkSuQmCC;" parent="1" vertex="1">
          <mxGeometry x="1000" y="1610.36" width="114.22" height="21.34" as="geometry" />
        </mxCell>
        <mxCell id="H9l12tLdnF7aZDhb0lx9-36" style="edgeStyle=orthogonalEdgeStyle;rounded=0;orthogonalLoop=1;jettySize=auto;html=1;entryX=0;entryY=0.5;entryDx=0;entryDy=0;" parent="1" source="H9l12tLdnF7aZDhb0lx9-24" target="H9l12tLdnF7aZDhb0lx9-26" edge="1">
          <mxGeometry relative="1" as="geometry" />
        </mxCell>
        <mxCell id="H9l12tLdnF7aZDhb0lx9-37" style="edgeStyle=orthogonalEdgeStyle;rounded=0;orthogonalLoop=1;jettySize=auto;html=1;" parent="1" source="H9l12tLdnF7aZDhb0lx9-24" target="H9l12tLdnF7aZDhb0lx9-25" edge="1">
          <mxGeometry relative="1" as="geometry">
            <Array as="points">
              <mxPoint x="1300" y="1735" />
              <mxPoint x="1300" y="1695" />
            </Array>
          </mxGeometry>
        </mxCell>
        <mxCell id="H9l12tLdnF7aZDhb0lx9-39" style="edgeStyle=orthogonalEdgeStyle;rounded=0;orthogonalLoop=1;jettySize=auto;html=1;entryX=0;entryY=0.5;entryDx=0;entryDy=0;" parent="1" source="H9l12tLdnF7aZDhb0lx9-24" target="H9l12tLdnF7aZDhb0lx9-27" edge="1">
          <mxGeometry relative="1" as="geometry">
            <Array as="points">
              <mxPoint x="1300" y="1735" />
              <mxPoint x="1300" y="1775" />
            </Array>
          </mxGeometry>
        </mxCell>
        <mxCell id="H9l12tLdnF7aZDhb0lx9-24" value="天文核心知識後測、質性訪談" style="rounded=0;whiteSpace=wrap;html=1;fillColor=light-dark(#d0f4de, #EDEDED);shadow=1;" parent="1" vertex="1">
          <mxGeometry x="1024" y="1690" width="260" height="90" as="geometry" />
        </mxCell>
        <mxCell id="H9l12tLdnF7aZDhb0lx9-43" style="edgeStyle=orthogonalEdgeStyle;rounded=0;orthogonalLoop=1;jettySize=auto;html=1;entryX=0;entryY=0.5;entryDx=0;entryDy=0;" parent="1" source="H9l12tLdnF7aZDhb0lx9-25" target="H9l12tLdnF7aZDhb0lx9-40" edge="1">
          <mxGeometry relative="1" as="geometry" />
        </mxCell>
        <mxCell id="H9l12tLdnF7aZDhb0lx9-25" value="ACONVA" style="rounded=0;whiteSpace=wrap;html=1;fillColor=light-dark(#fbeca2, #EDEDED);shadow=1;" parent="1" vertex="1">
          <mxGeometry x="1315" y="1680" width="90" height="30" as="geometry" />
        </mxCell>
        <mxCell id="H9l12tLdnF7aZDhb0lx9-26" value="皮爾森相關分析" style="rounded=0;whiteSpace=wrap;html=1;fillColor=light-dark(#fbeca2, #EDEDED);shadow=1;" parent="1" vertex="1">
          <mxGeometry x="1315" y="1720" width="90" height="30" as="geometry" />
        </mxCell>
        <mxCell id="H9l12tLdnF7aZDhb0lx9-45" style="edgeStyle=orthogonalEdgeStyle;rounded=0;orthogonalLoop=1;jettySize=auto;html=1;entryX=0;entryY=0.5;entryDx=0;entryDy=0;" parent="1" source="H9l12tLdnF7aZDhb0lx9-27" target="H9l12tLdnF7aZDhb0lx9-42" edge="1">
          <mxGeometry relative="1" as="geometry" />
        </mxCell>
        <mxCell id="H9l12tLdnF7aZDhb0lx9-27" value="ENA" style="rounded=0;whiteSpace=wrap;html=1;fillColor=light-dark(#fbeca2, #EDEDED);shadow=1;" parent="1" vertex="1">
          <mxGeometry x="1315" y="1760" width="90" height="30" as="geometry" />
        </mxCell>
        <mxCell id="H9l12tLdnF7aZDhb0lx9-34" style="edgeStyle=orthogonalEdgeStyle;rounded=0;orthogonalLoop=1;jettySize=auto;html=1;entryX=0.507;entryY=0.033;entryDx=0;entryDy=0;entryPerimeter=0;" parent="1" source="H9l12tLdnF7aZDhb0lx9-17" target="H9l12tLdnF7aZDhb0lx9-8" edge="1">
          <mxGeometry relative="1" as="geometry" />
        </mxCell>
        <mxCell id="H9l12tLdnF7aZDhb0lx9-40" value="STEM自我成效" style="rounded=0;whiteSpace=wrap;html=1;fillColor=light-dark(#ffd580, #EDEDED);shadow=1;" parent="1" vertex="1">
          <mxGeometry x="1430" y="1680" width="170" height="30" as="geometry" />
        </mxCell>
        <mxCell id="H9l12tLdnF7aZDhb0lx9-41" value="學習態度與STEM素養變化" style="rounded=0;whiteSpace=wrap;html=1;fillColor=light-dark(#ffd580, #EDEDED);shadow=1;" parent="1" vertex="1">
          <mxGeometry x="1430" y="1720" width="170" height="30" as="geometry" />
        </mxCell>
        <mxCell id="H9l12tLdnF7aZDhb0lx9-42" value="STEM上的學習行為與學習模式&lt;span style=&quot;font-family: monospace; font-size: 0px; text-align: start; text-wrap: nowrap;&quot;&gt;%3mxGraphModel%3E%3Croot%3E%3CmxCell%20id%3D%220%22%2F%3E%3CmxCell%20id%3D%221%22%20parent%3D%220%22%2F%3E%3CmxCell%20id%3D%222%22%20value%3D%22ACONVA%22%20style%3D%22rounded%3D0%3BwhiteSpace%3Dwrap%3Bhtml%3D1%3BfillColor%3Dlight-dark(%23fbeca2%2C%20%23EDEDED)%3Bshadow%3D1%3B%22%20vertex%3D%221%22%20parent%3D%221%22%3E%3CmxGeometry%20x%3D%221315%22%20y%3D%221680%22%20width%3D%2290%22%20height%3D%2230%22%20as%3D%22geometry%22%2F%3E%3C%2FmxCell%3E%3C%2Froot%3E%3C%2FmxGraphModel%&lt;/span&gt;" style="rounded=0;whiteSpace=wrap;html=1;fillColor=light-dark(#ffd580, #EDEDED);shadow=1;" parent="1" vertex="1">
          <mxGeometry x="1430" y="1760" width="170" height="30" as="geometry" />
        </mxCell>
        <mxCell id="H9l12tLdnF7aZDhb0lx9-44" style="edgeStyle=orthogonalEdgeStyle;rounded=0;orthogonalLoop=1;jettySize=auto;html=1;entryX=0.027;entryY=0.547;entryDx=0;entryDy=0;entryPerimeter=0;" parent="1" source="H9l12tLdnF7aZDhb0lx9-26" target="H9l12tLdnF7aZDhb0lx9-41" edge="1">
          <mxGeometry relative="1" as="geometry" />
        </mxCell>
        <mxCell id="W_6RqLE3xj3r34jLqila-32" value="" style="shape=flexArrow;endArrow=classic;html=1;rounded=0;width=11.140939597315436;endSize=5.028187919463087;endWidth=9.645511463447592;fillColor=#fff2cc;gradientColor=#ffd966;strokeColor=light-dark(#000000, #6d5100);" parent="1" edge="1">
          <mxGeometry width="50" height="50" relative="1" as="geometry">
            <mxPoint x="1082" y="1500" as="sourcePoint" />
            <mxPoint x="1082" y="1530.2" as="targetPoint" />
          </mxGeometry>
        </mxCell>
        <mxCell id="FAZIJQEJNdmTviYIEOLT-3" value="" style="shape=flexArrow;endArrow=classic;html=1;rounded=0;width=11.140939597315436;endSize=5.028187919463087;endWidth=9.645511463447592;fillColor=#fff2cc;gradientColor=#ffd966;strokeColor=light-dark(#000000, #6d5100);" parent="1" edge="1">
          <mxGeometry width="50" height="50" relative="1" as="geometry">
            <mxPoint x="1224.9" y="1499" as="sourcePoint" />
            <mxPoint x="1224.9" y="1529.2" as="targetPoint" />
          </mxGeometry>
        </mxCell>
        <mxCell id="FAZIJQEJNdmTviYIEOLT-4" value="" style="shape=flexArrow;endArrow=classic;html=1;rounded=0;width=11.140939597315436;endSize=5.028187919463087;endWidth=9.645511463447592;fillColor=#fff2cc;gradientColor=#ffd966;strokeColor=light-dark(#000000, #6d5100);" parent="1" edge="1">
          <mxGeometry width="50" height="50" relative="1" as="geometry">
            <mxPoint x="1153.8600000000001" y="1459" as="sourcePoint" />
            <mxPoint x="1153.8600000000001" y="1489.2" as="targetPoint" />
          </mxGeometry>
        </mxCell>
        <mxCell id="FAZIJQEJNdmTviYIEOLT-6" value="" style="shape=flexArrow;endArrow=classic;html=1;rounded=0;width=11.140939597315436;endSize=5.028187919463087;endWidth=9.645511463447592;fillColor=#fff2cc;gradientColor=#ffd966;strokeColor=light-dark(#000000, #6d5100);" parent="1" edge="1">
          <mxGeometry width="50" height="50" relative="1" as="geometry">
            <mxPoint x="1082.41" y="1545" as="sourcePoint" />
            <mxPoint x="1082.41" y="1575.2" as="targetPoint" />
          </mxGeometry>
        </mxCell>
        <mxCell id="FAZIJQEJNdmTviYIEOLT-7" value="" style="shape=flexArrow;endArrow=classic;html=1;rounded=0;width=11.140939597315436;endSize=5.028187919463087;endWidth=9.645511463447592;fillColor=#fff2cc;gradientColor=#ffd966;strokeColor=light-dark(#000000, #6d5100);" parent="1" edge="1">
          <mxGeometry width="50" height="50" relative="1" as="geometry">
            <mxPoint x="1225.3100000000002" y="1544" as="sourcePoint" />
            <mxPoint x="1225.3100000000002" y="1574.2" as="targetPoint" />
          </mxGeometry>
        </mxCell>
        <mxCell id="FAZIJQEJNdmTviYIEOLT-8" value="" style="shape=flexArrow;endArrow=classic;html=1;rounded=0;width=11.140939597315436;endSize=5.028187919463087;endWidth=9.645511463447592;fillColor=#fff2cc;gradientColor=#ffd966;strokeColor=light-dark(#000000, #6d5100);" parent="1" edge="1">
          <mxGeometry width="50" height="50" relative="1" as="geometry">
            <mxPoint x="1153.8600000000001" y="1581" as="sourcePoint" />
            <mxPoint x="1153.8600000000001" y="1611.2" as="targetPoint" />
          </mxGeometry>
        </mxCell>
        <mxCell id="FAZIJQEJNdmTviYIEOLT-9" value="" style="shape=flexArrow;endArrow=classic;html=1;rounded=0;width=11.140939597315436;endSize=5.028187919463087;endWidth=9.645511463447592;fillColor=#fff2cc;gradientColor=#ffd966;strokeColor=light-dark(#000000, #6d5100);" parent="1" edge="1">
          <mxGeometry width="50" height="50" relative="1" as="geometry">
            <mxPoint x="1153.8600000000001" y="1677" as="sourcePoint" />
            <mxPoint x="1153.8600000000001" y="1707.2" as="targetPoint" />
          </mxGeometry>
        </mxCell>
        <mxCell id="Tlmr8piTBZ9pPivJCMVh-1" value="" style="rounded=0;whiteSpace=wrap;html=1;" vertex="1" parent="1">
          <mxGeometry x="1090" y="2130" width="120" height="60" as="geometry" />
        </mxCell>
      </root>
    </mxGraphModel>
  </diagram>
</mxfile>
